<svg width="222" height="312" viewBox="0 0 222 312" fill="none" xmlns="http://www.w3.org/2000/svg">
<g clip-path="url(#clip0_995_16479)">
<mask id="mask0_995_16479" style="mask-type:luminance" maskUnits="userSpaceOnUse" x="-1473" y="-848" width="2702" height="1919">
<path d="M1228.66 -847.586H-1472.32V1070.1H1228.66V-847.586Z" fill="white"/>
</mask>
<g mask="url(#mask0_995_16479)">
<path d="M111.057 1.36651C132.741 1.37778 153.935 7.84379 171.959 19.9469C189.983 32.0501 204.027 49.2467 212.315 69.3622C220.603 89.4778 222.762 111.609 218.521 132.956C214.279 154.304 203.827 173.91 188.486 189.294C173.145 204.679 153.604 215.151 132.334 219.387C111.064 223.623 89.0202 221.432 68.9906 213.091C48.961 204.75 31.8452 190.634 19.8072 172.528C7.7693 154.423 1.35001 133.14 1.36122 111.372C1.36121 96.9159 4.19939 82.6021 9.7135 69.2482C15.2276 55.8943 23.3095 43.7624 33.4972 33.546C43.6848 23.3296 55.7785 15.229 69.0867 9.70746C82.3949 4.18588 96.6567 1.35155 111.057 1.36651Z" fill="white"/>
<path fill-rule="evenodd" clip-rule="evenodd" d="M111.057 5.02647e-05C136.781 -0.024449 161.718 8.90753 181.617 25.2736C201.516 41.6396 215.145 64.4268 220.181 89.751C225.217 115.075 221.349 141.369 209.236 164.15C197.122 186.932 177.513 204.792 153.751 214.685C129.989 224.578 103.545 225.892 78.9257 218.404C54.3064 210.916 33.0359 195.088 18.7399 173.619C4.4438 152.15 -1.99304 126.369 0.526498 100.669C3.04604 74.9693 14.366 50.9421 32.5569 32.6827C42.8547 22.3165 55.09 14.0932 68.5609 8.48473C82.0318 2.87624 96.4733 -0.00714899 111.057 5.02647e-05ZM187.628 34.6187C169.921 16.8091 146.61 5.71576 121.667 3.22981C96.7242 0.743852 71.6946 7.01917 50.8452 20.986C29.9958 34.9528 14.6173 55.7464 7.33131 79.822C0.0453155 103.898 1.3029 129.765 10.8897 153.014C20.4765 176.263 37.7991 195.454 59.9043 207.316C82.0094 219.179 107.529 222.977 132.112 218.065C156.695 213.153 178.82 199.833 194.715 180.377C210.609 160.922 219.29 136.534 219.277 111.372C219.285 97.118 216.494 83.0027 211.063 69.8328C205.632 56.6629 197.669 44.6968 187.628 34.6187Z" fill="#100F0E"/>
<path d="M111.057 8.08533C131.417 8.09659 151.318 14.1686 168.241 25.5334C185.164 36.8983 198.35 53.0456 206.131 71.9334C213.913 90.8213 215.94 111.601 211.957 131.646C207.973 151.69 198.159 170.099 183.753 184.544C169.348 198.988 151 208.821 131.028 212.797C111.056 216.774 90.3585 214.716 71.5519 206.884C52.7453 199.051 36.6746 185.797 25.3721 168.796C14.0696 151.795 8.04288 131.811 8.05409 111.372C8.07815 83.9661 18.9415 57.6916 38.2562 38.3236C57.571 18.9556 83.7565 8.07928 111.057 8.08533Z" fill="white" stroke="#100F0E" stroke-width="1.58815"/>
<path d="M111.057 36.2129C125.876 36.2242 140.359 40.6465 152.674 48.9207C164.989 57.1949 174.584 68.9492 180.245 82.6974C185.905 96.4456 187.378 111.57 184.476 126.158C181.574 140.747 174.427 154.143 163.941 164.654C153.454 175.166 140.098 182.319 125.562 185.21C111.025 188.101 95.9613 186.6 82.2745 180.897C68.5878 175.194 56.8932 165.544 48.6695 153.169C40.4458 140.793 36.0623 126.248 36.0735 111.372C36.1006 91.4269 44.0129 72.3085 58.0724 58.2161C72.1318 44.1238 91.1887 36.2099 111.057 36.2129Z" fill="#1C8FCF" stroke="#100F0E" stroke-width="1.58815"/>
<path d="M100.507 40.1986L102.662 39.8569L103.229 44.5259L101.187 44.7536L100.507 40.1986ZM101.414 47.1451L103.456 46.9173L104.023 51.4724L101.982 51.7002L101.414 47.1451ZM102.322 54.0915L104.364 53.8638L105.044 58.4189L103.002 58.6466L102.322 54.0915ZM103.229 61.0381L105.271 60.8103L105.838 65.3654L103.797 65.707L103.229 61.0381ZM104.137 67.8707L106.179 67.6429L106.859 72.198L104.818 72.5396L104.137 67.8707ZM105.044 74.7033L107.086 74.4755L107.654 79.0306L105.612 79.3722L105.044 74.7033ZM105.952 81.5359L107.994 81.3082L108.674 85.8632L106.633 86.2049L105.952 81.5359ZM106.859 88.3685L108.901 88.1408L109.469 92.6959L107.427 93.0375L106.859 88.3685ZM107.767 95.315L109.809 94.9734L110.49 99.6423L108.334 99.8701L107.767 95.315ZM108.674 102.261L110.83 101.92L111.397 106.589L109.355 106.817L108.674 102.261ZM109.582 109.208L111.624 108.866L112.191 113.535L110.149 113.763L109.582 109.208ZM110.49 116.154L112.645 115.813L113.212 120.482L111.17 120.71L110.49 116.154ZM111.397 123.101L113.439 122.759L114.006 127.428L111.964 127.656L111.397 123.101ZM112.305 130.047L114.346 129.82L115.027 134.375L112.985 134.603L112.305 130.047ZM113.212 136.994L115.254 136.766L115.821 141.321L113.779 141.549L113.212 136.994ZM114.12 143.94L116.161 143.713L116.842 148.268L114.8 148.609L114.12 143.94ZM115.027 150.773L117.069 150.545L117.636 155.1L115.594 155.442L115.027 150.773ZM115.935 157.606L117.976 157.378L118.657 161.933L116.502 162.275L115.935 157.606ZM116.955 164.438L118.997 164.211L119.565 168.766L117.523 169.107L116.955 164.438ZM117.863 171.271L119.905 171.043L120.585 175.598L118.43 175.94L117.863 171.271ZM118.77 178.217L120.926 177.876L121.493 182.545L119.451 182.772L118.77 178.217ZM82.47 45.2092L84.3986 44.412L86.1001 48.7393L84.1716 49.5365L82.47 45.2092ZM85.1926 51.5862L87.121 50.7892L88.8226 55.1165L86.8942 55.9136L85.1926 51.5862ZM87.9151 58.0772L89.8435 57.2801L91.6585 61.4935L89.7301 62.2907L87.9151 58.0772ZM90.5242 64.5682L92.4527 63.7711L94.2677 67.9845L92.3393 68.7817L90.5242 64.5682ZM93.1333 71.0592L95.0617 70.2621L96.8768 74.4755L94.9483 75.3865L93.1333 71.0592ZM95.7425 77.4363L97.6709 76.6392L99.4859 80.9665L97.5574 81.7636L95.7425 77.4363ZM98.4649 83.8135L100.28 83.0163L102.095 87.3436L100.166 88.1408L98.4649 83.8135ZM101.187 90.1905L103.116 89.3934L104.818 93.7207L102.889 94.5179L101.187 90.1905ZM103.91 96.6815L105.838 95.7705L107.54 100.098L105.725 100.895L103.91 96.6815ZM106.519 103.173L108.448 102.375L110.263 106.589L108.334 107.386L106.519 103.173ZM109.128 109.663L111.057 108.866L112.872 113.08L110.943 113.877L109.128 109.663ZM111.737 116.154L113.666 115.357L115.481 119.685L113.552 120.482L111.737 116.154ZM114.346 122.532L116.275 121.734L118.09 126.062L116.161 126.859L114.346 122.532ZM117.069 128.909L118.997 128.112L120.699 132.439L118.77 133.236L117.069 128.909ZM119.791 135.286L121.72 134.489L123.421 138.816L121.493 139.613L119.791 135.286ZM122.514 141.777L124.442 140.98L126.144 145.193L124.329 145.99L122.514 141.777ZM125.123 148.268L127.052 147.471L128.867 151.684L126.938 152.481L125.123 148.268ZM127.732 154.759L129.661 153.962L131.476 158.289L129.547 159.086L127.732 154.759ZM130.341 161.136L132.27 160.339L134.085 164.666L132.156 165.463L130.341 161.136ZM133.064 167.513L134.879 166.716L136.694 171.043L134.765 171.84L133.064 167.513ZM135.786 173.89L137.715 173.093L139.416 177.42L137.488 178.217L135.786 173.89ZM120.926 44.6398L118.884 44.412L119.451 39.8569L121.493 40.0847L120.926 44.6398ZM120.018 51.5862L117.976 51.2446L118.544 46.6895L120.585 46.9173L120.018 51.5862ZM119.111 58.5328L117.069 58.1912L117.749 53.6361L119.791 53.8638L119.111 58.5328ZM118.203 65.4792L116.161 65.2515L116.729 60.5825L118.77 60.9242L118.203 65.4792ZM117.296 72.3119L115.254 72.0841L115.821 67.4152L117.863 67.7568L117.296 72.3119ZM116.388 79.1445L114.346 78.9167L115.027 74.3616L117.069 74.5894L116.388 79.1445ZM115.481 86.091L113.325 85.7493L114.006 81.1942L116.048 81.422L115.481 86.091ZM114.573 93.0375L112.531 92.6959L113.099 88.1408L115.14 88.3685L114.573 93.0375ZM113.666 99.9839L111.624 99.7562L112.305 95.0872L114.346 95.4289L113.666 99.9839ZM112.758 106.817L110.603 106.589L111.284 101.92L113.325 102.261L112.758 106.817ZM111.851 113.763L109.809 113.421L110.376 108.866L112.418 109.094L111.851 113.763ZM110.943 120.71L108.901 120.368L109.469 115.813L111.624 116.041L110.943 120.71ZM110.036 127.656L107.88 127.428L108.561 122.759L110.603 123.101L110.036 127.656ZM109.128 134.489L107.086 134.261L107.654 129.592L109.695 129.934L109.128 134.489ZM108.221 141.321L106.179 141.094L106.746 136.538L108.788 136.766L108.221 141.321ZM107.313 148.268L105.271 147.926L105.952 143.371L107.994 143.599L107.313 148.268ZM106.406 155.214L104.364 154.873L104.931 150.318L106.973 150.545L106.406 155.214ZM105.498 162.161L103.456 161.933L104.023 157.264L106.065 157.606L105.498 162.161ZM104.591 168.993L102.549 168.766L103.229 164.097L105.271 164.438L104.591 168.993ZM103.683 175.826L101.641 175.598L102.208 171.043L104.25 171.271L103.683 175.826ZM102.776 182.772L100.734 182.431L101.301 177.876L103.343 178.104L102.776 182.772ZM66.702 54.8887L68.2901 53.6361L71.1261 57.2801L69.5379 58.5328L66.702 54.8887ZM70.8993 60.4687L72.6009 59.216L75.3234 62.8601L73.7353 64.1127L70.8993 60.4687ZM75.0965 65.9348L76.7981 64.6821L79.634 68.4401L77.9325 69.6927L75.0965 65.9348ZM79.2938 71.4009L80.9954 70.1482L83.8314 73.7922L82.1298 75.1588L79.2938 71.4009ZM83.6044 76.8669L85.1926 75.6143L88.0285 79.2584L86.327 80.511L83.6044 76.8669ZM87.9151 82.4469L89.5033 81.1942L92.3393 84.8383L90.7511 86.091L87.9151 82.4469ZM92.1123 88.0269L93.7005 86.7742L96.5365 90.4183L94.9483 91.6709L92.1123 88.0269ZM96.3096 93.6069L98.0112 92.2403L100.847 95.9982L99.1456 97.2509L96.3096 93.6069ZM100.507 99.0729L102.208 97.8203L105.044 101.578L103.343 102.831L100.507 99.0729ZM104.818 104.539L106.406 103.286L109.242 106.93L107.54 108.297L104.818 104.539ZM109.128 110.005L110.716 108.752L113.552 112.397L111.964 113.649L109.128 110.005ZM113.325 115.585L114.914 114.332L117.749 117.977L116.161 119.229L113.325 115.585ZM117.523 121.165L119.224 119.799L121.947 123.556L120.359 124.809L117.523 121.165ZM121.72 126.631L123.421 125.379L126.257 129.136L124.556 130.389L121.72 126.631ZM125.917 132.097L127.619 130.845L130.455 134.489L128.753 135.855L125.917 132.097ZM130.228 137.563L131.816 136.311L134.652 139.955L133.064 141.207L130.228 137.563ZM134.425 143.143L136.013 141.891L138.849 145.535L137.261 146.787L134.425 143.143ZM138.622 148.723L140.324 147.471L143.046 151.115L141.458 152.367L138.622 148.723ZM142.82 154.303L144.521 152.937L147.357 156.695L145.656 157.947L142.82 154.303ZM147.017 159.769L148.718 158.517L151.554 162.275L149.853 163.527L147.017 159.769ZM151.328 165.235L152.916 163.983L155.752 167.627L154.05 168.879L151.328 165.235ZM138.055 49.5365L136.127 48.7393L137.828 44.412L139.757 45.2092L138.055 49.5365ZM135.446 55.9136L133.518 55.1165L135.219 50.903L137.148 51.7002L135.446 55.9136ZM132.837 62.2907L130.909 61.4935L132.724 57.2801L134.652 58.0772L132.837 62.2907ZM130.114 68.6678L128.186 67.8707L130.001 63.5433L131.929 64.3405L130.114 68.6678ZM127.392 75.1588L125.463 74.3616L127.278 70.0343L129.207 70.8315L127.392 75.1588ZM124.669 81.6498L122.854 80.8526L124.556 76.5253L126.484 77.3225L124.669 81.6498ZM122.06 88.1408L120.132 87.3436L121.833 83.0163L123.762 83.8135L122.06 88.1408ZM119.451 94.5179L117.523 93.7207L119.338 89.5073L121.153 90.3044L119.451 94.5179ZM116.842 100.895L114.914 100.098L116.729 95.8844L118.657 96.6815L116.842 100.895ZM114.12 107.272L112.191 106.475L114.006 102.148L115.935 102.945L114.12 107.272ZM111.397 113.763L109.469 112.966L111.284 108.639L113.212 109.436L111.397 113.763ZM108.674 120.254L106.859 119.457L108.561 115.13L110.49 115.927L108.674 120.254ZM106.065 126.745L104.137 125.948L105.838 121.621L107.767 122.418L106.065 126.745ZM103.456 133.122L101.528 132.325L103.343 128.112L105.158 128.909L103.456 133.122ZM100.847 139.499L98.9187 138.702L100.734 134.489L102.662 135.286L100.847 139.499ZM98.1246 145.876L96.1961 145.079L98.0112 140.752L99.9396 141.549L98.1246 145.876ZM95.4021 152.367L93.4737 151.57L95.2887 147.243L97.2171 148.04L95.4021 152.367ZM92.6795 158.858L90.8645 158.061L92.5661 153.734L94.4945 154.531L92.6795 158.858ZM90.0705 165.349L88.142 164.552L89.8435 160.225L91.7721 161.022L90.0705 165.349ZM87.4614 171.726L85.5329 170.929L87.3479 166.716L89.1629 167.513L87.4614 171.726ZM84.8522 178.104L82.9238 177.306L84.7388 173.093L86.6673 173.89L84.8522 178.104ZM53.77 68.2123L55.0178 66.618L58.7612 69.4649L57.5134 71.0592L53.77 68.2123ZM59.215 72.4258L60.4628 70.8315L64.2064 73.6784L62.9586 75.2727L59.215 72.4258ZM64.6602 76.6392L65.908 75.0449L69.6515 77.8919L68.4036 79.4861L64.6602 76.6392ZM70.1051 80.8526L71.3531 79.2584L75.0965 81.9914L73.8487 83.6996L70.1051 80.8526ZM75.5503 85.0661L76.7981 83.4718L80.5416 86.2049L79.2938 87.913L75.5503 85.0661ZM80.9954 89.2795L82.2432 87.6852L85.9866 90.4183L84.7388 92.1265L80.9954 89.2795ZM86.4404 93.493L87.6882 91.8987L91.4317 94.6318L90.1839 96.3399L86.4404 93.493ZM91.8855 97.7064L93.1333 96.1122L96.8768 98.8452L95.6289 100.553L91.8855 97.7064ZM97.3305 101.92L98.5784 100.326L102.322 103.059L101.074 104.767L97.3305 101.92ZM102.776 106.133L104.023 104.425L107.767 107.272L106.519 108.98L102.776 106.133ZM108.221 110.347L109.469 108.639L113.212 111.486L111.851 113.194L108.221 110.347ZM113.779 114.56L115.027 112.852L118.77 115.699L117.409 117.407L113.779 114.56ZM119.338 118.774L120.585 117.065L124.329 119.912L122.968 121.621L119.338 118.774ZM124.896 122.987L126.144 121.279L129.888 124.126L128.526 125.834L124.896 122.987ZM130.455 127.201L131.703 125.492L135.446 128.339L134.085 130.047L130.455 127.201ZM136.013 131.414L137.261 129.706L141.004 132.553L139.643 134.261L136.013 131.414ZM141.572 135.627L142.82 133.919L146.563 136.766L145.202 138.474L141.572 135.627ZM147.13 139.841L148.378 138.133L152.122 140.98L150.76 142.688L147.13 139.841ZM152.689 144.054L153.937 142.346L157.567 145.193L156.319 146.901L152.689 144.054ZM158.247 148.268L159.495 146.56L163.125 149.407L161.877 151.001L158.247 148.268ZM163.806 152.595L165.054 150.887L168.684 153.734L167.436 155.328L163.806 152.595ZM152.916 58.1912L151.328 56.8246L154.164 53.1805L155.752 54.4332L152.916 58.1912ZM148.718 63.7711L147.017 62.5185L149.853 58.7605L151.554 60.0132L148.718 63.7711ZM144.408 69.3511L142.82 68.0984L145.656 64.3405L147.244 65.707L144.408 69.3511ZM140.21 74.8172L138.509 73.5645L141.345 69.9205L143.046 71.1731L140.21 74.8172ZM135.9 80.2832L134.312 79.0306L137.148 75.3865L138.736 76.6392L135.9 80.2832ZM131.703 85.7493L130.001 84.4967L132.837 80.8526L134.539 82.1053L131.703 85.7493ZM127.505 91.3293L125.804 89.9628L128.64 86.3187L130.228 87.5714L127.505 91.3293ZM123.308 96.9093L121.72 95.6566L124.442 91.8987L126.144 93.1513L123.308 96.9093ZM119.111 102.489L117.409 101.237L120.245 97.4787L121.833 98.8452L119.111 102.489ZM114.914 107.955L113.325 106.703L116.161 103.059L117.749 104.311L114.914 107.955ZM110.716 113.421L109.015 112.169L111.851 108.525L113.552 109.777L110.716 113.421ZM106.406 118.888L104.818 117.635L107.654 113.991L109.242 115.243L106.406 118.888ZM102.208 124.467L100.507 123.101L103.343 119.457L105.044 120.71L102.208 124.467ZM97.8977 130.047L96.3096 128.795L99.1456 125.037L100.734 126.29L97.8977 130.047ZM93.7005 135.627L91.9989 134.375L94.8349 130.617L96.5365 131.983L93.7005 135.627ZM89.5033 141.094L87.8017 139.841L90.6377 136.197L92.2257 137.449L89.5033 141.094ZM85.306 146.56L83.7178 145.307L86.4404 141.663L88.142 142.916L85.306 146.56ZM81.1088 152.026L79.4072 150.773L82.2432 147.129L83.9448 148.382L81.1088 152.026ZM76.7981 157.606L75.2099 156.239L78.0459 152.595L79.634 153.848L76.7981 157.606ZM72.6009 163.186L70.8993 161.933L73.7353 158.175L75.4369 159.428L72.6009 163.186ZM68.2901 168.766L66.702 167.513L69.5379 163.755L71.1261 165.122L68.2901 168.766ZM44.5814 84.4967L45.3755 82.5608L49.5727 84.3829L48.7787 86.3187L44.5814 84.4967ZM51.0475 87.1159L51.8415 85.1799L56.1522 87.002L55.3581 88.9379L51.0475 87.1159ZM57.4 89.735L58.1941 87.7992L62.5048 89.6212L61.7108 91.5571L57.4 89.735ZM63.7526 92.3542L64.5467 90.4183L68.8573 92.2403L68.0633 94.0624L63.7526 92.3542ZM70.2187 95.0872L71.0127 93.1513L75.2099 94.8595L74.4159 96.7954L70.2187 95.0872ZM76.6847 97.8203L77.4787 95.8844L81.7894 97.5925L80.9954 99.5285L76.6847 97.8203ZM83.0372 100.553L83.8314 98.6175L88.142 100.326L87.3479 102.261L83.0372 100.553ZM89.3898 103.173L90.1839 101.35L94.4945 103.059L93.7005 104.995L89.3898 103.173ZM95.8559 105.792L96.6499 103.856L100.847 105.678L100.053 107.614L95.8559 105.792ZM102.322 108.411L103.116 106.475L107.427 108.297L106.633 110.233L102.322 108.411ZM108.674 111.03L109.469 109.094L113.779 110.916L112.985 112.852L108.674 111.03ZM115.14 113.649L115.935 111.713L120.132 113.535L119.338 115.471L115.14 113.649ZM121.606 116.268L122.401 114.332L126.711 116.154L125.917 117.977L121.606 116.268ZM127.959 119.001L128.753 117.065L133.064 118.774L132.27 120.71L127.959 119.001ZM134.312 121.734L135.106 119.799L139.416 121.507L138.622 123.443L134.312 121.734ZM140.778 124.467L141.572 122.532L145.769 124.24L144.975 126.176L140.778 124.467ZM147.244 127.087L148.038 125.265L152.348 126.973L151.554 128.909L147.244 127.087ZM153.596 129.706L154.39 127.77L158.701 129.592L157.907 131.528L153.596 129.706ZM159.949 132.325L160.743 130.389L165.054 132.211L164.259 134.147L159.949 132.325ZM166.415 134.944L167.209 133.008L171.406 134.83L170.612 136.766L166.415 134.944ZM172.881 137.563L173.675 135.627L177.986 137.449L177.192 139.385L172.881 137.563ZM165.167 70.7176L163.919 69.1233L167.549 66.2764L168.797 67.9845L165.167 70.7176ZM159.608 74.931L158.361 73.2229L162.104 70.4899L163.352 72.0841L159.608 74.931ZM154.05 79.1445L152.802 77.5502L156.546 74.7033L157.793 76.2976L154.05 79.1445ZM148.492 83.4718L147.244 81.7636L150.874 78.9167L152.122 80.6249L148.492 83.4718ZM143.046 87.6852L141.799 86.091L145.429 83.2441L146.676 84.8383L143.046 87.6852ZM137.601 91.8987L136.354 90.3044L139.984 87.4575L141.231 89.1656L137.601 91.8987ZM132.043 96.1122L130.795 94.404L134.539 91.6709L135.786 93.2652L132.043 96.1122ZM126.484 100.326L125.237 98.7313L128.98 95.8844L130.228 97.4787L126.484 100.326ZM120.926 104.653L119.678 102.945L123.308 100.098L124.556 101.806L120.926 104.653ZM115.481 108.866L114.233 107.158L117.863 104.425L119.111 106.019L115.481 108.866ZM110.036 113.08L108.788 111.486L112.418 108.639L113.666 110.347L110.036 113.08ZM104.591 117.293L103.229 115.585L106.973 112.738L108.221 114.446L104.591 117.293ZM99.0321 121.507L97.7843 119.912L101.528 117.065L102.776 118.66L99.0321 121.507ZM93.4737 125.834L92.2257 124.126L95.8559 121.279L97.2171 122.987L93.4737 125.834ZM87.9151 130.047L86.6673 128.339L90.2973 125.606L91.5451 127.201L87.9151 130.047ZM82.47 134.261L81.2222 132.667L84.8522 129.82L86.1001 131.528L82.47 134.261ZM77.025 138.474L75.6637 136.766L79.4072 133.919L80.655 135.627L77.025 138.474ZM71.4665 142.688L70.2187 141.094L73.9621 138.247L75.2099 139.841L71.4665 142.688ZM65.908 147.015L64.6602 145.307L68.2901 142.46L69.6515 144.168L65.908 147.015ZM60.3494 151.229L59.1016 149.52L62.7316 146.787L63.9796 148.382L60.3494 151.229ZM54.9044 155.442L53.6565 153.848L57.2866 151.001L58.5344 152.709L54.9044 155.442ZM40.0438 102.603L40.2708 100.439L44.8083 101.123L44.5814 103.173L40.0438 102.603ZM46.9637 103.514L47.1905 101.464L51.7281 102.034L51.5013 104.084L46.9637 103.514ZM53.8835 104.425L54.1103 102.375L58.7612 102.945L58.421 104.995L53.8835 104.425ZM60.8032 105.336L61.03 103.286L65.6811 103.856L65.3408 105.906L60.8032 105.336ZM67.723 106.247L67.9499 104.197L72.6009 104.767L72.2605 106.817L67.723 106.247ZM74.6427 107.158L74.9831 105.108L79.5206 105.678L79.2938 107.841L74.6427 107.158ZM81.449 108.069L81.7894 105.906L86.327 106.589L86.1001 108.639L81.449 108.069ZM88.2554 108.98L88.5957 106.93L93.1333 107.5L92.9065 109.55L88.2554 108.98ZM95.1753 109.891L95.4021 107.841L99.9396 108.411L99.7128 110.461L95.1753 109.891ZM102.095 110.802L102.322 108.752L106.859 109.322L106.633 111.372L102.095 110.802ZM109.015 111.713L109.242 109.663L113.893 110.233L113.552 112.283L109.015 111.713ZM115.935 112.624L116.161 110.575L120.812 111.144L120.472 113.308L115.935 112.624ZM122.854 113.535L123.081 111.372L127.732 112.055L127.392 114.105L122.854 113.535ZM129.774 114.446L130.001 112.397L134.652 112.966L134.425 115.016L129.774 114.446ZM136.58 115.357L136.921 113.308L141.458 113.877L141.231 115.927L136.58 115.357ZM143.387 116.268L143.727 114.219L148.265 114.788L148.038 116.838L143.387 116.268ZM150.193 117.179L150.533 115.13L155.071 115.699L154.844 117.863L150.193 117.179ZM157.113 117.977L157.34 115.927L161.877 116.61L161.65 118.66L157.113 117.977ZM164.033 118.888L164.259 116.724L168.911 117.407L168.57 119.457L164.033 118.888ZM170.952 119.799L171.179 117.749L175.83 118.318L175.49 120.368L170.952 119.799ZM177.872 120.71L178.099 118.66L182.75 119.229L182.41 121.279L177.872 120.71ZM40.611 121.507L40.2708 119.457L44.9218 118.888L45.1486 120.937L40.611 121.507ZM47.5309 120.596L47.1905 118.546L51.8415 117.863L52.0685 119.912L47.5309 120.596ZM54.4507 119.685L54.1103 117.635L58.7612 117.065L58.9882 119.115L54.4507 119.685ZM61.3704 118.774L61.03 116.724L65.6811 116.041L65.908 118.09L61.3704 118.774ZM68.2901 117.863L67.9499 115.813L72.6009 115.243L72.8277 117.293L68.2901 117.863ZM75.2099 116.952L74.9831 114.902L79.5206 114.219L79.7475 116.382L75.2099 116.952ZM82.1298 115.927L81.9028 113.877L86.4404 113.308L86.7808 115.357L82.1298 115.927ZM88.9361 115.016L88.7092 112.966L93.2467 112.397L93.5871 114.446L88.9361 115.016ZM95.7425 114.105L95.5155 111.941L100.053 111.372L100.393 113.421L95.7425 114.105ZM102.549 113.194L102.322 111.144L106.859 110.575L107.2 112.624L102.549 113.194ZM109.355 112.283L109.128 110.233L113.666 109.55L114.006 111.599L109.355 112.283ZM116.275 111.372L115.935 109.322L120.585 108.752L120.812 110.802L116.275 111.372ZM123.195 110.461L122.854 108.411L127.505 107.728L127.732 109.777L123.195 110.461ZM130.114 109.55L129.774 107.5L134.425 106.93L134.652 108.98L130.114 109.55ZM137.034 108.639L136.694 106.589L141.345 105.906L141.572 108.069L137.034 108.639ZM143.954 107.614L143.614 105.564L148.265 104.995L148.492 107.044L143.954 107.614ZM150.874 106.703L150.533 104.653L155.184 103.97L155.411 106.133L150.874 106.703ZM157.793 105.792L157.567 103.628L162.104 103.059L162.331 105.108L157.793 105.792ZM164.713 104.881L164.486 102.831L169.024 102.261L169.364 104.311L164.713 104.881ZM171.52 103.97L171.293 101.806L175.83 101.237L176.171 103.286L171.52 103.97ZM178.326 103.059L178.099 101.009L182.637 100.439L182.977 102.489L178.326 103.059ZM174.015 86.2049L173.221 84.2689L177.532 82.4469L178.326 84.3829L174.015 86.2049ZM167.663 88.824L166.869 86.8881L171.066 85.1799L171.86 87.1159L167.663 88.824ZM161.31 91.4432L160.516 89.5073L164.713 87.7992L165.507 89.735L161.31 91.4432ZM154.958 94.0624L154.164 92.1265L158.474 90.3044L159.268 92.2403L154.958 94.0624ZM148.492 96.7954L147.697 94.8595L152.008 93.0375L152.802 94.9734L148.492 96.7954ZM142.025 99.5285L141.231 97.5925L145.542 95.7705L146.336 97.7064L142.025 99.5285ZM135.559 102.148L134.765 100.212L139.076 98.5036L139.87 100.439L135.559 102.148ZM129.093 104.767L128.299 102.831L132.61 101.123L133.404 103.059L129.093 104.767ZM122.741 107.386L121.947 105.45L126.144 103.628L126.938 105.564L122.741 107.386ZM116.388 110.119L115.594 108.183L119.791 106.361L120.585 108.297L116.388 110.119ZM110.036 112.738L109.242 110.916L113.552 109.094L114.346 111.03L110.036 112.738ZM103.57 115.357L102.776 113.421L107.086 111.713L107.88 113.649L103.57 115.357ZM97.1037 117.977L96.3096 116.041L100.62 114.332L101.414 116.154L97.1037 117.977ZM90.6377 120.71L89.8435 118.774L94.1543 116.952L94.9483 118.888L90.6377 120.71ZM84.1716 123.443L83.3776 121.507L87.6882 119.685L88.4823 121.621L84.1716 123.443ZM77.819 126.062L77.025 124.126L81.2222 122.418L82.0162 124.354L77.819 126.062ZM71.4665 128.681L70.6723 126.745L74.8697 125.037L75.6637 126.973L71.4665 128.681ZM65.1139 131.3L64.3198 129.364L68.6305 127.542L69.4245 129.478L65.1139 131.3ZM58.6478 134.033L57.8538 132.097L62.1644 130.275L62.9586 132.211L58.6478 134.033ZM52.1819 136.652L51.3877 134.716L55.6985 133.008L56.4925 134.944L52.1819 136.652ZM45.7158 139.271L44.9218 137.336L49.2325 135.627L50.0265 137.563L45.7158 139.271Z" fill="white"/>
<path d="M111.057 81.3082C115.768 81.3082 120.374 82.7108 124.291 85.3385C128.209 87.9662 131.262 91.7011 133.065 96.0708C134.868 100.441 135.34 105.249 134.421 109.888C133.502 114.527 131.233 118.788 127.901 122.132C124.57 125.477 120.325 127.754 115.704 128.677C111.083 129.6 106.293 129.126 101.94 127.316C97.5874 125.506 93.8668 122.441 91.2492 118.508C88.6316 114.576 87.2345 109.952 87.2345 105.222C87.2345 98.88 89.7443 92.7973 94.2118 88.3125C98.6794 83.8277 104.739 81.3082 111.057 81.3082Z" fill="url(#paint0_radial_995_16479)"/>
<path d="M111.057 81.3083C115.773 81.2857 120.39 82.6691 124.322 85.283C128.255 87.897 131.326 91.624 133.146 95.9917C134.967 100.359 135.455 105.171 134.548 109.818C133.642 114.464 131.382 118.736 128.055 122.092C124.728 125.447 120.484 127.736 115.86 128.668C111.235 129.6 106.44 129.133 102.08 127.327C97.7207 125.52 93.9934 122.455 91.3707 118.52C88.7481 114.585 87.3481 109.957 87.348 105.222C87.348 98.8997 89.8422 92.8342 94.2852 88.3527C98.7282 83.8711 104.758 81.3384 111.057 81.3083Z" stroke="#100F0E" stroke-width="1.13439"/>
<path fill-rule="evenodd" clip-rule="evenodd" d="M40.4976 54.0915C41.4186 55.3142 42.0843 56.711 42.4547 58.1981C42.825 59.6853 42.8925 61.2322 42.6529 62.7462C42.4468 63.92 41.9384 65.0192 41.1782 65.9347C40.8615 66.388 40.4573 66.7727 39.9897 67.0661C39.522 67.3596 39.0004 67.5557 38.4558 67.6429C37.7957 67.7237 37.1259 67.6529 36.497 67.4359C35.8682 67.2189 35.2967 66.8613 34.8256 66.3902C33.1581 65.0237 31.6153 62.5981 30.1747 59.1021C30.0272 58.6466 29.9818 58.3847 30.0613 58.305C30.1339 58.3057 30.2047 58.3276 30.2651 58.3681C30.3255 58.4085 30.3729 58.4657 30.4015 58.5327C30.5362 58.6673 30.6509 58.8207 30.7419 58.9882C31.4488 60.7984 32.4876 62.4594 33.8047 63.885C35.6197 65.3995 37.3554 65.1034 39.023 62.9739C39.8703 61.9406 40.423 60.6963 40.6228 59.373C40.8225 58.0498 40.6617 56.6969 40.1573 55.458C39.8637 54.5581 39.311 53.7655 38.5692 53.1805L36.6406 51.5862C36.0844 50.9932 35.5903 50.3446 35.166 49.6503C34.5648 48.4319 34.2924 47.7485 34.3719 47.6005C34.4513 47.4525 34.4853 47.6005 34.7122 47.7144C35.3525 48.437 36.0344 49.1214 36.7542 49.7642C37.6031 50.4673 38.3648 51.2702 39.023 52.1556C39.5558 52.7681 40.0483 53.4148 40.4976 54.0915ZM174.809 49.7642C175.006 50.0205 175.235 50.2501 175.49 50.4474C175.717 50.5955 176.057 50.5613 176.511 50.3336C176.729 50.1479 176.908 49.9206 177.037 49.6649C177.167 49.4091 177.244 49.1301 177.266 48.8439C177.287 48.5578 177.251 48.2703 177.16 47.9982C177.07 47.7261 176.926 47.4748 176.738 47.2589C176.738 47.1 176.777 46.9436 176.851 46.8034C177.437 46.391 178.09 46.0827 178.78 45.8923C179.37 45.7754 179.982 45.8983 180.481 46.234C183.691 48.3327 187.025 50.2342 190.464 51.9279C189.477 52.2353 187.548 51.6204 184.678 50.1058C183.998 49.6503 179.574 46.3479 179.347 46.8034C179.537 47.4854 179.482 48.2127 179.192 48.858C178.901 49.5034 178.394 50.0257 177.759 50.3336C177.112 50.8094 176.38 51.1573 175.603 51.3585C174.775 51.666 174.208 51.7001 173.902 51.4723L173.788 51.2446L173.562 51.0168C173.108 50.4778 172.314 50.3639 171.179 50.6752C170.584 50.8354 169.977 50.9496 169.364 51.0168C168.505 50.9757 167.661 50.7829 166.869 50.4474C160.97 48.5115 148.151 38.0349 144.181 33.7076C142.933 32.1133 142.933 30.6328 143.84 29.608C144.254 29.1134 144.709 28.6561 145.202 28.2414C145.656 27.7062 145.962 27.4785 146.109 27.5582C146.257 27.6379 146.223 27.786 145.996 28.0137C145.853 28.3054 145.739 28.6106 145.656 28.9247C144.521 32.2272 164.713 48.056 171.52 49.3087C172.541 49.5364 174.242 49.0809 174.809 49.7642ZM162.331 37.8071C162.017 38.184 161.632 38.4937 161.197 38.7181C160.437 39.0256 159.949 39.0598 159.722 38.832C159.616 38.4592 159.54 38.0784 159.495 37.6933C159.348 37.158 159.302 36.8619 159.382 36.7822C159.742 36.5583 160.122 36.3677 160.516 36.2128C161.067 35.9774 161.636 35.7869 162.218 35.6434C162.342 36.0893 162.418 36.5475 162.444 37.01C162.484 37.1431 162.495 37.2834 162.475 37.4211C162.456 37.5587 162.407 37.6905 162.331 37.8071ZM187.401 66.2763C187.234 65.9648 187.002 65.6929 186.72 65.4792C186.418 65.2731 186.065 65.1549 185.699 65.1376C182.977 64.6023 181.582 64.2266 181.502 63.9988C181.318 63.0094 180.844 62.0976 180.141 61.3796C179.669 60.8933 179.135 60.4721 178.553 60.127C177.063 59.6908 175.548 59.3485 174.015 59.1021C171.444 58.5738 169.034 57.4421 166.982 55.7996C166.367 55.4072 165.829 54.9056 165.394 54.3193V54.0915C165.473 54.0915 166.335 54.5812 168.003 55.5719C169.247 56.3408 170.58 56.9528 171.973 57.394C173.457 57.8545 174.974 58.1971 176.511 58.4188C181.048 59.1021 183.809 60.6964 184.792 63.2016C184.932 63.4149 185.046 63.6443 185.132 63.885C185.132 64.033 185.62 64.2266 186.607 64.4543C187.266 64.5842 187.911 64.7748 188.535 65.0237C188.946 65.3781 189.292 65.802 189.556 66.2763C189.982 66.2869 190.403 66.3638 190.804 66.5041C190.804 66.5838 190.725 66.6522 190.577 66.7319C189.999 66.9608 189.364 67.0006 188.762 66.8457C188.509 66.8464 188.258 66.7963 188.025 66.6986C187.791 66.6008 187.579 66.4573 187.401 66.2763ZM187.061 57.9633C186.653 58.2128 186.165 58.2944 185.699 58.1911C184.871 58.1114 184.418 57.9633 184.338 57.7356C184.259 57.5078 184.531 57.0523 184.678 56.5968C184.826 56.1413 184.871 55.7655 185.019 55.6858L186.267 55.7996C187.027 55.8794 187.628 55.9477 188.082 56.0274C187.976 56.4969 187.824 56.9547 187.628 57.394C187.577 57.5224 187.5 57.639 187.402 57.7369C187.305 57.8347 187.189 57.9118 187.061 57.9633ZM191.031 58.0772C190.599 58.2502 190.135 58.3279 189.67 58.305C188.842 58.2252 188.388 58.043 188.309 57.7356C188.229 57.4281 188.501 57.0523 188.649 56.5968C188.796 56.1413 188.842 55.7996 188.989 55.7996C189.137 55.7996 189.477 55.7199 190.237 55.7996C190.997 55.8794 191.598 55.9477 192.052 56.0274C191.974 56.5042 191.821 56.9655 191.598 57.394C191.476 57.6698 191.279 57.9062 191.031 58.0772ZM68.0633 25.1668C67.9499 25.6223 67.4961 25.7362 67.0423 25.7362C66.5886 25.7362 66.5091 26.0436 66.5885 26.6472C66.9289 28.2415 65.681 29.0386 65.4542 28.4692C65.2273 27.8998 65.6811 27.8998 65.9079 27.5582C66.0589 27.325 66.1575 27.0615 66.1967 26.7862C66.2358 26.5108 66.2147 26.2302 66.1348 25.9639C65.9079 23.117 68.4036 23.3448 68.0633 25.1668ZM59.5554 47.2589C59.8602 47.6567 60.0558 48.1279 60.1226 48.6254C60.2058 49.3846 60.0923 49.8401 59.7822 49.992C59.402 49.9794 59.023 49.9413 58.6478 49.878C58.1147 49.878 57.8198 49.7984 57.7404 49.6503C57.5943 49.2488 57.5175 48.8251 57.5134 48.3976C57.4324 47.793 57.4324 47.1803 57.5134 46.5756C57.9709 46.6269 58.4254 46.7029 58.8748 46.8034C59.1502 46.865 59.3928 47.0274 59.5554 47.2589ZM62.051 45.2091C62.2238 45.3695 62.3629 45.563 62.4603 45.7781C62.5577 45.9932 62.6114 46.2256 62.6182 46.4617C62.7656 47.2247 62.7316 47.7144 62.5048 47.9422C62.0949 47.8537 61.676 47.8154 61.257 47.8283C60.7238 47.8283 60.4288 47.8283 60.3494 47.7144C60.27 47.6005 60.27 47.2247 60.1226 46.4617C59.9924 45.8625 59.9164 45.2527 59.8956 44.6397C60.3899 44.6216 60.8847 44.6598 61.3704 44.7536C61.6458 44.8151 61.8884 44.9776 62.051 45.2091ZM87.3479 26.6472C89.93 25.1604 92.2647 23.2776 94.2677 21.0672C95.7083 19.3932 96.6159 18.3 96.9902 17.7648L97.5574 16.7399C97.5574 16.581 97.5964 16.4245 97.6708 16.2843C98.2721 14.7698 98.9981 13.9271 99.8262 13.7791H100.166C100.62 13.8588 100.881 13.8588 100.961 13.7791C101.04 13.6994 101.448 13.4374 101.755 12.7542C101.834 12.4467 101.902 12.2986 101.982 12.2986C102.061 12.2986 102.208 12.5264 102.208 12.982C102.129 13.2097 101.981 13.6994 101.755 14.4623C101.783 14.6771 101.754 14.8956 101.669 15.0949C101.584 15.2942 101.448 15.4669 101.274 15.5951C101.1 15.7232 100.895 15.8019 100.68 15.823C100.465 15.8441 100.248 15.8068 100.053 15.715C99.9079 15.6556 99.7551 15.6173 99.5992 15.6011C99.4397 15.6051 99.2836 15.6489 99.1451 15.7284C99.0065 15.8079 98.8897 15.9207 98.8052 16.0566C98.6164 16.3263 98.4992 16.6398 98.4649 16.9676C98.6525 17.3311 98.925 17.6437 99.259 17.8786C99.5622 18.1026 99.8299 18.3714 100.053 18.6758C99.9838 19.1188 99.8296 19.5442 99.5992 19.9284C99.3724 20.4636 99.1115 20.7597 98.8052 20.8394L98.1246 20.6117C97.7879 20.5462 97.4465 20.508 97.1036 20.4978C96.6847 20.8341 96.3042 21.216 95.9693 21.6366C95.368 22.3198 94.8348 22.8892 94.4945 23.3447C91.8867 26.4092 88.7321 28.9582 85.1926 30.8606C80.2012 33.4798 72.9411 35.8712 67.2691 34.8463C67.1897 34.9944 66.7814 36.4747 66.0213 39.2875C65.9419 39.595 65.8286 39.743 65.6811 39.743C65.5336 39.743 65.6017 39.4355 65.6811 39.0597C66.2143 36.1786 66.6226 34.163 66.9289 33.0243C67.2352 31.8855 67.6095 31.2364 68.0633 31.3161C74.8117 31.728 81.5284 30.1019 87.3479 26.6472ZM95.0617 30.0635C95.3175 30.5117 95.3984 31.0392 95.2887 31.5439C95.2092 32.3069 95.0277 32.6826 94.7215 32.7965C94.4152 32.9104 94.1202 32.6029 93.5871 32.4549C93.0539 32.3068 92.7929 32.2613 92.7929 32.1133C92.7929 31.9652 92.793 31.6236 92.9065 30.8606C93.0199 30.0977 93.0539 29.4941 93.1333 29.0386C93.601 29.1446 94.0569 29.2972 94.4945 29.4941C94.6224 29.5457 94.7388 29.6227 94.8363 29.7206C94.9337 29.8184 95.0103 29.9351 95.0617 30.0635ZM188.309 60.8103C187.881 60.9999 187.413 61.0782 186.947 61.038C186.187 60.9583 185.734 60.7761 185.586 60.4686C185.665 60.1612 185.779 59.7854 185.926 59.3299C185.988 59.0092 186.103 58.7012 186.267 58.4188C186.414 58.4188 186.868 58.4188 187.628 58.5327C188.388 58.6466 188.955 58.6808 189.33 58.7605C189.224 59.23 189.072 59.6877 188.876 60.127C188.84 60.277 188.77 60.4167 188.672 60.5352C188.573 60.6537 188.449 60.7479 188.309 60.8103ZM164.713 39.6291C164.443 40.0236 164.04 40.3068 163.579 40.4263C162.898 40.7337 162.445 40.8021 162.218 40.654C161.991 40.506 162.025 39.9708 161.877 39.5153C161.73 39.0598 161.798 38.684 161.877 38.6043C162.237 38.3803 162.617 38.1898 163.012 38.0349C163.567 37.7775 164.135 37.5494 164.713 37.3516C164.844 37.8348 164.921 38.3315 164.94 38.832C164.945 39.1145 164.866 39.3919 164.713 39.6291ZM129.774 25.0529C130.138 24.9035 130.545 24.9035 130.909 25.0529C131.29 25.1968 131.61 25.4675 131.816 25.8197C132.023 26.172 132.103 26.5846 132.043 26.9888V27.2166C132.477 27.024 132.894 26.7954 133.291 26.5333C134.346 25.998 135.106 25.85 135.559 26.0778L136.127 26.4194C136.26 26.4546 136.399 26.4626 136.535 26.443C136.672 26.4235 136.803 26.3768 136.921 26.3056L137.828 25.7362L138.168 25.9639C138.395 26.0436 138.77 25.8159 139.303 25.2806C139.53 25.0529 139.677 24.9732 139.757 25.0529C139.836 25.1326 139.757 25.3148 139.53 25.6223C139.292 26.1145 138.942 26.5436 138.509 26.875C138.364 27.0664 138.175 27.2187 137.957 27.3181C137.739 27.4175 137.5 27.4609 137.261 27.4443C136.836 27.4549 136.415 27.5317 136.013 27.672C135.7 27.8559 135.353 27.9723 134.992 28.0137C134.78 27.9441 134.586 27.8272 134.425 27.672C134.248 27.5883 134.053 27.5492 133.858 27.5582C133.364 27.6325 132.897 27.8281 132.497 28.1276L131.249 28.9247C130.683 29.4184 130.152 29.9511 129.661 30.519C129.059 31.2022 128.719 31.5097 128.64 31.43C128.56 31.3503 128.447 31.3503 128.526 31.2023C128.606 31.0542 129.014 30.371 129.774 29.1525C130.228 28.0934 130.035 27.3646 129.207 26.9888C128 27.2345 126.847 27.6975 125.804 28.3553C125.458 28.5417 125.074 28.6485 124.682 28.6682C124.29 28.6879 123.898 28.6199 123.535 28.4692C122.098 27.8694 121.833 26.427 122.741 24.1419C124.071 21.3844 125.587 18.7211 127.278 16.1705C128.17 15.2054 129.117 14.2928 130.114 13.4374C130.114 13.3577 130.114 13.3577 130.228 13.4374C130.185 13.6037 130.108 13.759 130.001 13.893C129.468 14.6559 128.64 15.9769 127.505 17.8786C126.371 19.7804 125.724 21.1469 125.35 21.9782C124.59 23.8002 124.896 25.0187 126.257 25.6223C126.695 25.7728 127.163 25.812 127.619 25.7362C128.374 25.647 129.105 25.4151 129.774 25.0529ZM114.573 19.1313C114.494 19.359 114.993 19.7348 116.048 20.27C116.422 20.4978 116.615 21.0672 116.615 21.9782C116.543 24.1667 115.789 26.2774 114.46 28.0137C113.894 28.9385 113.114 29.7117 112.185 30.2671C111.256 30.8224 110.207 31.1434 109.128 31.2023C108.58 31.1766 108.046 31.0182 107.572 30.7406C107.098 30.463 106.698 30.0744 106.406 29.608C105.859 28.5542 105.586 27.3793 105.612 26.1916C105.671 24.4645 106.056 22.7643 106.746 21.1811C107.349 19.7401 108.031 18.3335 108.788 16.9676C108.868 17.2659 108.868 17.5803 108.788 17.8786C108.64 18.2544 108.334 18.9377 107.88 19.9284C107.427 20.9191 107.2 21.7846 106.973 22.5476C106.744 23.2457 106.629 23.9764 106.633 24.7113C106.639 25.5031 106.92 26.2679 107.427 26.875C107.752 27.1992 108.144 27.4486 108.575 27.6059C109.006 27.7632 109.465 27.8246 109.922 27.786C110.912 27.8213 111.892 27.585 112.758 27.1026C113.515 26.7798 114.178 26.2706 114.687 25.6223C115.089 25.1283 115.362 24.5411 115.481 23.9141C115.481 23.6864 114.993 23.3448 114.006 22.8893C113.714 22.7447 113.471 22.5156 113.309 22.2315C113.147 21.9474 113.074 21.6213 113.099 21.295C113.156 20.3014 113.512 19.3486 114.119 18.5619C114.557 17.7469 115.133 17.0148 115.821 16.3983C116.502 15.8592 116.842 15.5176 116.842 15.3733L116.615 15.1456C116.388 14.9975 116.309 14.8381 116.388 14.6901C116.663 13.9758 117.005 13.2895 117.409 12.6403C117.712 12.1848 117.939 11.957 118.09 11.957C119.451 12.2645 120.166 12.6745 120.245 13.2097C120.282 13.4748 120.26 13.7446 120.182 14.0003C120.103 14.2561 119.97 14.4915 119.791 14.6901C119.455 15.1921 118.983 15.5871 118.43 15.8289C117.897 16.1363 117.103 16.6601 116.048 17.4231C114.993 18.1861 114.573 18.7555 114.573 19.1313ZM92.1123 31.43C92.2772 31.8658 92.3165 32.3393 92.2257 32.7965C92.0745 33.6316 91.8476 34.0871 91.5451 34.163C91.2252 33.9687 90.8822 33.8157 90.5241 33.7076C89.991 33.5595 89.7301 33.4001 89.7301 33.252C89.7301 33.104 89.7301 32.7624 89.8435 31.9994C89.957 31.2364 90.1045 30.6671 90.1839 30.2913C90.6699 30.3914 91.1321 30.5847 91.5451 30.8606C91.673 30.9122 91.7892 30.9892 91.8867 31.087C91.9842 31.1849 92.061 31.3016 92.1123 31.43ZM101.641 26.1916C101.708 26.6499 101.669 27.1173 101.528 27.5582C101.222 28.3212 100.927 28.697 100.62 28.697C100.29 28.489 99.9495 28.2989 99.5992 28.1276C99.1455 27.8201 98.9186 27.6379 98.9186 27.5582C99.0381 27.1297 99.1898 26.711 99.3724 26.3056C99.5424 25.7514 99.7705 25.217 100.053 24.7113C100.462 24.9295 100.843 25.1972 101.187 25.5084C101.388 25.6988 101.543 25.9324 101.641 26.1916ZM56.606 29.2663C57.0598 30.0976 57.5928 31.1225 58.194 32.341L59.6688 35.3018C60.1991 36.3037 60.5813 37.3778 60.8032 38.4903C61.1775 40.9956 61.2229 42.328 60.9166 42.476C60.8372 42.5557 60.7692 42.4761 60.6898 42.3622C60.1347 40.227 59.3354 38.1634 58.3076 36.2128L57.2866 34.163C57.0597 33.3355 56.8329 32.3106 56.606 31.0883C56.4585 29.9496 56.379 29.3005 56.379 29.1525C56.379 29.0044 56.5266 29.1525 56.606 29.2663ZM54.7909 37.2377C55.4715 39.2875 55.619 40.654 55.2446 41.4512C54.2577 43.0455 53.9174 44.3322 54.2237 45.323C54.4396 46.1835 54.5913 47.059 54.6775 47.9422C54.8322 48.6693 54.7528 49.427 54.4506 50.1058C54.0178 50.8586 53.4392 51.5169 52.749 52.0417C52.0684 52.725 51.6147 52.9527 51.5012 52.725C51.3878 52.4972 51.4218 52.1897 51.7281 51.5862L52.4087 49.7642C52.7044 49.1851 52.9328 48.5737 53.0893 47.9422C53.233 47.4032 53.3465 46.9476 53.4297 46.5756C53.4035 45.8878 53.3277 45.2027 53.2028 44.5259C53.034 43.8916 52.9201 43.2439 52.8625 42.59C52.8534 41.8664 53.0502 41.1554 53.4297 40.5402C53.7322 39.9404 53.959 39.4849 54.1103 39.1736C54.2288 38.6878 54.3048 38.1924 54.3372 37.6933C54.4166 37.01 54.4506 36.6683 54.4506 36.6683C54.4506 36.6683 54.7115 36.7822 54.7909 37.2377ZM42.7664 43.1593C43.3676 43.9223 44.0483 44.7878 44.8083 45.7785L46.9637 48.3976C47.692 49.282 48.2672 50.2829 48.6653 51.3585C49.5728 53.7157 49.913 55.0025 49.6861 55.2303C49.6573 55.2496 49.6246 55.2621 49.5903 55.2668C49.556 55.2714 49.5211 55.2681 49.4882 55.2571C49.4554 55.2461 49.4254 55.2277 49.4007 55.2033C49.376 55.1789 49.3573 55.1492 49.3459 55.1164C48.3543 53.1477 47.1767 51.2791 45.8293 49.5364L44.3545 47.7144C43.8852 46.8289 43.4685 45.9163 43.1067 44.9813C42.7858 44.3826 42.5927 43.7233 42.5395 43.0454C42.5395 42.9657 42.6189 43.0455 42.7664 43.1593ZM35.5062 55.2303C35.9335 55.5405 36.2514 55.9793 36.4138 56.483C36.7882 57.3143 36.8675 57.8836 36.6406 58.1911C36.2168 58.2139 35.7976 58.2904 35.3928 58.4188C34.7916 58.5668 34.4513 58.6124 34.3719 58.5327C34.1107 58.1349 33.8831 57.7158 33.6912 57.28C33.3169 56.4487 33.0447 55.7997 32.8972 55.3442C33.6573 55.1961 34.1791 55.0822 34.4854 55.0025C34.8387 54.9976 35.1882 55.0756 35.5062 55.2303ZM97.8977 203.612C97.9201 204.955 97.7677 206.295 97.444 207.598C97.444 207.677 97.4439 207.712 97.3305 207.712C97.217 207.712 97.2171 207.711 97.2171 207.598C97.0265 205.498 96.5691 203.431 95.8558 201.448C95.3031 199.82 94.5806 198.255 93.7005 196.779C93.5924 196.681 93.5139 196.554 93.4738 196.413C93.4337 196.272 93.4337 196.123 93.4737 195.982L94.2677 193.249C94.3471 192.942 94.4606 192.908 94.608 193.135C95.5341 194.546 96.2594 196.079 96.7633 197.69C97.4523 199.591 97.8353 201.59 97.8977 203.612ZM109.582 193.135C109.492 194.089 109.223 195.016 108.788 195.868C108.255 197.007 107.653 197.576 106.859 197.576C106.506 197.581 106.156 197.503 105.838 197.349L105.271 196.779C104.884 197.279 104.377 197.671 103.797 197.918C104.427 199.752 104.771 201.673 104.818 203.612C104.84 204.955 104.687 206.295 104.364 207.598C104.284 207.746 104.25 207.825 104.25 207.825C104.217 207.797 104.189 207.762 104.17 207.723C104.15 207.684 104.139 207.641 104.137 207.598C103.955 203.775 102.74 200.074 100.62 196.893C100.514 196.77 100.438 196.623 100.398 196.465C100.359 196.307 100.357 196.141 100.393 195.982C100.62 195.151 100.926 194.24 101.301 193.249C101.38 193.021 101.448 192.987 101.528 193.135C101.791 193.546 102.139 193.896 102.549 194.16C102.922 194.505 103.404 194.706 103.91 194.729C104.145 194.724 104.377 194.671 104.592 194.573C104.806 194.475 104.999 194.335 105.158 194.16C105.444 193.882 105.641 193.526 105.725 193.135C105.872 192.828 105.986 192.68 106.065 192.68L106.406 193.135C106.553 193.511 106.667 193.705 106.746 193.705C106.863 193.863 107.018 193.988 107.197 194.067C107.376 194.147 107.572 194.179 107.767 194.16C108.093 194.188 108.419 194.101 108.688 193.914C108.957 193.727 109.153 193.452 109.242 193.135C109.321 192.828 109.389 192.68 109.469 192.68C109.548 192.68 109.582 192.828 109.582 193.135ZM116.729 203.612C116.751 204.955 116.598 206.295 116.275 207.598C116.275 207.677 116.275 207.712 116.161 207.712C116.048 207.712 116.048 207.711 116.048 207.598C115.857 205.498 115.4 203.431 114.687 201.448C114.134 199.82 113.411 198.255 112.531 196.779C112.423 196.681 112.345 196.554 112.305 196.413C112.265 196.272 112.265 196.123 112.304 195.982L113.099 193.249C113.178 192.942 113.291 192.908 113.439 193.135C114.365 194.546 115.09 196.079 115.594 197.69C116.283 199.591 116.666 201.59 116.729 203.612ZM123.081 199.968C123.383 201.236 123.535 202.536 123.535 203.84C123.573 205.146 123.42 206.45 123.081 207.712C123.002 207.86 122.934 207.939 122.854 207.939C122.775 207.939 122.741 207.86 122.741 207.712C122.654 205.851 122.311 204.011 121.72 202.245C121.196 200.657 120.43 199.159 119.451 197.804C119.337 197.685 119.257 197.539 119.217 197.379C119.177 197.219 119.18 197.052 119.224 196.893C119.372 196.21 119.644 195.265 120.018 194.046C120.166 193.819 120.279 193.784 120.359 193.932C120.733 194.536 121.119 195.071 121.493 195.641C122.094 196.472 122.548 196.893 122.854 196.893C123.085 195.748 123.548 194.662 124.216 193.705C124.896 192.566 125.656 191.996 126.484 191.996C126.677 191.998 126.866 192.04 127.042 192.118C127.217 192.196 127.375 192.31 127.505 192.452C127.646 192.653 127.725 192.89 127.732 193.135C127.732 193.67 127.539 193.932 127.165 193.932C126.959 193.91 126.763 193.831 126.598 193.705C126.339 193.633 126.072 193.595 125.804 193.591C125.315 193.647 124.868 193.892 124.556 194.274C124.382 194.434 124.242 194.627 124.145 194.842C124.047 195.057 123.994 195.29 123.989 195.527C123.991 195.72 124.032 195.91 124.11 196.086C124.188 196.263 124.301 196.421 124.442 196.552C124.652 196.766 124.937 196.889 125.237 196.893C125.775 196.859 126.289 196.661 126.711 196.324C127.159 196.022 127.545 195.635 127.846 195.185C128.148 194.73 128.262 194.616 128.186 194.843C128.265 195.754 127.653 196.779 126.371 197.918C125.467 198.873 124.334 199.578 123.081 199.968Z" fill="#100F0E"/>
<path d="M181.275 138.247C175.915 152.595 166.32 164.96 153.772 173.689C141.225 182.418 126.323 187.094 111.057 187.094C95.7909 187.094 80.8886 182.418 68.3411 173.689C55.7937 164.96 46.1986 152.595 40.838 138.247C51.7282 133.805 61.8241 127.884 71.8068 121.621C76.3443 118.318 83.8313 112.283 90.978 106.93C111.284 91.671 110.716 91.671 131.135 106.93C138.169 112.283 145.769 118.318 150.307 121.621C160.289 127.884 170.385 133.805 181.275 138.247Z" fill="#481513"/>
<path d="M146.903 148.723C138.282 148.154 114.687 146.332 107.54 152.367C109.355 153.278 112.758 153.43 117.75 152.823C118.044 153.04 118.266 153.34 118.387 153.685C118.509 154.031 118.524 154.405 118.43 154.759C119.684 154.374 120.742 153.517 121.38 152.367C122.968 152.367 123.459 153.81 122.854 156.695C123.691 156.59 124.479 156.243 125.123 155.698C125.768 155.152 126.241 154.43 126.484 153.62C126.777 153.616 127.067 153.687 127.325 153.827C127.583 153.966 127.801 154.169 127.959 154.417C129.382 153.937 130.667 153.116 131.703 152.026C132.69 153.392 132.417 155.784 130.909 159.2C132.345 159.428 135.03 157.492 138.963 153.392C139.643 155.066 138.702 157.868 136.127 161.819C139.076 161.743 141.912 159.845 144.635 156.125C146.223 156.885 146.185 159.769 144.521 164.78C146.79 164.696 149.739 161.508 153.369 155.214C154.958 156.049 155.222 158.744 154.164 163.3C155.752 162.92 157.529 159.921 159.495 154.303C160.403 154.531 160.777 155.932 160.63 158.517C162.218 157.606 163.503 154.873 164.486 150.318C164.969 150.736 165.345 151.265 165.582 151.859C165.819 152.454 165.91 153.097 165.848 153.734C167.555 151.644 168.654 149.122 169.024 146.446C170.565 145.885 171.933 144.927 172.988 143.668C174.043 142.408 174.75 140.892 175.036 139.271C167.095 144.168 154.958 140.98 146.903 148.723Z" fill="white"/>
<path d="M58.3077 134.033C61.5671 133.73 65.5375 131.832 70.2187 128.339C71.5044 128.195 71.6934 129.448 70.7859 132.097C73.1303 130.959 76.0797 128.188 79.6341 123.784C79.9366 125.978 78.9157 128.673 76.5713 131.87C80.1023 129.425 83.1427 126.335 85.533 122.759C86.6674 122.759 88.142 125.265 88.142 125.265C89.2764 121.962 90.1839 116.838 94.8349 114.105C96.2718 117.901 93.1712 125.417 85.533 136.652C90.9024 133.616 95.0997 128.795 98.1247 122.19C98.1247 125.151 98.0113 127.998 95.7425 134.147C97.4441 133.236 98.8053 132.211 99.2591 130.731C99.486 132.553 99.1456 133.578 98.1247 136.197C101.641 134.83 105.044 126.859 107.54 114.446C109.128 117.863 105.271 136.88 103.343 139.272C104.704 138.133 106.633 136.197 106.973 134.603C106.973 136.766 107.086 139.613 107.88 140.752C108.214 135.811 109.484 130.98 111.624 126.517C112.6 130.244 113.208 134.059 113.439 137.905C115.481 136.994 116.275 131.186 115.821 120.482C118.036 126.844 119.074 133.559 118.884 140.297C120.325 138.019 120.733 134.717 120.132 130.389C121.178 133.056 122.675 135.521 124.556 137.677C122.514 129.395 121.909 124.308 122.741 122.418C126.825 126.959 130.123 132.156 132.497 137.791C133.858 134.83 131.324 128.643 124.896 119.229C129.283 124.619 133.064 128.339 136.24 130.389C134.703 128.165 134.055 125.441 134.425 122.759C136.777 124.354 139.537 128.605 142.706 135.514C143.765 133.16 142.479 128.377 138.849 121.165C140.891 121.309 144.03 124.498 148.265 130.731C149.55 128.681 149.21 125.91 147.244 122.418C148.661 122.627 150.064 122.931 151.441 123.329L149.399 121.962C144.975 118.774 137.601 112.966 130.795 107.728C110.943 92.9238 111.397 92.9238 91.5452 107.728C84.7388 112.966 77.3653 118.774 72.9412 121.962C65.7746 126.694 58.3098 130.955 50.5938 134.717C55.4451 133.511 60.051 131.469 64.2064 128.681C63.3783 130.423 61.3705 132.211 58.3077 134.033Z" fill="white"/>
<path d="M147.244 169.677C146.45 169.791 144.748 170.132 139.87 168.538C134.992 166.944 127.165 163.641 117.977 159.769C101.188 152.823 71.2397 144.282 53.7701 148.154C50.4804 148.837 50.4803 148.837 51.7282 148.837C53.5816 148.766 55.4377 148.804 57.2867 148.951C58.8748 149.179 59.6689 149.521 60.1227 150.432C60.3739 150.905 60.5053 151.433 60.5053 151.969C60.5053 152.505 60.3739 153.033 60.1227 153.506C59.504 154.24 58.6702 154.758 57.7405 154.987C57.0598 155.214 57.0598 155.214 58.4211 155.442C60.5623 155.792 62.7458 155.792 64.8871 155.442C67.1288 154.75 69.266 153.754 71.2396 152.481C72.4874 151.684 72.6009 151.684 72.374 152.481C72.1976 153.934 71.5614 155.291 70.559 156.353C69.2211 157.557 67.686 158.521 66.0214 159.2C64.8871 159.769 64.8871 159.656 66.2484 159.428C68.5743 159.119 70.8577 158.546 73.0547 157.72C74.9154 156.918 76.6685 155.885 78.2729 154.645C79.1804 153.962 79.1804 153.962 78.8401 154.759C78.3211 156.107 77.5511 157.344 76.5713 158.403C75.3835 159.593 74.0492 160.626 72.601 161.478C71.8069 161.933 71.8068 162.047 72.9412 161.705C74.0756 161.364 76.4579 160.794 77.5923 160.567C78.7267 160.339 78.7267 160.339 78.2729 160.794C77.5526 161.701 76.713 162.506 75.7772 163.186C74.7667 163.88 73.6578 164.418 72.4875 164.78C71.8069 165.122 71.6934 165.122 73.395 164.894C76.2243 164.531 79.0029 163.843 81.6761 162.844C84.2549 161.735 86.6922 160.321 88.9362 158.631C90.2975 157.606 90.2974 157.606 89.6168 158.631C88.5157 160.45 87.3033 162.2 85.9867 163.869C84.4907 165.517 82.8998 167.076 81.2223 168.538C80.2013 169.449 80.3148 169.335 81.2223 168.993C82.7211 168.596 84.1681 168.023 85.533 167.285C86.7297 166.637 87.8358 165.833 88.8226 164.894C89.5033 164.325 89.5033 164.325 89.2764 164.78C89.0916 165.546 88.7853 166.276 88.369 166.944C87.8086 167.81 87.2026 168.647 86.5539 169.449C86.1001 169.904 86.1002 169.905 87.4614 169.221C89.7299 168.192 91.928 167.013 94.0409 165.691C95.7104 164.505 97.3018 163.211 98.8053 161.819C99.7128 161.022 99.8263 160.794 99.2591 161.819C98.4099 163.675 97.3022 165.401 95.9694 166.944C94.4217 168.73 92.7129 170.37 90.8646 171.84C89.8437 172.865 89.8436 172.865 90.978 172.524C93.1434 172.081 95.2411 171.353 97.2172 170.36C99.783 168.983 102.247 167.422 104.591 165.691C106.179 164.666 106.292 164.438 105.725 165.577C104.792 167.554 103.651 169.424 102.322 171.157C101.074 172.706 99.6672 174.118 98.1247 175.371C97.3306 176.168 97.6709 175.94 100.167 174.801C102.662 173.662 107.2 171.385 110.376 169.563C112.396 168.387 114.296 167.014 116.048 165.463C116.955 164.666 116.955 164.552 116.615 165.349C115.765 167.17 114.657 168.858 113.326 170.36C111.346 172.365 109.263 174.266 107.086 176.054C105.612 177.193 105.612 177.193 107.086 176.737C109.709 175.848 112.284 174.822 114.8 173.662C117.675 172.249 120.476 170.69 123.195 168.993C124.896 167.855 125.01 167.855 124.556 168.424C123.864 169.818 122.899 171.057 121.72 172.068C120.049 173.501 118.266 174.795 116.388 175.94C115.141 176.737 115.141 176.737 116.729 176.168C118.317 175.598 121.72 174.687 123.875 173.89C126.031 173.093 127.052 172.524 128.073 172.751C129.094 172.979 130.001 173.89 130.909 173.89C131.816 173.89 132.383 172.979 133.291 172.979C134.198 172.979 135.219 173.662 137.261 173.776C139.731 173.853 142.193 173.467 144.521 172.638C145.825 172.119 146.962 171.253 147.811 170.132C148.151 169.563 148.151 169.449 147.244 169.677Z" fill="white"/>
<path fill-rule="evenodd" clip-rule="evenodd" d="M103.343 139.271C103.263 139.419 103.195 139.498 103.116 139.498L103.343 139.271Z" fill="white"/>
</g>
</g>
<g clip-path="url(#clip1_995_16479)">
<mask id="mask1_995_16479" style="mask-type:luminance" maskUnits="userSpaceOnUse" x="-503" y="-177" width="1351" height="904">
<path d="M847.343 -176.784H-502.803V726.445H847.343V-176.784Z" fill="white"/>
</mask>
<g mask="url(#mask1_995_16479)">
<path d="M90.2743 260.402V244.526H79.7272V258.793C79.7272 259.732 79.3329 260.632 78.6311 261.296C77.9292 261.96 76.9773 262.333 75.9847 262.333C74.9921 262.333 74.0401 261.96 73.3383 261.296C72.6364 260.632 72.2421 259.732 72.2421 258.793V244.526H61.5249V270.647C61.525 271.109 61.4278 271.567 61.239 271.993C61.0502 272.42 60.7737 272.806 60.4254 273.131C60.0771 273.455 59.664 273.711 59.2103 273.883C58.7565 274.055 58.2711 274.14 57.7823 274.133V281.213C59.1755 281.925 60.7354 282.293 62.3187 282.286C64.9469 282.274 67.464 281.282 69.3225 279.524C71.1809 277.766 72.2302 275.385 72.2421 272.899V265.819C73.4593 267.445 75.1916 268.663 77.1885 269.296C79.1854 269.93 81.3435 269.946 83.3509 269.343C85.3583 268.74 87.1109 267.549 88.3555 265.941C89.6 264.334 90.272 262.394 90.2743 260.402Z" fill="white"/>
<path d="M108.306 237.822H97.7593V269.789H108.306V237.822Z" fill="white"/>
<path d="M90.5011 272.363C89.1572 272.366 87.8658 272.857 86.8946 273.736C85.9235 274.615 85.3468 275.813 85.2842 277.083C85.2176 275.789 84.6191 274.572 83.6164 273.69C82.6137 272.809 81.2862 272.333 79.9176 272.364C78.549 272.396 77.2477 272.932 76.2915 273.859C75.3353 274.786 74.8 276.029 74.8 277.324C74.8 278.619 75.3353 279.863 76.2915 280.789C77.2477 281.716 78.549 282.253 79.9176 282.284C81.2862 282.316 82.6137 281.84 83.6164 280.958C84.6191 280.076 85.2176 278.859 85.2842 277.566C85.3332 278.538 85.683 279.475 86.2904 280.261C86.8978 281.047 87.7359 281.646 88.7006 281.985C89.6653 282.324 90.714 282.388 91.7164 282.168C92.7189 281.947 93.6309 281.454 94.339 280.747C95.0472 280.041 95.5203 279.154 95.6997 278.195C95.879 277.237 95.7567 276.249 95.3479 275.356C94.939 274.463 94.2616 273.703 93.3999 273.171C92.5382 272.639 91.5302 272.358 90.5011 272.363Z" fill="white"/>
<path d="M54.0399 237.822H43.5494V269.789H54.0399V237.822Z" fill="white"/>
<path d="M18.5992 247.637C19.6366 247.632 20.649 247.335 21.5084 246.786C22.3679 246.236 23.0357 245.458 23.4275 244.549C23.8193 243.641 23.9175 242.643 23.7096 241.681C23.5017 240.72 22.9971 239.839 22.2596 239.149C21.5221 238.458 20.5848 237.991 19.5663 237.805C18.5477 237.618 17.4936 237.722 16.5374 238.102C15.5811 238.483 14.7655 239.123 14.1939 239.942C13.6222 240.76 13.32 241.721 13.3256 242.702C13.3346 244.018 13.8949 245.276 14.8836 246.201C15.8723 247.126 17.2085 247.643 18.5992 247.637Z" fill="white"/>
<path d="M25.3472 266.678C25.3472 274.294 10.7741 274.294 10.7741 266.678V244.687H0.113525V269.574C0.113525 286.523 36.0645 286.523 36.0645 269.574V244.687H25.3472V266.678Z" fill="white"/>
<path d="M216.726 272.363C215.689 272.368 214.677 272.664 213.817 273.214C212.958 273.764 212.29 274.542 211.898 275.45C211.506 276.359 211.408 277.357 211.616 278.318C211.824 279.28 212.329 280.161 213.066 280.851C213.804 281.541 214.741 282.009 215.759 282.195C216.778 282.382 217.832 282.278 218.788 281.898C219.745 281.517 220.56 280.877 221.132 280.058C221.703 279.239 222.006 278.279 222 277.297C222.002 276.644 221.866 275.998 221.601 275.395C221.335 274.792 220.946 274.245 220.455 273.786C219.965 273.327 219.382 272.964 218.742 272.72C218.102 272.476 217.417 272.354 216.726 272.363Z" fill="white"/>
<path d="M200.566 272.363C199.219 272.356 197.922 272.845 196.949 273.725C195.975 274.606 195.402 275.81 195.349 277.083C195.282 275.789 194.683 274.572 193.681 273.69C192.678 272.809 191.351 272.333 189.982 272.364C188.613 272.396 187.312 272.932 186.356 273.859C185.4 274.786 184.864 276.029 184.864 277.324C184.864 278.619 185.4 279.863 186.356 280.789C187.312 281.716 188.613 282.253 189.982 282.284C191.351 282.316 192.678 281.84 193.681 280.958C194.683 280.076 195.282 278.859 195.349 277.566C195.402 278.838 195.975 280.042 196.949 280.923C197.922 281.803 199.219 282.292 200.566 282.285C201.957 282.285 203.291 281.763 204.274 280.832C205.258 279.902 205.811 278.64 205.811 277.324C205.811 276.008 205.258 274.746 204.274 273.816C203.291 272.886 201.957 272.363 200.566 272.363Z" fill="white"/>
<path d="M211.453 258.793C211.453 259.732 211.059 260.632 210.357 261.296C209.655 261.96 208.703 262.333 207.71 262.333C206.718 262.333 205.766 261.96 205.064 261.296C204.362 260.632 203.968 259.732 203.968 258.793V244.472H193.421V258.793C193.421 259.732 193.026 260.632 192.325 261.296C191.623 261.96 190.671 262.333 189.678 262.333C188.686 262.333 187.734 261.96 187.032 261.296C186.33 260.632 185.936 259.732 185.936 258.793V244.472H163.594C161.956 244.477 160.387 245.094 159.228 246.189C158.07 247.285 157.418 248.769 157.413 250.319V258.793C157.413 259.739 157.016 260.646 156.309 261.315C155.601 261.984 154.642 262.36 153.642 262.36C152.642 262.36 151.683 261.984 150.976 261.315C150.269 260.646 149.871 259.739 149.871 258.793V244.472H127.529C125.892 244.477 124.322 245.094 123.164 246.189C122.006 247.285 121.353 248.769 121.349 250.319V260.402C121.361 262.888 122.41 265.269 124.268 267.027C126.127 268.785 128.644 269.777 131.272 269.789C132.852 269.77 134.405 269.403 135.808 268.716V261.582C134.809 261.614 133.837 261.271 133.105 260.628C132.372 259.985 131.937 259.094 131.896 258.15V251.123C131.92 250.187 132.331 249.297 133.042 248.645C133.752 247.993 134.705 247.631 135.695 247.637C136.179 247.636 136.659 247.726 137.106 247.901C137.554 248.076 137.961 248.333 138.303 248.656C138.645 248.98 138.917 249.365 139.102 249.788C139.287 250.212 139.382 250.665 139.381 251.123V260.402C139.382 262.543 140.157 264.618 141.576 266.285C142.996 267.952 144.975 269.11 147.185 269.567C149.396 270.024 151.705 269.752 153.73 268.798C155.756 267.843 157.375 266.262 158.32 264.318C159.105 265.95 160.369 267.334 161.963 268.305C163.557 269.276 165.412 269.792 167.308 269.792C169.204 269.792 171.059 269.276 172.653 268.305C174.247 267.334 175.511 265.95 176.296 264.318C177.095 265.945 178.367 267.324 179.963 268.293C181.56 269.261 183.415 269.78 185.312 269.789C187.212 269.794 189.073 269.281 190.673 268.31C192.272 267.34 193.541 265.954 194.328 264.318C195.053 265.821 196.186 267.116 197.612 268.071C199.037 269.026 200.705 269.606 202.445 269.753C204.185 269.9 205.935 269.609 207.517 268.908C209.1 268.208 210.458 267.124 211.453 265.766V269.735H222V244.472H211.453V258.793ZM175.445 258.15C175.438 259.072 175.047 259.955 174.357 260.607C173.668 261.259 172.735 261.629 171.759 261.636C170.769 261.625 169.82 261.259 169.105 260.612C168.389 259.965 167.959 259.085 167.903 258.15V251.123C167.903 249.246 169.775 247.691 171.759 247.691C172.729 247.686 173.66 248.045 174.351 248.688C175.041 249.331 175.435 250.207 175.445 251.123V258.15Z" fill="white"/>
<path fill-rule="evenodd" clip-rule="evenodd" d="M6.63449 312H0V292.745H6.63449V312ZM216.5 292.852C217.955 292.862 219.348 293.413 220.377 294.387C221.407 295.36 221.99 296.678 222 298.055V299.342C221.998 300.721 221.418 302.044 220.387 303.019C219.356 303.995 217.958 304.543 216.5 304.545H209.411C209.865 306.368 210.943 307.763 212.587 307.763H220.185V312H210.035C199.545 312 199.545 292.852 210.035 292.852H216.5ZM216.159 297.089H212.587C210.943 297.089 209.865 298.537 209.411 300.307H216.159C216.519 300.303 216.863 300.166 217.117 299.926C217.371 299.685 217.516 299.36 217.52 299.02V298.376C217.516 298.036 217.371 297.711 217.117 297.471C216.863 297.23 216.519 297.093 216.159 297.089ZM118.967 292.745V305.081C118.967 305.678 119.218 306.251 119.665 306.674C120.111 307.096 120.717 307.334 121.349 307.334C121.98 307.334 122.586 307.096 123.033 306.674C123.479 306.251 123.73 305.678 123.73 305.081V292.745H130.365V312H123.73V309.479C122.968 310.503 121.882 311.272 120.629 311.677C119.376 312.081 118.02 312.1 116.755 311.731C115.49 311.362 114.38 310.623 113.586 309.622C112.792 308.62 112.353 307.406 112.333 306.154V292.745H118.967ZM99.0636 298.376V299.02C99.068 299.36 99.2128 299.685 99.4671 299.926C99.7214 300.166 100.065 300.303 100.425 300.307H104.847C106.303 300.317 107.696 300.868 108.725 301.842C109.755 302.816 110.338 304.133 110.348 305.51V306.797C110.346 308.177 109.766 309.499 108.735 310.475C107.704 311.45 106.306 311.999 104.847 312H92.3157V307.763H102.182C102.55 307.768 102.906 307.636 103.172 307.395C103.437 307.154 103.591 306.824 103.6 306.475V305.832C103.591 305.484 103.437 305.153 103.172 304.912C102.906 304.671 102.55 304.539 102.182 304.545H97.8161C96.3577 304.543 94.9596 303.995 93.9284 303.019C92.8972 302.044 92.3172 300.721 92.3157 299.342V298.055C92.3261 296.678 92.9089 295.36 93.9382 294.387C94.9675 293.413 96.3605 292.862 97.8161 292.852H110.348V297.089H100.425C100.065 297.093 99.7214 297.23 99.4671 297.471C99.2128 297.711 99.068 298.036 99.0636 298.376ZM201.076 312H190.982C180.435 312 180.435 292.852 190.982 292.852H201.076V297.089H193.477C188.941 297.089 188.941 307.763 193.477 307.763H201.076V312ZM174.141 312V299.717C174.141 299.12 173.89 298.547 173.443 298.124C172.997 297.702 172.391 297.465 171.759 297.465C171.128 297.465 170.522 297.702 170.075 298.124C169.629 298.547 169.378 299.12 169.378 299.717V312H162.743V292.798H169.378V295.266C170.148 294.255 171.234 293.499 172.483 293.103C173.731 292.707 175.08 292.691 176.339 293.058C177.597 293.425 178.702 294.157 179.498 295.149C180.294 296.142 180.741 297.346 180.775 298.591V312H174.141ZM150.892 293.656C151.888 293.099 153.023 292.802 154.181 292.798C155.004 292.795 155.819 292.945 156.581 293.239C157.343 293.534 158.035 293.967 158.62 294.515C159.204 295.063 159.669 295.714 159.987 296.432C160.306 297.15 160.471 297.92 160.475 298.698V312H146.356C145.318 311.999 144.324 311.608 143.591 310.914C142.857 310.221 142.444 309.28 142.443 308.299V304.813C142.446 303.798 142.724 302.801 143.25 301.918C143.777 301.034 144.535 300.293 145.451 299.765C146.367 299.238 147.411 298.942 148.483 298.905C149.555 298.868 150.618 299.093 151.572 299.556L153.841 300.683V299.717C153.835 299.377 153.749 299.043 153.59 298.738C153.43 298.433 153.201 298.166 152.919 297.955C152.636 297.744 152.308 297.596 151.957 297.52C151.607 297.445 151.243 297.444 150.892 297.518V293.656ZM153.841 304.115L151.572 304.062C151.265 304.047 150.958 304.092 150.67 304.193C150.381 304.295 150.118 304.45 149.895 304.651C149.672 304.852 149.495 305.093 149.374 305.361C149.253 305.628 149.19 305.916 149.191 306.207V307.816C149.194 308.399 149.44 308.956 149.875 309.368C150.31 309.78 150.9 310.013 151.516 310.015C152.128 310.003 152.712 309.767 153.145 309.358C153.578 308.948 153.828 308.396 153.841 307.816V304.115ZM140.175 312H133.427V298.698C133.422 297.681 133.695 296.68 134.219 295.791C134.744 294.903 135.502 294.159 136.421 293.63C137.34 293.101 138.388 292.805 139.463 292.773C140.538 292.74 141.603 292.97 142.556 293.442V297.894C142.247 297.889 141.94 297.943 141.653 298.051C141.365 298.16 141.104 298.321 140.882 298.525C140.661 298.729 140.485 298.973 140.363 299.242C140.242 299.511 140.178 299.8 140.175 300.093V312ZM83.5831 312V299.717C83.5831 299.12 83.3322 298.547 82.8856 298.124C82.4389 297.702 81.8332 297.465 81.2015 297.465C80.5699 297.465 79.9641 297.702 79.5175 298.124C79.0708 298.547 78.8199 299.12 78.8199 299.717V312H72.1854V292.798H78.8199V295.319C79.389 294.537 80.1516 293.899 81.041 293.46C81.9305 293.02 82.9199 292.793 83.9233 292.798C85.5615 292.804 87.1331 293.412 88.3072 294.492C89.4813 295.573 90.1662 297.042 90.2176 298.591V312H83.5831ZM69.8605 312H63.2261V292.798H69.8605V312ZM49.7303 312V299.664C49.7273 299.371 49.6633 299.082 49.5418 298.813C49.4204 298.544 49.244 298.3 49.0227 298.096C48.8014 297.892 48.5395 297.731 48.2523 297.622C47.965 297.514 47.6579 297.46 47.3487 297.465C47.0425 297.462 46.7388 297.517 46.4554 297.626C46.1719 297.736 45.9144 297.898 45.6979 298.102C45.4814 298.307 45.3103 298.551 45.1945 298.819C45.0788 299.087 45.0207 299.374 45.0237 299.664V312H38.3326V292.745H45.0237V295.266C45.7824 294.244 46.864 293.477 48.113 293.073C49.362 292.67 50.714 292.652 51.9745 293.022C53.2351 293.391 54.3392 294.13 55.128 295.13C55.9169 296.131 56.3499 297.343 56.3647 298.591V312H49.7303ZM26.4812 293.656C27.4613 293.058 28.6037 292.741 29.7701 292.745C31.4376 292.75 33.0351 293.379 34.2142 294.495C35.3933 295.61 36.0584 297.121 36.0644 298.698V312H21.9448C20.9076 311.999 19.9132 311.608 19.1798 310.914C18.4464 310.221 18.0337 309.28 18.0322 308.299V304.813C18.0332 303.797 18.3091 302.797 18.8338 301.911C19.3584 301.024 20.1143 300.279 21.0295 299.747C21.9446 299.214 22.9886 298.912 24.062 298.87C25.1354 298.827 26.2025 299.045 27.1617 299.503L29.4299 300.629V299.664C29.4286 299.324 29.3452 298.989 29.186 298.685C29.0268 298.38 28.796 298.114 28.5115 297.907C28.2269 297.7 27.8959 297.558 27.544 297.49C27.1921 297.423 26.8286 297.432 26.4812 297.518V293.656ZM29.4299 304.115L27.1617 304.008C26.8512 304 26.5421 304.05 26.2527 304.157C25.9634 304.264 25.6997 304.424 25.4775 304.63C25.2552 304.835 25.0789 305.08 24.9591 305.351C24.8393 305.622 24.7784 305.913 24.7801 306.207V307.763C24.7771 308.052 24.8351 308.34 24.9509 308.608C25.0666 308.876 25.2378 309.119 25.4543 309.324C25.6707 309.529 25.9283 309.691 26.2117 309.8C26.4951 309.91 26.7988 309.965 27.105 309.962C27.7207 309.959 28.3103 309.726 28.7456 309.315C29.181 308.903 29.4269 308.345 29.4299 307.763V304.115ZM15.7073 312H8.95938V298.698C8.96215 297.684 9.24017 296.687 9.76683 295.803C10.2935 294.919 11.0512 294.178 11.9673 293.651C12.8835 293.123 13.9274 292.827 14.9993 292.791C16.0711 292.754 17.1349 292.978 18.0889 293.442V297.947C17.7784 297.939 17.4693 297.989 17.1799 298.096C16.8906 298.203 16.6269 298.364 16.4047 298.569C16.1824 298.774 16.0061 299.019 15.8863 299.29C15.7665 299.562 15.7056 299.853 15.7073 300.146V312Z" fill="white"/>
</g>
</g>
<defs>
<radialGradient id="paint0_radial_995_16479" cx="0" cy="0" r="1" gradientUnits="userSpaceOnUse" gradientTransform="translate(111.057 105.222) scale(23.8221 23.9142)">
<stop stop-color="white"/>
<stop offset="0.2" stop-color="#FFFBF4"/>
<stop offset="1" stop-color="#FFC935"/>
</radialGradient>
<clipPath id="clip0_995_16479">
<rect width="222" height="222.857" fill="white"/>
</clipPath>
<clipPath id="clip1_995_16479">
<rect width="222" height="74.2857" fill="white" transform="translate(0 237.714)"/>
</clipPath>
</defs>
</svg>
