<svg width="172" height="240" viewBox="0 0 172 240" fill="none" xmlns="http://www.w3.org/2000/svg">
<g clip-path="url(#clip0_995_16479)">
<mask id="mask0_995_16479" style="mask-type:luminance" maskUnits="userSpaceOnUse" x="-1141" y="-652" width="2093" height="1476">
<path d="M951.932 -651.989H-1140.72V823.155H951.932V-651.989Z" fill="white"/>
</mask>
<g mask="url(#mask0_995_16479)">
<path d="M86.0439 1.05119C102.845 1.05986 119.265 6.03371 133.23 15.3438C147.194 24.6539 158.075 37.8821 164.496 53.3556C170.917 68.8291 172.591 85.8529 169.304 102.274C166.018 118.696 157.92 133.777 146.034 145.611C134.148 157.445 119.008 165.501 102.529 168.759C86.0493 172.017 68.9705 170.332 53.4521 163.916C37.9337 157.5 24.6728 146.642 15.3461 132.714C6.0194 118.787 1.04589 102.415 1.05458 85.6705C1.05457 74.5507 3.25352 63.5401 7.52571 53.2679C11.7979 42.9957 18.0596 33.6634 25.9527 25.8046C33.8458 17.9459 43.2157 11.7147 53.5266 7.4673C63.8374 3.21994 74.8871 1.03968 86.0439 1.05119Z" fill="white"/>
<path fill-rule="evenodd" clip-rule="evenodd" d="M86.0438 3.86652e-05C105.975 -0.0188069 125.295 6.85195 140.712 19.4412C156.129 32.0305 166.689 49.5591 170.591 69.0392C174.493 88.5193 171.495 108.745 162.11 126.27C152.725 143.794 137.533 157.532 119.122 165.142C100.712 172.752 80.2239 173.763 61.1495 168.003C42.0751 162.243 25.5953 150.068 14.519 133.553C3.44281 117.039 -1.54429 97.2067 0.407784 77.4377C2.35986 57.6687 11.1303 39.1862 25.2242 25.1406C33.2026 17.1665 42.6822 10.8409 53.1191 6.52672C63.556 2.21249 74.7449 -0.00549922 86.0438 3.86652e-05ZM145.369 26.6297C131.651 12.9301 113.589 4.39674 94.2643 2.48447C74.9393 0.572194 55.547 5.39936 39.3935 16.143C23.2399 26.8867 11.325 42.8818 5.67998 61.4015C0.0349762 79.9212 1.00932 99.819 8.43694 117.703C15.8646 135.587 29.2857 150.349 46.4122 159.474C63.5387 168.599 83.3103 171.521 102.357 167.742C121.403 163.964 138.545 153.718 150.86 138.752C163.175 123.786 169.9 105.026 169.89 85.6705C169.896 74.7062 167.734 63.8482 163.526 53.7175C159.319 43.5868 153.149 34.3821 145.369 26.6297Z" fill="#100F0E"/>
<path d="M86.0438 6.21961C101.819 6.22827 117.237 10.899 130.349 19.6412C143.46 28.3834 153.676 40.8044 159.705 55.3335C165.734 69.8626 167.305 85.8472 164.218 101.266C161.132 116.685 153.528 130.845 142.367 141.957C131.207 153.068 116.991 160.632 101.517 163.69C86.0435 166.749 70.0074 165.166 55.4365 159.141C40.8656 153.117 28.4144 142.921 19.6575 129.843C10.9007 116.765 6.23131 101.393 6.24 85.6706C6.25864 64.5894 14.6753 44.3783 29.6399 29.4798C44.6045 14.5814 64.8923 6.21495 86.0438 6.21961Z" fill="white" stroke="#100F0E" stroke-width="1.2438"/>
<path d="M86.0439 27.8561C97.5253 27.8647 108.746 31.2666 118.288 37.6313C127.829 43.9961 135.263 53.0379 139.649 63.6134C144.035 74.1889 145.175 85.8231 142.927 97.0448C140.679 108.267 135.142 118.572 127.017 126.657C118.892 134.743 108.544 140.245 97.282 142.469C86.0195 144.693 74.3483 143.539 63.7441 139.152C53.14 134.764 44.0793 127.342 37.7078 117.822C31.3363 108.303 27.9401 97.1138 27.9487 85.6705C27.9697 70.3284 34.1 55.622 44.9929 44.7817C55.8858 33.9414 70.6506 27.8537 86.0439 27.8561Z" fill="#1C8FCF" stroke="#100F0E" stroke-width="1.2438"/>
<path d="M77.8701 30.922L79.54 30.6592L79.9795 34.2507L78.3974 34.4259L77.8701 30.922ZM78.5733 36.2654L80.1552 36.0902L80.5947 39.5941L79.0127 39.7694L78.5733 36.2654ZM79.2763 41.6089L80.8584 41.4337L81.3857 44.9376L79.8036 45.1128L79.2763 41.6089ZM79.9795 46.9524L81.5614 46.7772L82.0009 50.2811L80.4189 50.5439L79.9795 46.9524ZM80.6825 52.2082L82.2646 52.033L82.7919 55.5369L81.21 55.7997L80.6825 52.2082ZM81.3857 57.4641L82.9678 57.2889L83.4072 60.7928L81.8251 61.0556L81.3857 57.4641ZM82.0889 62.7199L83.6708 62.5447L84.1981 66.0486L82.6162 66.3114L82.0889 62.7199ZM82.7919 67.9758L84.374 67.8006L84.8134 71.3045L83.2314 71.5673L82.7919 67.9758ZM83.4951 73.3192L85.077 73.0565L85.6044 76.6479L83.9345 76.8231L83.4951 73.3192ZM84.1981 78.6627L85.868 78.3999L86.3075 81.9914L84.7255 82.1666L84.1981 78.6627ZM84.9013 84.0062L86.4833 83.7434L86.9228 87.3349L85.3407 87.5101L84.9013 84.0062ZM85.6044 89.3496L87.2743 89.0868L87.7137 92.6783L86.1318 92.8535L85.6044 89.3496ZM86.3075 94.6931L87.8895 94.4302L88.329 98.0218L86.7469 98.197L86.3075 94.6931ZM87.0107 100.037L88.5926 99.8613L89.12 103.365L87.538 103.54L87.0107 100.037ZM87.7137 105.38L89.2958 105.205L89.7352 108.709L88.1532 108.884L87.7137 105.38ZM88.4169 110.723L89.9989 110.548L90.5262 114.052L88.9442 114.315L88.4169 110.723ZM89.12 115.979L90.702 115.804L91.1414 119.308L89.5595 119.571L89.12 115.979ZM89.8231 121.235L91.4051 121.06L91.9324 124.564L90.2625 124.827L89.8231 121.235ZM90.6141 126.491L92.1962 126.316L92.6356 129.82L91.0536 130.082L90.6141 126.491ZM91.3173 131.747L92.8992 131.572L93.4265 135.076L91.7567 135.338L91.3173 131.747ZM92.0203 137.09L93.6902 136.828L94.1297 140.419L92.5476 140.594L92.0203 137.09ZM63.8956 34.7763L65.3898 34.1631L66.7082 37.4918L65.214 38.105L63.8956 34.7763ZM66.005 39.6817L67.4991 39.0686L68.8174 42.3973L67.3234 43.0105L66.005 39.6817ZM68.1144 44.6748L69.6085 44.0616L71.0147 47.3027L69.5206 47.9159L68.1144 44.6748ZM70.1358 49.6679L71.63 49.0547L73.0362 52.2958L71.5421 52.909L70.1358 49.6679ZM72.1573 54.661L73.6514 54.0478L75.0577 57.2889L73.5635 57.9897L72.1573 54.661ZM74.1788 59.5664L75.6729 58.9532L77.0791 62.282L75.585 62.8951L74.1788 59.5664ZM76.2881 64.4719L77.6944 63.8587L79.1006 67.1874L77.6064 67.8006L76.2881 64.4719ZM78.3974 69.3773L79.8916 68.7641L81.21 72.0928L79.7158 72.706L78.3974 69.3773ZM80.5068 74.3704L82.0009 73.6697L83.3192 76.9983L81.913 77.6115L80.5068 74.3704ZM82.5283 79.3635L84.0224 78.7503L85.4286 81.9914L83.9345 82.6046L82.5283 79.3635ZM84.5497 84.3565L86.0439 83.7434L87.4501 86.9844L85.9559 87.5976L84.5497 84.3565ZM86.5712 89.3496L88.0653 88.7364L89.4715 92.0652L87.9774 92.6783L86.5712 89.3496ZM88.5926 94.2551L90.0868 93.6419L91.493 96.9706L89.9989 97.5838L88.5926 94.2551ZM90.702 99.1605L92.1962 98.5473L93.5145 101.876L92.0203 102.489L90.702 99.1605ZM92.8113 104.066L94.3054 103.453L95.6238 106.782L94.1297 107.395L92.8113 104.066ZM94.9207 109.059L96.4148 108.446L97.7331 111.687L96.3269 112.3L94.9207 109.059ZM96.9421 114.052L98.4363 113.439L99.8425 116.68L98.3484 117.293L96.9421 114.052ZM98.9636 119.045L100.458 118.432L101.864 121.761L100.37 122.374L98.9636 119.045ZM100.985 123.951L102.479 123.337L103.885 126.666L102.391 127.279L100.985 123.951ZM103.094 128.856L104.501 128.243L105.907 131.572L104.413 132.185L103.094 128.856ZM105.204 133.762L106.698 133.148L108.016 136.477L106.522 137.09L105.204 133.762ZM93.6902 34.3383L92.1082 34.1631L92.5476 30.6592L94.1297 30.8344L93.6902 34.3383ZM92.9871 39.6817L91.4051 39.4189L91.8446 35.915L93.4265 36.0902L92.9871 39.6817ZM92.284 45.0252L90.702 44.7624L91.2293 41.2585L92.8113 41.4337L92.284 45.0252ZM91.5809 50.3686L89.9989 50.1934L90.4384 46.602L92.0203 46.8647L91.5809 50.3686ZM90.8778 55.6245L89.2958 55.4493L89.7352 51.8578L91.3173 52.1206L90.8778 55.6245ZM90.1747 60.8804L88.5926 60.7052L89.12 57.2013L90.702 57.3765L90.1747 60.8804ZM89.4715 66.2239L87.8017 65.961L88.329 62.4571L89.9109 62.6323L89.4715 66.2239ZM88.7684 71.5673L87.1864 71.3045L87.6258 67.8006L89.2079 67.9758L88.7684 71.5673ZM88.0653 76.9107L86.4833 76.7356L87.0107 73.144L88.5926 73.4068L88.0653 76.9107ZM87.3622 82.1666L85.6923 81.9914L86.2196 78.3999L87.8017 78.6627L87.3622 82.1666ZM86.6591 87.5101L85.077 87.2473L85.5165 83.7434L87.0985 83.9185L86.6591 87.5101ZM85.9559 92.8535L84.374 92.5907L84.8134 89.0868L86.4833 89.262L85.9559 92.8535ZM85.2529 98.197L83.5829 98.0218L84.1103 94.4302L85.6923 94.6931L85.2529 98.197ZM84.5497 103.453L82.9678 103.278L83.4072 99.6861L84.9891 99.9489L84.5497 103.453ZM83.8466 108.709L82.2646 108.533L82.704 105.03L84.2861 105.205L83.8466 108.709ZM83.1435 114.052L81.5614 113.789L82.0889 110.285L83.6708 110.461L83.1435 114.052ZM82.4403 119.396L80.8584 119.133L81.2978 115.629L82.8798 115.804L82.4403 119.396ZM81.7373 124.739L80.1552 124.564L80.5947 120.972L82.1767 121.235L81.7373 124.739ZM81.0341 129.995L79.4522 129.82L79.9795 126.228L81.5614 126.491L81.0341 129.995ZM80.3311 135.251L78.749 135.076L79.1885 131.572L80.7705 131.747L80.3311 135.251ZM79.6279 140.594L78.0458 140.331L78.4853 136.828L80.0674 137.003L79.6279 140.594ZM51.679 42.2221L52.9094 41.2585L55.1067 44.0616L53.8762 45.0252L51.679 42.2221ZM54.9309 46.5144L56.2493 45.5508L58.3587 48.3539L57.1282 49.3175L54.9309 46.5144ZM58.1828 50.7191L59.5012 49.7555L61.6984 52.6462L60.3801 53.6098L58.1828 50.7191ZM61.4348 54.9237L62.7531 53.9602L64.9504 56.7633L63.632 57.8144L61.4348 54.9237ZM64.7745 59.1284L66.005 58.1649L68.2023 60.968L66.8839 61.9315L64.7745 59.1284ZM68.1144 63.4207L69.3449 62.4571L71.5421 65.2602L70.3116 66.2239L68.1144 63.4207ZM71.3663 67.713L72.5967 66.7494L74.794 69.5526L73.5635 70.5161L71.3663 67.713ZM74.6182 72.0053L75.9366 70.9541L78.1338 73.8448L76.8155 74.8084L74.6182 72.0053ZM77.8701 76.2099L79.1885 75.2464L81.3857 78.1371L80.0674 79.1007L77.8701 76.2099ZM81.21 80.4146L82.4403 79.4511L84.6376 82.2542L83.3192 83.3054L81.21 80.4146ZM84.5497 84.6194L85.7802 83.6557L87.9774 86.4589L86.7469 87.4224L84.5497 84.6194ZM87.8017 88.9116L89.0321 87.9481L91.2293 90.7512L89.9989 91.7147L87.8017 88.9116ZM91.0536 93.2039L92.3719 92.1527L94.4813 95.0434L93.2508 96.007L91.0536 93.2039ZM94.3054 97.4086L95.6238 96.445L97.821 99.3357L96.5027 100.299L94.3054 97.4086ZM97.5574 101.613L98.8758 100.65L101.073 103.453L99.7546 104.504L97.5574 101.613ZM100.897 105.818L102.128 104.854L104.325 107.658L103.094 108.621L100.897 105.818ZM104.149 110.11L105.38 109.147L107.577 111.95L106.346 112.913L104.149 110.11ZM107.401 114.403L108.719 113.439L110.829 116.242L109.598 117.206L107.401 114.403ZM110.653 118.695L111.971 117.644L114.169 120.534L112.85 121.498L110.653 118.695ZM113.905 122.899L115.223 121.936L117.42 124.827L116.102 125.79L113.905 122.899ZM117.245 127.104L118.475 126.141L120.672 128.944L119.354 129.907L117.245 127.104ZM106.962 38.105L105.467 37.4918L106.786 34.1631L108.28 34.7763L106.962 38.105ZM104.94 43.0105L103.446 42.3973L104.764 39.1562L106.258 39.7694L104.94 43.0105ZM102.919 47.9159L101.425 47.3027L102.831 44.0616L104.325 44.6748L102.919 47.9159ZM100.809 52.8214L99.3152 52.2082L100.721 48.8795L102.215 49.4927L100.809 52.8214ZM98.6999 57.8144L97.2058 57.2013L98.612 53.8726L100.106 54.4857L98.6999 57.8144ZM96.5906 62.8075L95.1843 62.1943L96.5027 58.8656L97.9969 59.4788L96.5906 62.8075ZM94.5691 67.8006L93.0751 67.1874L94.3934 63.8587L95.8875 64.4719L94.5691 67.8006ZM92.5476 72.706L91.0536 72.0928L92.4598 68.8518L93.866 69.4649L92.5476 72.706ZM90.5262 77.6115L89.0321 76.9983L90.4384 73.7572L91.9324 74.3704L90.5262 77.6115ZM88.4169 82.517L86.9228 81.9038L88.329 78.5751L89.8231 79.1883L88.4169 82.517ZM86.3075 87.5101L84.8134 86.8969L86.2196 83.5682L87.7137 84.1814L86.3075 87.5101ZM84.1981 92.5031L82.7919 91.8899L84.1103 88.5612L85.6044 89.1744L84.1981 92.5031ZM82.1767 97.4962L80.6825 96.883L82.0009 93.5543L83.4951 94.1675L82.1767 97.4962ZM80.1552 102.402L78.6611 101.788L80.0674 98.5473L81.4736 99.1605L80.1552 102.402ZM78.1338 107.307L76.6396 106.694L78.0458 103.453L79.54 104.066L78.1338 107.307ZM76.0245 112.213L74.5303 111.599L75.9366 108.271L77.4307 108.884L76.0245 112.213ZM73.9151 117.206L72.421 116.592L73.8272 113.264L75.3213 113.877L73.9151 117.206ZM71.8057 122.199L70.3995 121.586L71.7178 118.257L73.2119 118.87L71.8057 122.199ZM69.7843 127.192L68.2901 126.579L69.6085 123.25L71.1027 123.863L69.7843 127.192ZM67.7628 132.097L66.2687 131.484L67.6749 128.243L69.0812 128.856L67.7628 132.097ZM65.7413 137.003L64.2472 136.39L65.6534 133.148L67.1476 133.762L65.7413 137.003ZM41.6596 52.471L42.6264 51.2446L45.5267 53.4346L44.5599 54.661L41.6596 52.471ZM45.8783 55.7121L46.845 54.4857L49.7454 56.6757L48.7787 57.9021L45.8783 55.7121ZM50.097 58.9532L51.0638 57.7269L53.9642 59.9168L52.9973 61.1431L50.097 58.9532ZM54.3157 62.1943L55.2825 60.968L58.1828 63.0703L57.2161 64.3843L54.3157 62.1943ZM58.5344 65.4355L59.5012 64.2091L62.4016 66.3114L61.4348 67.6254L58.5344 65.4355ZM62.7531 68.6766L63.7199 67.4502L66.6202 69.5526L65.6534 70.8665L62.7531 68.6766ZM66.9718 71.9177L67.9385 70.6913L70.8389 72.7937L69.8722 74.1076L66.9718 71.9177ZM71.1905 75.1588L72.1573 73.9324L75.0577 76.0347L74.0908 77.3487L71.1905 75.1588ZM75.4092 78.3999L76.376 77.1736L79.2763 79.2759L78.3096 80.5898L75.4092 78.3999ZM79.6279 81.641L80.5947 80.327L83.4951 82.517L82.5283 83.831L79.6279 81.641ZM83.8466 84.8821L84.8134 83.5682L87.7137 85.7581L86.6591 87.0721L83.8466 84.8821ZM88.1532 88.1233L89.12 86.8093L92.0203 88.9992L90.9657 90.3132L88.1532 88.1233ZM92.4598 91.3643L93.4265 90.0504L96.3269 92.2403L95.2723 93.5543L92.4598 91.3643ZM96.7664 94.6054L97.7331 93.2915L100.634 95.4814L99.5788 96.7954L96.7664 94.6054ZM101.073 97.8466L102.04 96.5326L104.94 98.7225L103.885 100.037L101.073 97.8466ZM105.38 101.088L106.346 99.7737L109.247 101.964L108.192 103.278L105.38 101.088ZM109.686 104.329L110.653 103.015L113.553 105.205L112.499 106.519L109.686 104.329ZM113.993 107.57L114.959 106.256L117.86 108.446L116.805 109.76L113.993 107.57ZM118.299 110.811L119.266 109.497L122.079 111.687L121.112 113.001L118.299 110.811ZM122.606 114.052L123.573 112.738L126.385 114.928L125.418 116.155L122.606 114.052ZM126.913 117.381L127.879 116.067L130.692 118.257L129.725 119.483L126.913 117.381ZM118.475 44.7624L117.245 43.7112L119.442 40.9081L120.672 41.8717L118.475 44.7624ZM115.223 49.0547L113.905 48.0911L116.102 45.2004L117.42 46.164L115.223 49.0547ZM111.883 53.347L110.653 52.3834L112.85 49.4927L114.081 50.5439L111.883 53.347ZM108.631 57.5517L107.313 56.5881L109.51 53.785L110.829 54.7485L108.631 57.5517ZM105.292 61.7563L104.061 60.7928L106.258 57.9897L107.489 58.9532L105.292 61.7563ZM102.04 65.961L100.721 64.9975L102.919 62.1943L104.237 63.1579L102.04 65.961ZM98.7879 70.2533L97.4695 69.2021L99.6668 66.399L100.897 67.3626L98.7879 70.2533ZM95.5359 74.5456L94.3054 73.582L96.4148 70.6913L97.7331 71.6549L95.5359 74.5456ZM92.284 78.8379L90.9657 77.8743L93.1629 74.9836L94.3934 76.0347L92.284 78.8379ZM89.0321 83.0426L87.8017 82.079L89.9989 79.2759L91.2293 80.2395L89.0321 83.0426ZM85.7802 87.2473L84.4618 86.2837L86.6591 83.4805L87.9774 84.4441L85.7802 87.2473ZM82.4403 91.452L81.21 90.4884L83.4072 87.6853L84.6376 88.6488L82.4403 91.452ZM79.1885 95.7442L77.8701 94.6931L80.0674 91.8899L81.3857 92.8535L79.1885 95.7442ZM75.8486 100.037L74.6182 99.073L76.8155 96.1822L78.0458 97.1458L75.8486 100.037ZM72.5967 104.329L71.2784 103.365L73.4756 100.475L74.794 101.526L72.5967 104.329ZM69.3449 108.533L68.0265 107.57L70.2238 104.767L71.4541 105.73L69.3449 108.533ZM66.0929 112.738L64.8624 111.775L66.9718 108.971L68.2901 109.935L66.0929 112.738ZM62.841 116.943L61.5227 115.979L63.7199 113.176L65.0382 114.14L62.841 116.943ZM59.5012 121.235L58.2707 120.184L60.4679 117.381L61.6984 118.344L59.5012 121.235ZM56.2493 125.527L54.9309 124.564L57.1282 121.673L58.4465 122.637L56.2493 125.527ZM52.9094 129.82L51.679 128.856L53.8762 125.965L55.1067 127.017L52.9094 129.82ZM34.5405 64.9975L35.1558 63.5083L38.4077 64.9099L37.7925 66.399L34.5405 64.9975ZM39.5503 67.0122L40.1654 65.523L43.5053 66.9246L42.89 68.4138L39.5503 67.0122ZM44.4721 69.0269L45.0872 67.5378L48.4271 68.9394L47.8119 70.4285L44.4721 69.0269ZM49.3939 71.0417L50.0091 69.5526L53.3489 70.9541L52.7337 72.3557L49.3939 71.0417ZM54.4036 73.144L55.0188 71.6549L58.2707 72.9688L57.6555 74.458L54.4036 73.144ZM59.4133 75.2464L60.0285 73.7572L63.3683 75.0712L62.7531 76.5604L59.4133 75.2464ZM64.3351 77.3487L64.9504 75.8596L68.2901 77.1736L67.6749 78.6627L64.3351 77.3487ZM69.2569 79.3635L69.8722 77.9619L73.2119 79.2759L72.5967 80.765L69.2569 79.3635ZM74.2667 81.3782L74.8818 79.8891L78.1338 81.2906L77.5185 82.7798L74.2667 81.3782ZM79.2763 83.393L79.8916 81.9038L83.2314 83.3054L82.6162 84.7945L79.2763 83.393ZM84.1981 85.4077L84.8134 83.9185L88.1532 85.3201L87.538 86.8093L84.1981 85.4077ZM89.2079 87.4224L89.8231 85.9333L93.0751 87.3349L92.4598 88.824L89.2079 87.4224ZM94.2176 89.4372L94.8329 87.9481L98.1726 89.3496L97.5574 90.7512L94.2176 89.4372ZM99.1394 91.5395L99.7546 90.0504L103.094 91.3643L102.479 92.8535L99.1394 91.5395ZM104.061 93.6419L104.676 92.1527L108.016 93.4667L107.401 94.9559L104.061 93.6419ZM109.071 95.7442L109.686 94.2551L112.938 95.5691L112.323 97.0582L109.071 95.7442ZM114.081 97.759L114.696 96.3574L118.036 97.6714L117.42 99.1605L114.081 97.759ZM119.002 99.7737L119.618 98.2846L122.958 99.6861L122.342 101.175L119.002 99.7737ZM123.924 101.788L124.539 100.299L127.879 101.701L127.264 103.19L123.924 101.788ZM128.934 103.803L129.549 102.314L132.801 103.716L132.186 105.205L128.934 103.803ZM133.944 105.818L134.559 104.329L137.899 105.73L137.283 107.22L133.944 105.818ZM127.967 54.3982L127 53.1718L129.813 50.9818L130.78 52.2958L127.967 54.3982ZM123.661 57.6392L122.694 56.3253L125.594 54.223L126.561 55.4493L123.661 57.6392ZM119.354 60.8804L118.387 59.654L121.288 57.4641L122.254 58.6904L119.354 60.8804ZM115.047 64.2091L114.081 62.8951L116.893 60.7052L117.86 62.0191L115.047 64.2091ZM110.829 67.4502L109.862 66.2239L112.674 64.0339L113.641 65.2602L110.829 67.4502ZM106.61 70.6913L105.643 69.4649L108.456 67.275L109.423 68.5889L106.61 70.6913ZM102.303 73.9324L101.337 72.6185L104.237 70.5161L105.204 71.7425L102.303 73.9324ZM97.9969 77.1736L97.0301 75.9472L99.9304 73.7572L100.897 74.9836L97.9969 77.1736ZM93.6902 80.5023L92.7235 79.1883L95.5359 76.9983L96.5027 78.3123L93.6902 80.5023ZM89.4715 83.7434L88.5047 82.4294L91.3173 80.327L92.284 81.5534L89.4715 83.7434ZM85.2529 86.9844L84.2861 85.7581L87.0985 83.5682L88.0653 84.8821L85.2529 86.9844ZM81.0341 90.2256L79.9795 88.9116L82.8798 86.7217L83.8466 88.0356L81.0341 90.2256ZM76.7275 93.4667L75.7607 92.2403L78.6611 90.0504L79.6279 91.2768L76.7275 93.4667ZM72.421 96.7954L71.4541 95.4814L74.2667 93.2915L75.3213 94.6054L72.421 96.7954ZM68.1144 100.037L67.1476 98.7225L69.96 96.6202L70.9268 97.8466L68.1144 100.037ZM63.8956 103.278L62.9289 102.051L65.7413 99.8613L66.7082 101.175L63.8956 103.278ZM59.677 106.519L58.6223 105.205L61.5227 103.015L62.4894 104.329L59.677 106.519ZM55.3704 109.76L54.4036 108.533L57.3039 106.344L58.2707 107.57L55.3704 109.76ZM51.0638 113.089L50.097 111.775L52.9094 109.585L53.9642 110.899L51.0638 113.089ZM46.7572 116.33L45.7904 115.016L48.6028 112.913L49.5697 114.14L46.7572 116.33ZM42.5385 119.571L41.5717 118.344L44.3842 116.155L45.351 117.468L42.5385 119.571ZM31.0249 78.9255L31.2007 77.2611L34.7163 77.7867L34.5405 79.3635L31.0249 78.9255ZM36.3863 79.6263L36.562 78.0495L40.0776 78.4875L39.9018 80.0643L36.3863 79.6263ZM41.7475 80.327L41.9232 78.7503L45.5267 79.1883L45.2631 80.765L41.7475 80.327ZM47.1087 81.0278L47.2845 79.4511L50.888 79.8891L50.6243 81.4658L47.1087 81.0278ZM52.47 81.7286L52.6458 80.1518L56.2493 80.5898L55.9856 82.1666L52.47 81.7286ZM57.8312 82.4294L58.0949 80.8526L61.6105 81.2906L61.4348 82.955L57.8312 82.4294ZM63.1046 83.1302L63.3683 81.4658L66.8839 81.9914L66.7082 83.5682L63.1046 83.1302ZM68.378 83.831L68.6417 82.2542L72.1573 82.6922L71.9815 84.2689L68.378 83.831ZM73.7393 84.5317L73.9151 82.955L77.4307 83.393L77.2549 84.9697L73.7393 84.5317ZM79.1006 85.2325L79.2763 83.6557L82.7919 84.0937L82.6162 85.6705L79.1006 85.2325ZM84.4618 85.9333L84.6376 84.3565L88.2411 84.7945L87.9774 86.3713L84.4618 85.9333ZM89.8231 86.6341L89.9989 85.0573L93.6024 85.4953L93.3387 87.1597L89.8231 86.6341ZM95.1843 87.3349L95.3602 85.6705L98.9636 86.1961L98.6999 87.7728L95.1843 87.3349ZM100.546 88.0356L100.721 86.4589L104.325 86.8969L104.149 88.4736L100.546 88.0356ZM105.819 88.7364L106.083 87.1597L109.598 87.5976L109.423 89.1744L105.819 88.7364ZM111.092 89.4372L111.356 87.8604L114.872 88.2984L114.696 89.8752L111.092 89.4372ZM116.366 90.138L116.629 88.5612L120.145 88.9992L119.969 90.6636L116.366 90.138ZM121.727 90.7512L121.903 89.1744L125.418 89.7L125.243 91.2768L121.727 90.7512ZM127.088 91.452L127.264 89.7876L130.868 90.3132L130.604 91.8899L127.088 91.452ZM132.45 92.1527L132.625 90.576L136.229 91.014L135.965 92.5907L132.45 92.1527ZM137.811 92.8535L137.987 91.2768L141.59 91.7147L141.326 93.2915L137.811 92.8535ZM31.4644 93.4667L31.2007 91.8899L34.8042 91.452L34.9799 93.0287L31.4644 93.4667ZM36.8257 92.7659L36.562 91.1892L40.1654 90.6636L40.3413 92.2403L36.8257 92.7659ZM42.1869 92.0652L41.9232 90.4884L45.5267 90.0504L45.7025 91.6272L42.1869 92.0652ZM47.5482 91.3643L47.2845 89.7876L50.888 89.262L51.0638 90.8388L47.5482 91.3643ZM52.9094 90.6636L52.6458 89.0868L56.2493 88.6488L56.425 90.2256L52.9094 90.6636ZM58.2707 89.9628L58.0949 88.386L61.6105 87.8604L61.7863 89.5248L58.2707 89.9628ZM63.632 89.1744L63.4562 87.5976L66.9718 87.1597L67.2355 88.7364L63.632 89.1744ZM68.9054 88.4736L68.7296 86.8969L72.2452 86.4589L72.5089 88.0356L68.9054 88.4736ZM74.1788 87.7728L74.0029 86.1085L77.5185 85.6705L77.7822 87.2473L74.1788 87.7728ZM79.4522 87.0721L79.2763 85.4953L82.7919 85.0573L83.0556 86.6341L79.4522 87.0721ZM84.7255 86.3713L84.5497 84.7945L88.0653 84.2689L88.329 85.8457L84.7255 86.3713ZM90.0868 85.6705L89.8231 84.0937L93.4265 83.6557L93.6024 85.2325L90.0868 85.6705ZM95.448 84.9697L95.1843 83.393L98.7879 82.8674L98.9636 84.4441L95.448 84.9697ZM100.809 84.2689L100.546 82.6922L104.149 82.2542L104.325 83.831L100.809 84.2689ZM106.171 83.5682L105.907 81.9914L109.51 81.4658L109.686 83.1302L106.171 83.5682ZM111.532 82.7798L111.268 81.203L114.872 80.765L115.047 82.3418L111.532 82.7798ZM116.893 82.079L116.629 80.5023L120.233 79.9766L120.409 81.641L116.893 82.079ZM122.254 81.3782L122.079 79.7139L125.594 79.2759L125.77 80.8526L122.254 81.3782ZM127.616 80.6775L127.44 79.1007L130.955 78.6627L131.219 80.2395L127.616 80.6775ZM132.889 79.9766L132.713 78.3123L136.229 77.8743L136.492 79.4511L132.889 79.9766ZM138.162 79.2759L137.987 77.6991L141.502 77.2611L141.766 78.8379L138.162 79.2759ZM134.823 66.3114L134.207 64.8223L137.547 63.4207L138.162 64.9099L134.823 66.3114ZM129.901 68.3262L129.286 66.837L132.537 65.523L133.153 67.0122L129.901 68.3262ZM124.979 70.3409L124.364 68.8518L127.616 67.5378L128.231 69.0269L124.979 70.3409ZM120.057 72.3557L119.442 70.8665L122.782 69.4649L123.397 70.9541L120.057 72.3557ZM115.047 74.458L114.432 72.9688L117.772 71.5673L118.387 73.0565L115.047 74.458ZM110.038 76.5604L109.423 75.0712L112.762 73.6697L113.378 75.1588L110.038 76.5604ZM105.028 78.5751L104.413 77.0859L107.753 75.772L108.368 77.2611L105.028 78.5751ZM100.018 80.5898L99.4031 79.1007L102.743 77.7867L103.358 79.2759L100.018 80.5898ZM95.0965 82.6046L94.4813 81.1154L97.7331 79.7139L98.3484 81.203L95.0965 82.6046ZM90.1747 84.7069L89.5595 83.2178L92.8113 81.8162L93.4265 83.3054L90.1747 84.7069ZM85.2529 86.7217L84.6376 85.3201L87.9774 83.9185L88.5926 85.4077L85.2529 86.7217ZM80.2431 88.7364L79.6279 87.2473L82.9678 85.9333L83.5829 87.4224L80.2431 88.7364ZM75.2334 90.7512L74.6182 89.262L77.958 87.9481L78.5733 89.3496L75.2334 90.7512ZM70.2238 92.8535L69.6085 91.3643L72.9483 89.9628L73.5635 91.452L70.2238 92.8535ZM65.214 94.9559L64.5988 93.4667L67.9385 92.0652L68.5538 93.5543L65.214 94.9559ZM60.2922 96.9706L59.677 95.4814L62.9289 94.1675L63.5441 95.6566L60.2922 96.9706ZM55.3704 98.9853L54.7551 97.4962L58.0071 96.1822L58.6223 97.6714L55.3704 98.9853ZM50.4486 101L49.8333 99.5109L53.1732 98.1094L53.7883 99.5985L50.4486 101ZM45.4388 103.102L44.8236 101.613L48.1634 100.212L48.7787 101.701L45.4388 103.102ZM40.4292 105.117L39.8139 103.628L43.1537 102.314L43.7689 103.803L40.4292 105.117ZM35.4194 107.132L34.8042 105.643L38.144 104.329L38.7592 105.818L35.4194 107.132Z" fill="white"/>
<path d="M86.0439 62.5448C89.6943 62.5448 93.2626 63.6237 96.2978 65.645C99.333 67.6663 101.699 70.5393 103.096 73.9006C104.493 77.262 104.858 80.9607 104.146 84.5291C103.434 88.0974 101.676 91.3752 99.0948 93.9479C96.5136 96.5205 93.2248 98.2726 89.6445 98.9823C86.0642 99.6921 82.3533 99.3278 78.9807 97.9355C75.6082 96.5432 72.7256 94.1854 70.6975 91.1603C68.6694 88.1352 67.587 84.5786 67.587 80.9403C67.587 76.0615 69.5316 71.3825 72.9929 67.9327C76.4542 64.4829 81.1488 62.5448 86.0439 62.5448Z" fill="url(#paint0_radial_995_16479)"/>
<path d="M86.0439 62.5448C89.698 62.5274 93.275 63.5915 96.3218 65.6023C99.3685 67.613 101.748 70.4799 103.158 73.8397C104.569 77.1995 104.947 80.9009 104.245 84.475C103.542 88.0492 101.792 91.3351 99.2138 93.9166C96.6361 96.498 93.3476 98.2587 89.7649 98.9756C86.1823 99.6925 82.4668 99.3334 79.0891 97.9437C75.7114 96.554 72.8236 94.1963 70.7916 91.1693C68.7596 88.1423 67.675 84.5823 67.6749 80.9403C67.6749 76.0766 69.6074 71.4108 73.0497 67.9635C76.492 64.5162 81.1641 62.5679 86.0439 62.5448Z" stroke="#100F0E" stroke-width="0.888428"/>
<path fill-rule="evenodd" clip-rule="evenodd" d="M31.3765 41.6088C32.0901 42.5493 32.6059 43.6237 32.8928 44.7677C33.1797 45.9117 33.232 47.1016 33.0464 48.2662C32.8867 49.1691 32.4928 50.0147 31.9038 50.7189C31.6584 51.0676 31.3453 51.3635 30.983 51.5892C30.6206 51.815 30.2165 51.9658 29.7946 52.0329C29.2832 52.0951 28.7642 52.0406 28.277 51.8737C27.7898 51.7068 27.347 51.4317 26.982 51.0693C25.69 50.0181 24.4948 48.1523 23.3786 45.4631C23.2643 45.1127 23.2292 44.9112 23.2907 44.8499C23.347 44.8504 23.4018 44.8673 23.4486 44.8984C23.4954 44.9295 23.5321 44.9735 23.5543 45.0251C23.6587 45.1286 23.7475 45.2466 23.818 45.3754C24.3657 46.7679 25.1706 48.0456 26.191 49.1422C27.5972 50.3072 28.942 50.0794 30.234 48.4414C30.8905 47.6465 31.3188 46.6894 31.4735 45.6715C31.6282 44.6536 31.5037 43.6129 31.1129 42.6599C30.8854 41.9676 30.4572 41.358 29.8824 40.908L28.3882 39.6816C27.9573 39.2255 27.5745 38.7265 27.2457 38.1925C26.7799 37.2552 26.5689 36.7296 26.6304 36.6157C26.692 36.5018 26.7184 36.6157 26.8942 36.7033C27.3903 37.2591 27.9185 37.7856 28.4762 38.2801C29.1339 38.8209 29.7241 39.4385 30.234 40.1196C30.6469 40.5908 31.0284 41.0882 31.3765 41.6088ZM135.438 38.2801C135.59 38.4772 135.767 38.6538 135.965 38.8056C136.141 38.9195 136.405 38.8932 136.756 38.718C136.925 38.5752 137.064 38.4004 137.164 38.2037C137.264 38.0069 137.325 37.7923 137.341 37.5722C137.357 37.3521 137.329 37.1309 137.259 36.9216C137.189 36.7123 137.078 36.519 136.932 36.3529C136.932 36.2307 136.962 36.1104 137.02 36.0025C137.474 35.6853 137.979 35.4482 138.514 35.3017C138.971 35.2117 139.445 35.3063 139.832 35.5646C142.319 37.179 144.902 38.6416 147.567 39.9444C146.802 40.1809 145.308 39.7079 143.084 38.5428C142.557 38.1924 139.129 35.6522 138.953 36.0025C139.101 36.5271 139.058 37.0866 138.833 37.583C138.608 38.0795 138.215 38.4812 137.723 38.718C137.222 39.0841 136.655 39.3517 136.053 39.5064C135.411 39.743 134.972 39.7692 134.735 39.594L134.647 39.4188L134.471 39.2436C134.12 38.829 133.504 38.7414 132.625 38.9808C132.164 39.1041 131.694 39.1919 131.219 39.2436C130.554 39.212 129.899 39.0637 129.286 38.8056C124.715 37.3165 114.784 29.2575 111.708 25.9288C110.741 24.7024 110.741 23.5636 111.444 22.7753C111.764 22.3948 112.117 22.0431 112.499 21.7241C112.85 21.3124 113.087 21.1372 113.202 21.1985C113.316 21.2598 113.29 21.3737 113.114 21.5489C113.003 21.7733 112.915 22.008 112.85 22.2497C111.971 24.79 127.616 36.9661 132.889 37.9296C133.68 38.1048 134.998 37.7545 135.438 38.2801ZM125.77 29.0823C125.527 29.3722 125.228 29.6105 124.891 29.7831C124.302 30.0196 123.924 30.0459 123.748 29.8707C123.666 29.5839 123.608 29.291 123.573 28.9947C123.459 28.583 123.423 28.3552 123.485 28.2939C123.764 28.1217 124.058 27.9751 124.364 27.8559C124.791 27.6748 125.232 27.5283 125.682 27.4179C125.779 27.7609 125.838 28.1134 125.858 28.4691C125.889 28.5715 125.897 28.6795 125.882 28.7854C125.867 28.8913 125.828 28.9926 125.77 29.0823ZM145.194 50.9817C145.064 50.742 144.884 50.5329 144.666 50.3685C144.432 50.21 144.158 50.1191 143.875 50.1057C141.766 49.694 140.685 49.405 140.623 49.2298C140.48 48.4687 140.113 47.7673 139.569 47.215C139.203 46.8409 138.789 46.5169 138.338 46.2514C137.184 45.9159 136.01 45.6526 134.823 45.4631C132.831 45.0567 130.963 44.1862 129.373 42.9227C128.897 42.6209 128.48 42.235 128.143 41.784V41.6088C128.205 41.6088 128.873 41.9854 130.164 42.7475C131.128 43.339 132.161 43.8097 133.241 44.1491C134.39 44.5033 135.565 44.7669 136.756 44.9375C140.272 45.463 142.41 46.6894 143.172 48.6166C143.281 48.7806 143.369 48.9571 143.436 49.1422C143.436 49.2561 143.814 49.405 144.578 49.5802C145.089 49.68 145.589 49.8267 146.072 50.0182C146.391 50.2908 146.658 50.6169 146.864 50.9817C147.193 50.9899 147.519 51.049 147.83 51.1569C147.83 51.2182 147.769 51.2708 147.655 51.3321C147.207 51.5082 146.715 51.5389 146.248 51.4197C146.052 51.4202 145.858 51.3817 145.677 51.3065C145.496 51.2313 145.331 51.1209 145.194 50.9817ZM144.93 44.5871C144.614 44.779 144.236 44.8418 143.875 44.7623C143.234 44.701 142.882 44.5871 142.821 44.4119C142.759 44.2367 142.97 43.8863 143.084 43.5359C143.198 43.1855 143.234 42.8965 143.348 42.8351L144.315 42.9227C144.904 42.984 145.369 43.0366 145.721 43.0979C145.639 43.4591 145.521 43.8112 145.369 44.1491C145.33 44.2479 145.27 44.3376 145.195 44.4129C145.119 44.4882 145.029 44.5474 144.93 44.5871ZM148.006 44.6747C147.671 44.8078 147.311 44.8675 146.951 44.8499C146.31 44.7886 145.958 44.6484 145.897 44.4119C145.835 44.1754 146.046 43.8863 146.16 43.5359C146.275 43.1855 146.31 42.9227 146.424 42.9227C146.538 42.9227 146.802 42.8614 147.391 42.9227C147.98 42.984 148.445 43.0366 148.797 43.0979C148.737 43.4647 148.618 43.8195 148.446 44.1491C148.35 44.3613 148.198 44.5432 148.006 44.6747ZM52.7337 19.359C52.6458 19.7094 52.2943 19.797 51.9427 19.797C51.5911 19.797 51.5296 20.0335 51.5911 20.4977C51.8548 21.7241 50.888 22.3373 50.7122 21.8993C50.5364 21.4613 50.888 21.4613 51.0638 21.1985C51.1808 21.0191 51.2571 20.8165 51.2875 20.6047C51.3179 20.3929 51.3015 20.177 51.2395 19.9721C51.0638 17.7822 52.9974 17.9574 52.7337 19.359ZM46.142 36.3529C46.3782 36.659 46.5297 37.0214 46.5815 37.4041C46.6459 37.9881 46.558 38.3385 46.3177 38.4553C46.0232 38.4456 45.7295 38.4163 45.4389 38.3676C45.0258 38.3676 44.7973 38.3064 44.7358 38.1925C44.6226 37.8836 44.5631 37.5577 44.56 37.2289C44.4972 36.7638 44.4972 36.2924 44.56 35.8273C44.9144 35.8667 45.2666 35.9252 45.6147 36.0025C45.8281 36.0499 46.0161 36.1748 46.142 36.3529ZM48.0755 34.7762C48.2094 34.8996 48.3172 35.0484 48.3927 35.2138C48.4681 35.3793 48.5097 35.558 48.515 35.7397C48.6292 36.3266 48.6029 36.7033 48.4271 36.8785C48.1096 36.8105 47.785 36.781 47.4604 36.7909C47.0473 36.7909 46.8187 36.7909 46.7572 36.7033C46.6957 36.6157 46.6957 36.3266 46.5815 35.7397C46.4806 35.2788 46.4217 34.8097 46.4056 34.3382C46.7886 34.3242 47.1719 34.3536 47.5482 34.4257C47.7616 34.4731 47.9496 34.5981 48.0755 34.7762ZM67.675 20.4977C69.6755 19.354 71.4843 17.9058 73.0362 16.2054C74.1524 14.9178 74.8556 14.0769 75.1456 13.6651L75.585 12.8767C75.585 12.7545 75.6152 12.6342 75.6729 12.5263C76.1387 11.3613 76.7012 10.7131 77.3428 10.5992H77.6064C77.958 10.6605 78.1602 10.6605 78.2217 10.5992C78.2833 10.5379 78.5996 10.3364 78.8369 9.81083C78.8984 9.57431 78.9512 9.46041 79.0128 9.46041C79.0743 9.46041 79.1885 9.63564 79.1885 9.98603C79.127 10.1612 79.0127 10.5379 78.8369 11.1248C78.859 11.29 78.8361 11.4581 78.7705 11.6114C78.705 11.7647 78.5992 11.8976 78.4644 11.9961C78.3296 12.0947 78.1706 12.1553 78.0042 12.1715C77.8377 12.1877 77.67 12.159 77.5186 12.0883C77.4061 12.0427 77.2877 12.0132 77.167 12.0008C77.0434 12.0039 76.9225 12.0375 76.8151 12.0987C76.7077 12.1598 76.6172 12.2466 76.5518 12.3512C76.4055 12.5586 76.3147 12.7998 76.2881 13.0519C76.4335 13.3316 76.6446 13.572 76.9034 13.7527C77.1383 13.925 77.3457 14.1318 77.5186 14.3659C77.4649 14.7067 77.3455 15.0339 77.167 15.3295C76.9912 15.7412 76.7891 15.9689 76.5518 16.0302L76.0245 15.8551C75.7636 15.8047 75.4991 15.7753 75.2335 15.7675C74.9089 16.0261 74.6141 16.3199 74.3546 16.6434C73.8887 17.169 73.4756 17.607 73.212 17.9574C71.1915 20.3147 68.7474 22.2755 66.005 23.7389C62.1379 25.7536 56.5129 27.5932 52.1184 26.8048C52.0569 26.9187 51.7405 28.0574 51.1517 30.2211C51.0902 30.4576 51.0023 30.5715 50.8881 30.5715C50.7738 30.5715 50.8265 30.3349 50.8881 30.0459C51.3012 27.8296 51.6175 26.2792 51.8548 25.4032C52.0921 24.5272 52.3822 24.0279 52.7337 24.0892C57.9622 24.4061 63.1662 23.1552 67.675 20.4977ZM73.6514 23.1257C73.8496 23.4704 73.9123 23.8763 73.8272 24.2644C73.7657 24.8513 73.6251 25.1404 73.3878 25.228C73.1505 25.3156 72.922 25.0791 72.5089 24.9652C72.0958 24.8513 71.8936 24.8163 71.8936 24.7024C71.8936 24.5885 71.8937 24.3258 71.9816 23.7389C72.0695 23.152 72.0958 22.6877 72.1573 22.3373C72.5197 22.4189 72.873 22.5363 73.212 22.6877C73.3111 22.7273 73.4012 22.7866 73.4767 22.8619C73.5523 22.9372 73.6116 23.0269 73.6514 23.1257ZM145.897 46.777C145.566 46.9229 145.203 46.9832 144.842 46.9522C144.253 46.8909 143.902 46.7508 143.787 46.5143C143.849 46.2777 143.937 45.9887 144.051 45.6383C144.099 45.3916 144.188 45.1547 144.315 44.9375C144.429 44.9375 144.781 44.9375 145.369 45.0251C145.958 45.1127 146.398 45.139 146.688 45.2003C146.606 45.5615 146.488 45.9135 146.336 46.2514C146.308 46.3668 146.254 46.4743 146.178 46.5655C146.102 46.6566 146.006 46.7291 145.897 46.777ZM127.616 30.4838C127.407 30.7873 127.094 31.0051 126.737 31.097C126.209 31.3336 125.858 31.3861 125.682 31.2722C125.506 31.1584 125.533 30.7467 125.418 30.3963C125.304 30.0459 125.357 29.7568 125.418 29.6955C125.697 29.5233 125.992 29.3767 126.297 29.2575C126.727 29.0595 127.167 28.884 127.616 28.7319C127.717 29.1036 127.776 29.4857 127.792 29.8707C127.795 30.088 127.734 30.3014 127.616 30.4838ZM100.546 19.2714C100.827 19.1565 101.143 19.1565 101.425 19.2714C101.72 19.3821 101.968 19.5903 102.128 19.8612C102.288 20.1322 102.35 20.4496 102.304 20.7605V20.9357C102.64 20.7876 102.963 20.6118 103.27 20.4101C104.088 19.9984 104.677 19.8846 105.028 20.0598L105.468 20.3225C105.571 20.3496 105.678 20.3558 105.784 20.3407C105.89 20.3257 105.991 20.2897 106.083 20.235L106.786 19.797L107.049 19.9721C107.225 20.0334 107.515 19.8583 107.928 19.4466C108.104 19.2714 108.218 19.21 108.28 19.2714C108.341 19.3327 108.28 19.4728 108.104 19.7093C107.92 20.088 107.649 20.4181 107.313 20.673C107.201 20.8202 107.054 20.9374 106.885 21.0138C106.717 21.0903 106.531 21.1237 106.346 21.1109C106.017 21.1191 105.691 21.1782 105.38 21.2861C105.137 21.4275 104.868 21.5171 104.589 21.5489C104.424 21.4954 104.274 21.4055 104.149 21.2861C104.012 21.2217 103.861 21.1916 103.71 21.1985C103.327 21.2557 102.965 21.4061 102.655 21.6365L101.688 22.2497C101.25 22.6295 100.839 23.0392 100.458 23.476C99.9919 24.0016 99.7283 24.2382 99.6668 24.1769C99.6053 24.1155 99.5173 24.1155 99.5788 24.0017C99.6404 23.8878 99.9569 23.3622 100.546 22.4249C100.897 21.6102 100.748 21.0496 100.106 20.7605C99.1709 20.9495 98.2777 21.3057 97.4696 21.8117C97.2013 21.955 96.9045 22.0372 96.6006 22.0524C96.2966 22.0675 95.993 22.0152 95.7118 21.8993C94.5985 21.4379 94.3934 20.3284 95.0965 18.5706C96.1273 16.4495 97.3019 14.4008 98.6121 12.4388C99.3032 11.6964 100.037 10.9944 100.809 10.3364C100.809 10.2751 100.809 10.2751 100.897 10.3364C100.864 10.4643 100.804 10.5838 100.721 10.6868C100.308 11.2737 99.6668 12.2898 98.7879 13.7527C97.909 15.2156 97.408 16.2668 97.118 16.9062C96.5291 18.3078 96.7664 19.2451 97.8211 19.7093C98.1599 19.8252 98.5224 19.8553 98.8758 19.797C99.4607 19.7284 100.027 19.55 100.546 19.2714ZM88.7685 14.7163C88.707 14.8915 89.0936 15.1805 89.911 15.5922C90.201 15.7674 90.3504 16.2054 90.3504 16.9062C90.2943 18.5897 89.7104 20.2133 88.6806 21.5489C88.2425 22.2603 87.6377 22.8551 86.9182 23.2823C86.1987 23.7095 85.386 23.9563 84.5497 24.0017C84.125 23.9819 83.7113 23.8601 83.344 23.6465C82.9768 23.433 82.6667 23.1341 82.4404 22.7753C82.0171 21.9647 81.8055 21.0609 81.8252 20.1473C81.871 18.8187 82.1692 17.5109 82.7041 16.2931C83.1714 15.1846 83.6996 14.1026 84.2861 13.0519C84.3485 13.2814 84.3485 13.5233 84.2861 13.7527C84.1719 14.0418 83.9345 14.5674 83.583 15.3295C83.2314 16.0916 83.0556 16.7573 82.8798 17.3442C82.7027 17.8812 82.6137 18.4433 82.6162 19.0086C82.6216 19.6177 82.839 20.206 83.2314 20.673C83.4835 20.9224 83.7871 21.1142 84.1209 21.2352C84.4548 21.3562 84.811 21.4035 85.165 21.3737C85.9318 21.4009 86.6914 21.2192 87.3623 20.8481C87.9484 20.5998 88.4623 20.2081 88.8564 19.7093C89.1682 19.3293 89.3796 18.8777 89.4715 18.3954C89.4715 18.2202 89.0937 17.9574 88.329 17.607C88.1024 17.4959 87.9144 17.3196 87.7891 17.1011C87.6638 16.8825 87.6069 16.6317 87.6259 16.3806C87.6706 15.6164 87.9464 14.8834 88.4169 14.2783C88.756 13.6514 89.2022 13.0882 89.7353 12.614C90.2626 12.1993 90.5263 11.9365 90.5263 11.8256L90.3504 11.6504C90.1747 11.5365 90.1132 11.4139 90.1747 11.3C90.3875 10.7506 90.6524 10.2226 90.9657 9.72325C91.2001 9.37286 91.3759 9.19763 91.493 9.19763C92.5477 9.43415 93.1014 9.74953 93.163 10.1612C93.1913 10.3651 93.1745 10.5727 93.1137 10.7694C93.053 10.9661 92.9498 11.1473 92.8114 11.3C92.5507 11.6861 92.1848 11.99 91.7568 12.176C91.3437 12.4125 90.7284 12.8154 89.911 13.4023C89.0936 13.9892 88.7685 14.4272 88.7685 14.7163ZM71.3663 24.1769C71.494 24.5121 71.5245 24.8763 71.4542 25.228C71.337 25.8704 71.1612 26.2208 70.9268 26.2792C70.679 26.1297 70.4132 26.012 70.1358 25.9288C69.7227 25.8149 69.5206 25.6923 69.5206 25.5784C69.5206 25.4645 69.5206 25.2018 69.6085 24.6148C69.6964 24.0279 69.8107 23.59 69.8722 23.3009C70.2488 23.3779 70.6068 23.5266 70.9268 23.7389C71.026 23.7785 71.116 23.8377 71.1915 23.913C71.267 23.9883 71.3265 24.0781 71.3663 24.1769ZM78.749 20.1473C78.8004 20.4998 78.7704 20.8594 78.6612 21.1985C78.4239 21.7854 78.1953 22.0745 77.958 22.0745C77.7024 21.9145 77.4383 21.7683 77.167 21.6365C76.8154 21.4 76.6397 21.2598 76.6397 21.1985C76.7323 20.8689 76.8498 20.5468 76.9913 20.235C77.1229 19.8087 77.2997 19.3976 77.5186 19.0086C77.8356 19.1764 78.1307 19.3824 78.3975 19.6218C78.553 19.7682 78.6732 19.9479 78.749 20.1473ZM43.8569 22.5125C44.2085 23.1519 44.6215 23.9403 45.0873 24.8776L46.2299 27.1551C46.6408 27.9259 46.9369 28.7521 47.1088 29.6079C47.3988 31.535 47.4339 32.5599 47.1966 32.6738C47.1351 32.7351 47.0824 32.6738 47.0209 32.5862C46.5909 30.9438 45.9715 29.3564 45.1752 27.8559L44.3842 26.2792C44.2084 25.6426 44.0327 24.8542 43.8569 23.914C43.7426 23.038 43.6811 22.5388 43.6811 22.4249C43.6811 22.311 43.7954 22.4249 43.8569 22.5125ZM42.4506 28.6443C42.9779 30.2211 43.0922 31.2723 42.8022 31.8854C42.0375 33.1118 41.7738 34.1016 42.0111 34.8637C42.1785 35.5257 42.296 36.1992 42.3627 36.8785C42.4826 37.4378 42.4211 38.0206 42.187 38.5428C41.8516 39.1219 41.4034 39.6283 40.8686 40.032C40.3413 40.5576 39.9898 40.7328 39.9019 40.5576C39.814 40.3824 39.8403 40.1459 40.0776 39.6816L40.6049 38.2801C40.8341 37.8346 41.011 37.3643 41.1322 36.8785C41.2436 36.4639 41.3315 36.1135 41.3959 35.8273C41.3757 35.2982 41.317 34.7712 41.2202 34.2506C41.0894 33.7627 41.0012 33.2645 40.9565 32.7614C40.9495 32.2049 41.102 31.6579 41.3959 31.1847C41.6303 30.7233 41.8061 30.3729 41.9233 30.1335C42.0151 29.7597 42.074 29.3787 42.0991 28.9947C42.1606 28.4691 42.187 28.2063 42.187 28.2063C42.187 28.2063 42.3891 28.2939 42.4506 28.6443ZM33.1343 33.1994C33.6001 33.7863 34.1275 34.452 34.7164 35.2141L36.3863 37.2289C36.9505 37.9091 37.3962 38.6791 37.7046 39.5064C38.4077 41.3197 38.6713 42.3095 38.4955 42.4847C38.4733 42.4996 38.4479 42.5092 38.4213 42.5128C38.3947 42.5164 38.3677 42.5138 38.3422 42.5054C38.3168 42.4969 38.2935 42.4827 38.2744 42.464C38.2553 42.4452 38.2408 42.4224 38.2319 42.3972C37.4637 40.8828 36.5513 39.4454 35.5074 38.1049L34.3648 36.7033C34.0011 36.0222 33.6783 35.3202 33.398 34.6009C33.1494 34.1404 32.9997 33.6332 32.9586 33.1118C32.9586 33.0505 33.02 33.1118 33.1343 33.1994ZM27.5093 42.4847C27.8404 42.7234 28.0867 43.0609 28.2125 43.4483C28.5025 44.0878 28.564 44.5258 28.3882 44.7623C28.0599 44.7799 27.735 44.8387 27.4215 44.9375C26.9557 45.0513 26.692 45.0864 26.6304 45.0251C26.4281 44.7191 26.2517 44.3967 26.1031 44.0615C25.8131 43.422 25.6022 42.9228 25.4879 42.5724C26.0768 42.4585 26.4811 42.3708 26.7184 42.3095C26.9922 42.3057 27.263 42.3657 27.5093 42.4847ZM75.8486 156.624C75.866 157.657 75.7479 158.688 75.4972 159.69C75.4972 159.752 75.4971 159.778 75.4092 159.778C75.3213 159.778 75.3213 159.778 75.3213 159.69C75.1737 158.075 74.8193 156.486 74.2667 154.96C73.8384 153.708 73.2787 152.504 72.5968 151.369C72.513 151.293 72.4522 151.195 72.4211 151.087C72.3901 150.979 72.3901 150.864 72.421 150.755L73.0362 148.653C73.0977 148.417 73.1857 148.39 73.2999 148.566C74.0174 149.65 74.5794 150.83 74.9697 152.069C75.5036 153.532 75.8003 155.069 75.8486 156.624ZM84.9013 148.566C84.8319 149.299 84.6231 150.012 84.2861 150.668C83.8731 151.544 83.4072 151.982 82.7919 151.982C82.5182 151.986 82.2473 151.926 82.0009 151.807L81.5615 151.369C81.2617 151.753 80.8685 152.054 80.419 152.245C80.9071 153.655 81.1739 155.133 81.21 156.624C81.2274 157.657 81.1092 158.688 80.8584 159.69C80.7969 159.804 80.7705 159.866 80.7705 159.866C80.7446 159.844 80.7233 159.817 80.7082 159.787C80.6931 159.757 80.6844 159.724 80.6826 159.69C80.542 156.75 79.6001 153.903 77.958 151.456C77.8754 151.361 77.8165 151.249 77.7859 151.127C77.7554 151.005 77.7542 150.878 77.7823 150.755C77.9581 150.116 78.1953 149.415 78.4853 148.653C78.5469 148.478 78.5997 148.452 78.6612 148.566C78.8652 148.882 79.135 149.15 79.4522 149.354C79.7412 149.619 80.1145 149.774 80.5068 149.792C80.6893 149.788 80.869 149.747 81.0351 149.671C81.2013 149.596 81.3504 149.488 81.4736 149.354C81.6952 149.14 81.8482 148.866 81.9131 148.566C82.0273 148.329 82.1152 148.215 82.1768 148.215L82.4404 148.566C82.5546 148.855 82.6426 149.003 82.7041 149.003C82.7944 149.125 82.9147 149.221 83.0533 149.282C83.1919 149.344 83.3441 149.368 83.4951 149.354C83.7478 149.376 84.0002 149.309 84.2088 149.165C84.4173 149.021 84.569 148.809 84.6376 148.566C84.6991 148.329 84.7519 148.215 84.8134 148.215C84.875 148.215 84.9013 148.329 84.9013 148.566ZM90.4384 156.624C90.4558 157.657 90.3376 158.688 90.0868 159.69C90.0868 159.752 90.0869 159.778 89.999 159.778C89.9111 159.778 89.911 159.778 89.911 159.69C89.7633 158.075 89.4089 156.486 88.8564 154.96C88.4281 153.708 87.8683 152.504 87.1864 151.369C87.1027 151.293 87.0419 151.195 87.0108 151.087C86.9797 150.979 86.9797 150.864 87.0107 150.755L87.6259 148.653C87.6874 148.417 87.7753 148.39 87.8896 148.566C88.6071 149.65 89.1692 150.83 89.5595 152.069C90.0934 153.532 90.3901 155.069 90.4384 156.624ZM95.3602 153.821C95.594 154.797 95.712 155.797 95.7118 156.8C95.741 157.804 95.6225 158.808 95.3602 159.778C95.2987 159.892 95.2459 159.953 95.1844 159.953C95.1228 159.953 95.0965 159.892 95.0965 159.778C95.0294 158.347 94.7631 156.932 94.3055 155.573C93.8994 154.351 93.3065 153.199 92.5477 152.157C92.4596 152.066 92.3972 151.953 92.3664 151.83C92.3355 151.707 92.3374 151.578 92.3719 151.456C92.4862 150.931 92.6971 150.204 92.9871 149.266C93.1014 149.091 93.1893 149.065 93.2508 149.179C93.5409 149.643 93.8397 150.055 94.1297 150.493C94.5956 151.132 94.9471 151.456 95.1844 151.456C95.3629 150.575 95.722 149.74 96.2391 149.003C96.7664 148.128 97.3553 147.69 97.9969 147.69C98.1458 147.691 98.2927 147.723 98.4287 147.783C98.5648 147.843 98.6871 147.931 98.7879 148.04C98.8969 148.194 98.958 148.377 98.9637 148.566C98.9637 148.977 98.8142 149.179 98.5242 149.179C98.3644 149.161 98.2124 149.101 98.0848 149.003C97.8842 148.949 97.6775 148.919 97.4696 148.916C97.0911 148.959 96.7443 149.148 96.5027 149.441C96.3681 149.564 96.2598 149.713 96.1843 149.879C96.1088 150.044 96.0676 150.223 96.0633 150.405C96.0647 150.553 96.0967 150.7 96.1571 150.835C96.2176 150.971 96.3053 151.093 96.4148 151.193C96.5771 151.358 96.7983 151.453 97.0301 151.456C97.447 151.43 97.8458 151.277 98.1726 151.018C98.52 150.786 98.8185 150.488 99.0515 150.142C99.2859 149.792 99.3738 149.704 99.3152 149.879C99.3768 150.58 98.9022 151.369 97.909 152.245C97.2087 152.979 96.3311 153.522 95.3602 153.821Z" fill="#100F0E"/>
<path d="M140.448 106.344C136.294 117.381 128.86 126.893 119.139 133.607C109.417 140.321 97.8715 143.919 86.044 143.919C74.2164 143.919 62.6705 140.321 52.949 133.607C43.2275 126.893 35.7935 117.381 31.6403 106.344C40.0777 102.927 47.8998 98.3722 55.6341 93.5543C59.1496 91.014 64.9504 86.3713 70.4874 82.2542C86.2197 70.5162 85.7802 70.5162 101.6 82.2542C107.05 86.3713 112.938 91.014 116.454 93.5543C124.188 98.3722 132.01 102.927 140.448 106.344Z" fill="#481513"/>
<path d="M113.817 114.403C107.137 113.965 88.8563 112.563 83.3193 117.206C84.7255 117.906 87.3622 118.023 91.2293 117.556C91.4572 117.723 91.6294 117.954 91.7235 118.22C91.8176 118.485 91.8292 118.773 91.7568 119.045C92.7285 118.75 93.5475 118.09 94.0419 117.206C95.2723 117.206 95.6531 118.315 95.1844 120.534C95.8325 120.454 96.4433 120.187 96.9425 119.767C97.4417 119.348 97.808 118.792 97.9969 118.169C98.2239 118.166 98.448 118.221 98.6479 118.328C98.8478 118.436 99.0169 118.592 99.1394 118.782C100.242 118.413 101.237 117.782 102.04 116.943C102.804 117.994 102.594 119.834 101.425 122.462C102.538 122.637 104.618 121.148 107.665 117.994C108.192 119.282 107.463 121.437 105.468 124.476C107.753 124.418 109.95 122.958 112.059 120.096C113.29 120.68 113.26 122.9 111.971 126.754C113.729 126.69 116.014 124.237 118.827 119.396C120.057 120.038 120.262 122.111 119.442 125.615C120.672 125.323 122.049 123.016 123.573 118.695C124.276 118.87 124.566 119.948 124.452 121.936C125.682 121.235 126.678 119.133 127.44 115.629C127.814 115.951 128.105 116.357 128.289 116.815C128.472 117.272 128.543 117.767 128.495 118.257C129.817 116.65 130.669 114.71 130.956 112.651C132.15 112.219 133.209 111.482 134.027 110.514C134.844 109.545 135.392 108.378 135.614 107.132C129.461 110.899 120.057 108.446 113.817 114.403Z" fill="white"/>
<path d="M45.1753 103.102C47.7006 102.869 50.7768 101.409 54.4037 98.7226C55.3998 98.6116 55.5462 99.5752 54.8431 101.613C56.6595 100.737 58.9446 98.6058 61.6985 95.2187C61.9328 96.9064 61.1419 98.9795 59.3255 101.438C62.0612 99.5578 64.4168 97.1804 66.2688 94.4303C67.1477 94.4303 68.2902 96.3574 68.2902 96.3574C69.1691 93.8171 69.8722 89.8752 73.4757 87.7729C74.589 90.6928 72.1867 96.4742 66.2688 105.117C70.4289 102.781 73.6808 99.073 76.0245 93.9923C76.0245 96.2698 75.9366 98.4598 74.1788 103.19C75.4972 102.489 76.5518 101.701 76.9034 100.562C77.0792 101.964 76.8155 102.752 76.0245 104.767C78.7491 103.716 81.3857 97.5838 83.3193 88.0357C84.5497 90.6636 81.5615 105.292 80.0674 107.132C81.1221 106.256 82.6162 104.767 82.8798 103.54C82.8798 105.205 82.9678 107.395 83.583 108.271C83.8412 104.47 84.8257 100.754 86.4834 97.321C87.2398 100.188 87.7108 103.122 87.8896 106.081C89.4716 105.38 90.0868 100.913 89.7353 92.6783C91.4516 97.5724 92.2558 102.738 92.1082 107.92C93.2244 106.168 93.5409 103.628 93.0751 100.299C93.8858 102.351 95.0453 104.247 96.5027 105.906C94.9207 99.5343 94.452 95.6216 95.0965 94.1675C98.261 97.661 100.816 101.658 102.655 105.993C103.71 103.716 101.747 98.9562 96.7664 91.7148C100.165 95.8611 103.094 98.7226 105.555 100.299C104.364 98.5883 103.862 96.4932 104.149 94.4303C105.971 95.6566 108.11 98.927 110.565 104.241C111.385 102.431 110.389 98.7518 107.577 93.2039C109.159 93.3149 111.59 95.7676 114.872 100.562C115.868 98.9854 115.604 96.8538 114.081 94.1675C115.179 94.3283 116.266 94.5624 117.333 94.8683L115.751 93.8171C112.323 91.3644 106.61 86.8969 101.337 82.8674C85.956 71.4797 86.3076 71.4797 70.9269 82.8674C65.6535 86.8969 59.9406 91.3644 56.5129 93.8171C50.9605 97.4572 45.1769 100.734 39.1987 103.628C42.9574 102.701 46.526 101.13 49.7455 98.9854C49.1039 100.326 47.5483 101.701 45.1753 103.102Z" fill="white"/>
<path d="M114.08 130.521C113.465 130.608 112.147 130.871 108.368 129.645C104.588 128.418 98.5241 125.878 91.405 122.9C78.3974 117.556 55.1945 110.986 41.6595 113.965C39.1107 114.49 39.1107 114.49 40.0775 114.49C41.5135 114.435 42.9515 114.464 44.3841 114.578C45.6145 114.753 46.2298 115.016 46.5813 115.717C46.776 116.081 46.8778 116.487 46.8778 116.899C46.8778 117.312 46.776 117.718 46.5813 118.082C46.102 118.646 45.456 119.045 44.7357 119.221C44.2083 119.396 44.2083 119.396 45.263 119.571C46.9219 119.84 48.6137 119.84 50.2726 119.571C52.0095 119.038 53.6653 118.272 55.1944 117.293C56.1612 116.68 56.2491 116.68 56.0733 117.293C55.9366 118.411 55.4437 119.455 54.6671 120.272C53.6306 121.198 52.4412 121.939 51.1515 122.462C50.2726 122.9 50.2727 122.812 51.3274 122.637C53.1294 122.399 54.8986 121.958 56.6008 121.323C58.0424 120.706 59.4006 119.912 60.6437 118.958C61.3468 118.432 61.3468 118.432 61.0831 119.045C60.681 120.082 60.0844 121.034 59.3253 121.848C58.405 122.764 57.3713 123.559 56.2492 124.214C55.6339 124.564 55.6339 124.652 56.5128 124.389C57.3917 124.126 59.2374 123.688 60.1163 123.513C60.9952 123.338 60.9952 123.338 60.6437 123.688C60.0856 124.386 59.4351 125.004 58.71 125.528C57.9272 126.062 57.068 126.475 56.1613 126.754C55.634 127.017 55.546 127.017 56.8644 126.842C59.0565 126.562 61.2092 126.033 63.2803 125.265C65.2783 124.412 67.1667 123.324 68.9053 122.024C69.96 121.235 69.96 121.235 69.4326 122.024C68.5795 123.423 67.6401 124.769 66.6201 126.053C65.461 127.321 64.2285 128.52 62.9288 129.645C62.1378 130.345 62.2257 130.258 62.9288 129.995C64.09 129.69 65.2111 129.249 66.2686 128.681C67.1958 128.182 68.0527 127.564 68.8173 126.842C69.3447 126.404 69.3447 126.404 69.1689 126.754C69.0257 127.343 68.7884 127.905 68.4659 128.418C68.0316 129.085 67.5622 129.728 67.0595 130.345C66.708 130.696 66.708 130.696 67.7627 130.17C69.5203 129.378 71.2232 128.471 72.8603 127.455C74.1538 126.542 75.3868 125.547 76.5517 124.476C77.2548 123.863 77.3427 123.688 76.9032 124.476C76.2453 125.904 75.3871 127.231 74.3544 128.418C73.1554 129.793 71.8314 131.054 70.3994 132.185C69.6084 132.973 69.6084 132.973 70.4873 132.711C72.1649 132.37 73.7902 131.81 75.3212 131.046C77.3092 129.987 79.2183 128.786 81.034 127.455C82.2645 126.666 82.3524 126.491 81.9129 127.367C81.1902 128.888 80.3063 130.326 79.2762 131.659C78.3093 132.85 77.2194 133.937 76.0243 134.901C75.4091 135.514 75.6727 135.338 77.6063 134.463C79.5399 133.587 83.0555 131.835 85.5164 130.433C87.0817 129.529 88.5537 128.472 89.9108 127.279C90.614 126.666 90.614 126.579 90.3503 127.192C89.6913 128.592 88.8329 129.89 87.8016 131.046C86.2676 132.589 84.6541 134.051 82.9676 135.426C81.8251 136.302 81.8251 136.302 82.9676 135.952C84.9998 135.268 86.9946 134.478 88.9441 133.587C91.1712 132.499 93.3419 131.3 95.4479 129.995C96.7663 129.119 96.8541 129.119 96.5026 129.557C95.9665 130.629 95.2192 131.582 94.3053 132.36C93.011 133.462 91.6296 134.458 90.1746 135.338C89.2078 135.952 89.2078 135.952 90.4383 135.514C91.6687 135.076 94.3053 134.375 95.9752 133.762C97.6451 133.149 98.4362 132.711 99.2272 132.886C100.018 133.061 100.721 133.762 101.424 133.762C102.128 133.762 102.567 133.061 103.27 133.061C103.973 133.061 104.764 133.587 106.346 133.674C108.26 133.733 110.167 133.436 111.971 132.798C112.981 132.399 113.862 131.733 114.52 130.871C114.784 130.433 114.784 130.345 114.08 130.521Z" fill="white"/>
<path fill-rule="evenodd" clip-rule="evenodd" d="M80.0666 107.132C80.0053 107.245 79.9529 107.306 79.8916 107.306L80.0666 107.132Z" fill="white"/>
</g>
</g>
<g clip-path="url(#clip1_995_16479)">
<mask id="mask1_995_16479" style="mask-type:luminance" maskUnits="userSpaceOnUse" x="-390" y="-136" width="1047" height="695">
<path d="M656.5 -135.988H-389.559V558.804H656.5V-135.988Z" fill="white"/>
</mask>
<g mask="url(#mask1_995_16479)">
<path d="M69.9423 200.309V188.097H61.7706V199.072C61.7706 199.794 61.4651 200.486 60.9214 200.997C60.3776 201.508 59.64 201.795 58.871 201.795C58.102 201.795 57.3644 201.508 56.8207 200.997C56.2769 200.486 55.9714 199.794 55.9714 199.072V188.097H47.6679V208.19C47.668 208.545 47.5927 208.897 47.4464 209.226C47.3002 209.554 47.0859 209.851 46.8161 210.101C46.5462 210.35 46.2262 210.547 45.8746 210.679C45.5231 210.812 45.147 210.877 44.7683 210.871V216.318C45.8477 216.865 47.0563 217.149 48.283 217.143C50.3192 217.134 52.2694 216.371 53.7093 215.018C55.1491 213.666 55.9621 211.835 55.9714 209.922V204.476C56.9144 205.727 58.2565 206.664 59.8037 207.151C61.3508 207.638 63.0229 207.651 64.5782 207.187C66.1334 206.723 67.4914 205.807 68.4556 204.57C69.4199 203.334 69.9405 201.842 69.9423 200.309Z" fill="white"/>
<path d="M83.9132 182.94H75.7415V207.53H83.9132V182.94Z" fill="white"/>
<path d="M70.1179 209.51C69.0767 209.512 68.0762 209.89 67.3237 210.566C66.5713 211.242 66.1245 212.164 66.076 213.141C66.0244 212.146 65.5607 211.209 64.7838 210.531C64.0069 209.853 62.9785 209.487 61.9181 209.511C60.8577 209.535 59.8495 209.948 59.1087 210.661C58.3678 211.374 57.9531 212.33 57.9531 213.326C57.9531 214.322 58.3678 215.279 59.1087 215.992C59.8495 216.705 60.8577 217.117 61.9181 217.142C62.9785 217.166 64.0069 216.8 64.7838 216.122C65.5607 215.443 66.0244 214.507 66.076 213.512C66.1139 214.26 66.385 214.981 66.8556 215.585C67.3262 216.19 67.9755 216.651 68.7229 216.912C69.4703 217.173 70.2828 217.221 71.0595 217.052C71.8362 216.883 72.5428 216.503 73.0914 215.96C73.6401 215.416 74.0067 214.734 74.1456 213.996C74.2846 213.259 74.1898 212.5 73.873 211.812C73.5563 211.125 73.0314 210.541 72.3638 210.131C71.6962 209.722 70.9152 209.506 70.1179 209.51Z" fill="white"/>
<path d="M41.8687 182.94H33.741V207.53H41.8687V182.94Z" fill="white"/>
<path d="M14.4102 190.49C15.214 190.486 15.9984 190.258 16.6642 189.835C17.3301 189.413 17.8475 188.814 18.1511 188.115C18.4546 187.416 18.5307 186.648 18.3696 185.909C18.2085 185.169 17.8176 184.491 17.2462 183.961C16.6748 183.43 15.9486 183.07 15.1595 182.927C14.3703 182.783 13.5537 182.863 12.8128 183.156C12.0719 183.448 11.44 183.941 10.9971 184.571C10.5542 185.2 10.3201 185.939 10.3244 186.694C10.3314 187.706 10.7655 188.674 11.5315 189.386C12.2975 190.097 13.3328 190.494 14.4102 190.49Z" fill="white"/>
<path d="M19.6383 205.137C19.6383 210.995 8.3474 210.995 8.3474 205.137V188.221H0.0878906V207.365C0.0878906 220.402 27.9418 220.402 27.9418 207.365V188.221H19.6383V205.137Z" fill="white"/>
<path d="M167.914 209.51C167.111 209.514 166.326 209.742 165.66 210.165C164.994 210.587 164.477 211.186 164.173 211.885C163.87 212.584 163.794 213.352 163.955 214.091C164.116 214.831 164.507 215.509 165.078 216.039C165.65 216.57 166.376 216.93 167.165 217.073C167.954 217.217 168.771 217.137 169.512 216.844C170.253 216.552 170.884 216.059 171.327 215.429C171.77 214.8 172.004 214.061 172 213.306C172.001 212.803 171.896 212.306 171.691 211.842C171.485 211.378 171.184 210.958 170.803 210.605C170.423 210.251 169.972 209.973 169.476 209.785C168.98 209.597 168.449 209.503 167.914 209.51Z" fill="white"/>
<path d="M155.393 209.51C154.35 209.505 153.345 209.881 152.591 210.558C151.837 211.235 151.392 212.161 151.351 213.141C151.3 212.146 150.836 211.209 150.059 210.531C149.282 209.853 148.254 209.487 147.193 209.511C146.133 209.535 145.125 209.948 144.384 210.661C143.643 211.374 143.228 212.33 143.228 213.326C143.228 214.322 143.643 215.279 144.384 215.992C145.125 216.705 146.133 217.117 147.193 217.142C148.254 217.166 149.282 216.8 150.059 216.122C150.836 215.443 151.3 214.507 151.351 213.512C151.392 214.491 151.837 215.417 152.591 216.095C153.345 216.772 154.35 217.148 155.393 217.143C156.471 217.143 157.505 216.741 158.267 216.025C159.029 215.309 159.457 214.339 159.457 213.326C159.457 212.314 159.029 211.343 158.267 210.628C157.505 209.912 156.471 209.51 155.393 209.51Z" fill="white"/>
<path d="M163.828 199.072C163.828 199.794 163.523 200.486 162.979 200.997C162.435 201.508 161.698 201.795 160.929 201.795C160.16 201.795 159.422 201.508 158.878 200.997C158.335 200.486 158.029 199.794 158.029 199.072V188.056H149.858V199.072C149.858 199.794 149.552 200.486 149.008 200.997C148.464 201.508 147.727 201.795 146.958 201.795C146.189 201.795 145.451 201.508 144.908 200.997C144.364 200.486 144.058 199.794 144.058 199.072V188.056H126.748C125.479 188.059 124.263 188.534 123.366 189.376C122.469 190.219 121.963 191.361 121.96 192.553V199.072C121.96 199.799 121.652 200.497 121.104 201.012C120.556 201.526 119.813 201.815 119.038 201.815C118.263 201.815 117.52 201.526 116.972 201.012C116.424 200.497 116.117 199.799 116.117 199.072V188.056H98.8067C97.5377 188.059 96.3216 188.534 95.4243 189.376C94.527 190.219 94.0214 191.361 94.0179 192.553V200.309C94.0271 202.222 94.8401 204.053 96.28 205.405C97.7198 206.757 99.67 207.521 101.706 207.53C102.93 207.516 104.134 207.233 105.221 206.704V201.217C104.447 201.242 103.694 200.978 103.126 200.483C102.558 199.989 102.222 199.303 102.19 198.577V193.172C102.208 192.452 102.527 191.767 103.077 191.265C103.628 190.764 104.366 190.485 105.133 190.49C105.508 190.489 105.88 190.558 106.227 190.693C106.573 190.828 106.888 191.025 107.154 191.274C107.419 191.523 107.629 191.819 107.773 192.145C107.916 192.47 107.989 192.819 107.989 193.172V200.309C107.99 201.956 108.59 203.552 109.69 204.835C110.789 206.117 112.323 207.007 114.036 207.359C115.748 207.71 117.537 207.502 119.106 206.767C120.676 206.033 121.93 204.817 122.663 203.321C123.27 204.577 124.25 205.642 125.485 206.389C126.72 207.135 128.157 207.532 129.626 207.532C131.095 207.532 132.532 207.135 133.767 206.389C135.002 205.642 135.982 204.577 136.59 203.321C137.208 204.573 138.194 205.634 139.431 206.379C140.668 207.124 142.105 207.523 143.575 207.53C145.047 207.534 146.489 207.139 147.728 206.393C148.967 205.646 149.951 204.58 150.56 203.321C151.122 204.478 152 205.474 153.105 206.208C154.209 206.943 155.501 207.389 156.849 207.502C158.198 207.616 159.553 207.391 160.779 206.853C162.005 206.314 163.057 205.48 163.828 204.435V207.488H172V188.056H163.828V199.072ZM135.931 198.577C135.925 199.286 135.622 199.965 135.088 200.467C134.553 200.969 133.83 201.253 133.075 201.258C132.308 201.25 131.573 200.969 131.018 200.471C130.463 199.973 130.131 199.296 130.087 198.577V193.172C130.087 191.728 131.537 190.531 133.075 190.531C133.826 190.528 134.548 190.804 135.083 191.298C135.618 191.793 135.922 192.467 135.931 193.172V198.577Z" fill="white"/>
<path fill-rule="evenodd" clip-rule="evenodd" d="M5.14024 240H0V225.188H5.14024V240ZM167.738 225.271C168.866 225.278 169.945 225.702 170.743 226.451C171.54 227.2 171.992 228.214 172 229.273V230.263C171.999 231.324 171.549 232.341 170.751 233.092C169.952 233.842 168.868 234.264 167.738 234.265H162.247C162.598 235.668 163.433 236.74 164.707 236.74H170.594V240H162.73C154.602 240 154.602 225.271 162.73 225.271H167.738ZM167.475 228.53H164.707C163.433 228.53 162.598 229.644 162.247 231.006H167.475C167.753 231.002 168.02 230.897 168.217 230.712C168.414 230.527 168.526 230.277 168.529 230.015V229.52C168.526 229.259 168.414 229.009 168.217 228.824C168.02 228.639 167.753 228.533 167.475 228.53ZM92.1727 225.188V234.678C92.1727 235.137 92.3671 235.578 92.7131 235.903C93.0591 236.228 93.5285 236.41 94.0179 236.41C94.5072 236.41 94.9766 236.228 95.3226 235.903C95.6687 235.578 95.8631 235.137 95.8631 234.678V225.188H101.003V240H95.8631V238.061C95.2723 238.848 94.4312 239.44 93.4604 239.751C92.4896 240.062 91.4389 240.077 90.4587 239.793C89.4785 239.509 88.6191 238.941 88.0036 238.17C87.3882 237.4 87.0482 236.466 87.0325 235.503V225.188H92.1727ZM76.752 229.52V230.015C76.7554 230.277 76.8676 230.527 77.0646 230.712C77.2616 230.897 77.5278 231.002 77.8064 231.006H81.2332C82.3609 231.013 83.4402 231.437 84.2377 232.186C85.0352 232.935 85.4867 233.949 85.4948 235.008V235.998C85.4936 237.059 85.0443 238.076 84.2453 238.826C83.4464 239.577 82.3631 239.999 81.2332 240H71.5239V236.74H79.1683C79.4535 236.745 79.729 236.643 79.9347 236.458C80.1404 236.272 80.2598 236.018 80.2667 235.75V235.255C80.2598 234.987 80.1404 234.733 79.9347 234.548C79.729 234.362 79.4535 234.261 79.1683 234.265H75.7854C74.6555 234.264 73.5723 233.842 72.7734 233.092C71.9744 232.341 71.525 231.324 71.5239 230.263V229.273C71.5319 228.214 71.9835 227.2 72.781 226.451C73.5784 225.702 74.6577 225.278 75.7854 225.271H85.4948V228.53H77.8064C77.5278 228.533 77.2616 228.639 77.0646 228.824C76.8676 229.009 76.7554 229.259 76.752 229.52ZM155.789 240H147.968C139.797 240 139.797 225.271 147.968 225.271H155.789V228.53H149.901C146.387 228.53 146.387 236.74 149.901 236.74H155.789V240ZM134.92 240V230.552C134.92 230.092 134.726 229.651 134.38 229.326C134.034 229.001 133.564 228.819 133.075 228.819C132.585 228.819 132.116 229.001 131.77 229.326C131.424 229.651 131.23 230.092 131.23 230.552V240H126.089V225.229H131.23V227.127C131.826 226.35 132.668 225.768 133.635 225.463C134.603 225.159 135.648 225.147 136.623 225.429C137.598 225.712 138.454 226.274 139.071 227.038C139.687 227.801 140.033 228.727 140.06 229.685V240H134.92ZM116.907 225.89C117.679 225.46 118.559 225.233 119.455 225.229C120.093 225.227 120.725 225.342 121.315 225.569C121.905 225.795 122.442 226.129 122.895 226.55C123.347 226.972 123.707 227.473 123.954 228.025C124.201 228.577 124.329 229.169 124.332 229.768V240H113.393C112.589 239.999 111.819 239.699 111.25 239.165C110.682 238.631 110.362 237.908 110.361 237.153V234.471C110.363 233.691 110.579 232.924 110.987 232.244C111.395 231.565 111.982 230.994 112.692 230.589C113.401 230.183 114.21 229.955 115.041 229.927C115.871 229.899 116.695 230.071 117.434 230.428L119.192 231.294V230.552C119.187 230.29 119.121 230.033 118.998 229.798C118.874 229.564 118.696 229.358 118.478 229.196C118.259 229.034 118.004 228.92 117.733 228.862C117.461 228.804 117.179 228.803 116.907 228.86V225.89ZM119.192 233.935L117.434 233.894C117.196 233.882 116.958 233.917 116.735 233.995C116.512 234.073 116.307 234.192 116.135 234.347C115.962 234.501 115.825 234.687 115.731 234.893C115.637 235.099 115.589 235.32 115.589 235.544V236.782C115.592 237.23 115.782 237.659 116.119 237.975C116.457 238.292 116.914 238.471 117.391 238.473C117.865 238.464 118.317 238.283 118.653 237.967C118.989 237.652 119.182 237.227 119.192 236.782V233.935ZM108.604 240H103.376V229.768C103.372 228.985 103.583 228.215 103.99 227.532C104.396 226.849 104.984 226.276 105.696 225.869C106.407 225.462 107.219 225.235 108.052 225.21C108.885 225.184 109.711 225.362 110.449 225.724V229.149C110.209 229.146 109.972 229.187 109.749 229.27C109.526 229.354 109.324 229.477 109.152 229.635C108.981 229.792 108.844 229.979 108.75 230.186C108.656 230.393 108.606 230.615 108.604 230.841V240ZM64.7581 240V230.552C64.7581 230.092 64.5637 229.651 64.2177 229.326C63.8716 229.001 63.4023 228.819 62.9129 228.819C62.4235 228.819 61.9542 229.001 61.6081 229.326C61.2621 229.651 61.0677 230.092 61.0677 230.552V240H55.9275V225.229H61.0677V227.169C61.5086 226.567 62.0994 226.076 62.7885 225.738C63.4777 225.4 64.2443 225.226 65.0217 225.229C66.2909 225.234 67.5086 225.701 68.4182 226.533C69.3279 227.364 69.8585 228.494 69.8984 229.685V240H64.7581ZM54.1262 240H48.986V225.229H54.1262V240ZM38.5298 240V230.51C38.5275 230.285 38.4778 230.063 38.3838 229.856C38.2897 229.649 38.153 229.462 37.9815 229.304C37.8101 229.147 37.6072 229.023 37.3846 228.94C37.1621 228.857 36.9241 228.816 36.6845 228.819C36.4473 228.817 36.2121 228.859 35.9925 228.943C35.7729 229.027 35.5733 229.152 35.4056 229.309C35.2379 229.467 35.1053 229.654 35.0156 229.86C34.9259 230.067 34.8809 230.288 34.8833 230.51V240H29.6991V225.188H34.8833V227.127C35.4711 226.342 36.3091 225.751 37.2768 225.441C38.2444 225.131 39.2919 225.117 40.2686 225.401C41.2452 225.686 42.1006 226.254 42.7118 227.023C43.323 227.793 43.6585 228.725 43.67 229.685V240H38.5298ZM20.517 225.89C21.2763 225.429 22.1614 225.186 23.0651 225.188C24.3571 225.192 25.5948 225.676 26.5083 226.534C27.4219 227.392 27.9371 228.555 27.9418 229.768V240H17.0023C16.1987 239.999 15.4283 239.699 14.86 239.165C14.2918 238.631 13.972 237.908 13.9709 237.153V234.471C13.9716 233.69 14.1854 232.921 14.5919 232.239C14.9984 231.557 15.5841 230.984 16.2931 230.574C17.0022 230.165 17.811 229.933 18.6427 229.9C19.4743 229.867 20.301 230.035 21.0442 230.387L22.8015 231.253V230.51C22.8005 230.249 22.7359 229.992 22.6126 229.757C22.4892 229.523 22.3105 229.319 22.09 229.159C21.8695 229 21.6131 228.89 21.3404 228.839C21.0678 228.787 20.7861 228.794 20.517 228.86V225.89ZM22.8015 233.935L21.0442 233.852C20.8036 233.846 20.5641 233.885 20.34 233.967C20.1158 234.049 19.9115 234.173 19.7393 234.33C19.5671 234.488 19.4305 234.677 19.3377 234.886C19.2449 235.094 19.1977 235.318 19.199 235.544V236.74C19.1966 236.963 19.2416 237.184 19.3313 237.39C19.421 237.597 19.5536 237.784 19.7213 237.942C19.889 238.099 20.0886 238.224 20.3082 238.308C20.5278 238.392 20.7631 238.434 21.0003 238.432C21.4773 238.43 21.9341 238.251 22.2714 237.934C22.6087 237.617 22.7992 237.188 22.8015 236.74V233.935ZM12.1696 240H6.9415V229.768C6.94365 228.987 7.15905 228.221 7.56709 227.541C7.97514 226.861 8.56218 226.291 9.27199 225.885C9.9818 225.479 10.7906 225.252 11.6211 225.223C12.4515 225.195 13.2757 225.368 14.0148 225.724V229.19C13.7743 229.184 13.5348 229.222 13.3106 229.305C13.0864 229.387 12.8821 229.51 12.7099 229.668C12.5377 229.826 12.4012 230.015 12.3083 230.223C12.2155 230.432 12.1683 230.656 12.1696 230.882V240Z" fill="white"/>
</g>
</g>
<defs>
<radialGradient id="paint0_radial_995_16479" cx="0" cy="0" r="1" gradientUnits="userSpaceOnUse" gradientTransform="translate(86.0438 80.9403) scale(18.4568 18.3955)">
<stop stop-color="white"/>
<stop offset="0.2" stop-color="#FFFBF4"/>
<stop offset="1" stop-color="#FFC935"/>
</radialGradient>
<clipPath id="clip0_995_16479">
<rect width="172" height="171.429" fill="white"/>
</clipPath>
<clipPath id="clip1_995_16479">
<rect width="172" height="57.1429" fill="white" transform="translate(0 182.857)"/>
</clipPath>
</defs>
</svg>
