<svg width="120" height="168" viewBox="0 0 120 168" fill="none" xmlns="http://www.w3.org/2000/svg">
<g clip-path="url(#clip0_733_17673)">
<mask id="mask0_733_17673" style="mask-type:luminance" maskUnits="userSpaceOnUse" x="-796" y="-457" width="1461" height="1034">
<path d="M664.139 -456.392H-795.851V576.208H664.139V-456.392Z" fill="white"/>
</mask>
<g mask="url(#mask0_733_17673)">
<path d="M60.0307 0.735872C71.752 0.741937 83.2083 4.22364 92.9509 10.7407C102.693 17.2578 110.285 26.5175 114.765 37.349C119.245 48.1804 120.412 60.097 118.119 71.592C115.827 83.0869 110.177 93.6439 101.884 101.928C93.5919 110.212 83.0291 115.851 71.5318 118.131C60.0344 120.412 48.119 119.232 37.2922 114.741C26.4654 110.25 17.2136 102.649 10.7066 92.8999C4.19962 83.1506 0.729724 71.6907 0.735787 59.9694C0.735783 52.1856 2.26993 44.4781 5.25053 37.2875C8.23113 30.097 12.5997 23.5644 18.1066 18.0633C23.6134 12.5621 30.1505 8.2003 37.3442 5.22715C44.5378 2.25399 52.2469 0.727814 60.0307 0.735872Z" fill="white"/>
<path fill-rule="evenodd" clip-rule="evenodd" d="M60.0307 2.70656e-05C73.9359 -0.0131648 87.4153 4.79636 98.1714 13.6089C108.927 22.4213 116.295 34.6914 119.017 48.3274C121.739 61.9635 119.648 76.1217 113.1 88.3887C106.553 100.656 95.9532 110.272 83.1088 115.599C70.2645 120.926 55.9703 121.634 42.6625 117.602C29.3548 113.57 17.8573 105.047 10.1297 93.4873C2.40208 81.9271 -1.07729 68.0447 0.28462 54.2064C1.64653 40.3681 7.76543 27.4303 17.5984 17.5984C23.1647 12.0166 29.7784 7.58866 37.06 4.5687C44.3415 1.54874 52.1477 -0.00384946 60.0307 2.70656e-05ZM101.421 18.6408C91.8494 9.05107 79.2485 3.07772 65.7659 1.73913C52.2834 0.400536 38.7539 3.77955 27.4839 11.3001C16.214 18.8207 7.90127 30.0173 3.9629 42.9811C0.0245212 55.9449 0.704296 69.8733 5.88636 82.392C11.0684 94.9107 20.432 105.245 32.3807 111.632C44.3294 118.019 58.1236 120.065 71.4117 117.42C84.6998 114.774 96.6593 107.603 105.251 97.1263C113.843 86.6501 118.535 73.5182 118.528 59.9694C118.532 52.2943 117.024 44.6938 114.088 37.6023C111.153 30.5108 106.848 24.0675 101.421 18.6408Z" fill="#100F0E"/>
<path d="M60.0307 4.35364C71.0365 4.3597 81.7933 7.62923 90.941 13.7488C100.089 19.8683 107.216 28.563 111.422 38.7334C115.628 48.9037 116.724 60.093 114.571 70.8861C112.418 81.6793 107.113 91.5916 99.3262 99.3696C91.5396 107.148 81.6215 112.442 70.826 114.583C60.0305 116.724 48.8425 115.616 38.6767 111.399C28.511 107.181 19.8241 100.044 13.7147 90.89C7.6052 81.7356 4.34752 70.9752 4.35359 59.9693C4.36659 45.2125 10.2387 31.0647 20.6791 20.6358C31.1195 10.2069 45.2738 4.35038 60.0307 4.35364Z" fill="white" stroke="#100F0E" stroke-width="0.858457"/>
<path d="M60.0307 19.4993C68.041 19.5053 75.8695 21.8866 82.5265 26.3419C89.1834 30.7973 94.3698 37.1265 97.4296 44.5294C100.489 51.9322 101.285 60.0762 99.7166 67.9314C98.1479 75.7866 94.2851 83.0002 88.6167 88.6601C82.9483 94.3199 75.7288 98.1718 67.8712 99.7286C60.0137 101.285 51.871 100.477 44.4727 97.4061C37.0745 94.3351 30.7531 89.1393 26.3079 82.4756C21.8626 75.8119 19.4932 67.9797 19.4992 59.9694C19.5138 49.2299 23.7908 38.9354 31.3905 31.3472C38.9902 23.759 49.2912 19.4976 60.0307 19.4993Z" fill="#1C8FCF" stroke="#100F0E" stroke-width="0.858457"/>
<path d="M54.328 21.6454L55.4931 21.4614L55.7997 23.9755L54.6959 24.0981L54.328 21.6454ZM54.8186 25.3858L55.9223 25.2632L56.2289 27.7159L55.1252 27.8385L54.8186 25.3858ZM55.3091 29.1262L56.4129 29.0036L56.7808 31.4563L55.677 31.579L55.3091 29.1262ZM55.7997 32.8667L56.9034 32.744L57.21 35.1967L56.1063 35.3807L55.7997 32.8667ZM56.2902 36.5458L57.3939 36.4231L57.7618 38.8759L56.6582 39.0598L56.2902 36.5458ZM56.7808 40.2249L57.8845 40.1022L58.1911 42.555L57.0874 42.7389L56.7808 40.2249ZM57.2713 43.904L58.375 43.7813L58.7429 46.2341L57.6392 46.418L57.2713 43.904ZM57.7618 47.5831L58.8656 47.4604L59.1722 49.9132L58.0684 50.0971L57.7618 47.5831ZM58.2524 51.3235L59.3561 51.1395L59.7241 53.6536L58.559 53.7762L58.2524 51.3235ZM58.7429 55.0639L59.908 54.8799L60.2146 57.394L59.1109 57.5166L58.7429 55.0639ZM59.2335 58.8043L60.3373 58.6204L60.6439 61.1344L59.5401 61.257L59.2335 58.8043ZM59.7241 62.5447L60.8891 62.3608L61.1957 64.8748L60.092 64.9975L59.7241 62.5447ZM60.2146 66.2852L61.3183 66.1012L61.6249 68.6152L60.5212 68.7379L60.2146 66.2852ZM60.7052 70.0256L61.8088 69.9029L62.1768 72.3557L61.0731 72.4783L60.7052 70.0256ZM61.1957 73.766L62.2994 73.6434L62.606 76.0961L61.5022 76.2187L61.1957 73.766ZM61.6862 77.5064L62.79 77.3838L63.1579 79.8365L62.0541 80.0204L61.6862 77.5064ZM62.1768 81.1855L63.2805 81.0629L63.5871 83.5156L62.4834 83.6995L62.1768 81.1855ZM62.6673 84.8646L63.7711 84.742L64.139 87.1947L62.9739 87.3786L62.6673 84.8646ZM63.2192 88.5437L64.323 88.4211L64.6295 90.8738L63.5258 91.0577L63.2192 88.5437ZM63.7098 92.2228L64.8135 92.1002L65.1814 94.5529L64.0164 94.7368L63.7098 92.2228ZM64.2003 95.9632L65.3653 95.7793L65.6719 98.2933L64.5682 98.4159L64.2003 95.9632ZM44.5784 24.3434L45.6209 23.9142L46.5406 26.2442L45.4982 26.6735L44.5784 24.3434ZM46.0501 27.7772L47.0924 27.348L48.0122 29.6781L46.9698 30.1073L46.0501 27.7772ZM47.5217 31.2724L48.5641 30.8431L49.5452 33.1119L48.5028 33.5411L47.5217 31.2724ZM48.932 34.7675L49.9744 34.3383L50.9555 36.6071L49.9131 37.0363L48.932 34.7675ZM50.3423 38.2627L51.3847 37.8334L52.3659 40.1022L51.3234 40.5928L50.3423 38.2627ZM51.7527 41.6965L52.7951 41.2672L53.7762 43.5974L52.7338 44.0266L51.7527 41.6965ZM53.2243 45.1303L54.2054 44.7011L55.1865 47.0312L54.144 47.4604L53.2243 45.1303ZM54.6959 48.5641L55.7384 48.1349L56.6582 50.465L55.6157 50.8942L54.6959 48.5641ZM56.1676 52.0593L57.21 51.5688L58.1297 53.8988L57.1487 54.3281L56.1676 52.0593ZM57.5779 55.5544L58.6203 55.1252L59.6014 57.394L58.559 57.8232L57.5779 55.5544ZM58.9882 59.0496L60.0307 58.6204L61.0117 60.8891L59.9693 61.3183L58.9882 59.0496ZM60.3986 62.5447L61.4409 62.1155L62.422 64.4456L61.3796 64.8748L60.3986 62.5447ZM61.8088 65.9786L62.8513 65.5493L63.8324 67.8794L62.79 68.3087L61.8088 65.9786ZM63.2805 69.4124L64.323 68.9831L65.2427 71.3132L64.2003 71.7425L63.2805 69.4124ZM64.7522 72.8462L65.7945 72.417L66.7143 74.7471L65.6719 75.1763L64.7522 72.8462ZM66.2238 76.3413L67.2662 75.9121L68.186 78.1809L67.2049 78.6101L66.2238 76.3413ZM67.6341 79.8365L68.6765 79.4073L69.6576 81.676L68.6152 82.1053L67.6341 79.8365ZM69.0444 83.3316L70.0868 82.9024L71.068 85.2325L70.0255 85.6617L69.0444 83.3316ZM70.4548 86.7655L71.4972 86.3362L72.4782 88.6664L71.4359 89.0956L70.4548 86.7655ZM71.9264 90.1993L72.9075 89.7701L73.8886 92.1002L72.8461 92.5294L71.9264 90.1993ZM73.398 93.6331L74.4405 93.2039L75.3603 95.534L74.3178 95.9632L73.398 93.6331ZM65.3653 24.0368L64.2616 23.9142L64.5682 21.4614L65.6719 21.5841L65.3653 24.0368ZM64.8748 27.7772L63.7711 27.5933L64.0777 25.1405L65.1814 25.2632L64.8748 27.7772ZM64.3843 31.5176L63.2805 31.3337L63.6484 28.881L64.7522 29.0036L64.3843 31.5176ZM63.8937 35.2581L62.79 35.1354L63.0966 32.6214L64.2003 32.8053L63.8937 35.2581ZM63.4032 38.9372L62.2994 38.8145L62.606 36.3005L63.7098 36.4844L63.4032 38.9372ZM62.9126 42.6163L61.8088 42.4936L62.1768 40.0409L63.2805 40.1635L62.9126 42.6163ZM62.422 46.3567L61.257 46.1727L61.6249 43.72L62.7286 43.8426L62.422 46.3567ZM61.9315 50.0971L60.8278 49.9132L61.1344 47.4604L62.2381 47.5831L61.9315 50.0971ZM61.4409 53.8375L60.3373 53.7149L60.7052 51.2008L61.8088 51.3848L61.4409 53.8375ZM60.9504 57.5166L59.7854 57.394L60.1533 54.8799L61.257 55.0639L60.9504 57.5166ZM60.4599 61.257L59.3561 61.0731L59.6627 58.6204L60.7665 58.743L60.4599 61.257ZM59.9693 64.9975L58.8656 64.8135L59.1722 62.3608L60.3373 62.4834L59.9693 64.9975ZM59.4788 68.7379L58.3137 68.6152L58.6816 66.1012L59.7854 66.2852L59.4788 68.7379ZM58.9882 72.417L57.8845 72.2943L58.1911 69.7803L59.2948 69.9643L58.9882 72.417ZM58.4977 76.0961L57.3939 75.9734L57.7005 73.5207L58.8043 73.6434L58.4977 76.0961ZM58.0071 79.8365L56.9034 79.6525L57.2713 77.1998L58.375 77.3225L58.0071 79.8365ZM57.5166 83.5769L56.4129 83.393L56.7195 80.9402L57.8231 81.0629L57.5166 83.5769ZM57.0261 87.3173L55.9223 87.1947L56.2289 84.6807L57.3326 84.8646L57.0261 87.3173ZM56.5355 90.9964L55.4318 90.8738L55.7997 88.3598L56.9034 88.5437L56.5355 90.9964ZM56.045 94.6755L54.9412 94.5529L55.2478 92.1002L56.3516 92.2228L56.045 94.6755ZM55.5544 98.4159L54.4506 98.232L54.7572 95.7793L55.861 95.9019L55.5544 98.4159ZM36.0551 29.5555L36.9136 28.881L38.4466 30.8431L37.5881 31.5176L36.0551 29.5555ZM38.324 32.5601L39.2437 31.8855L40.7154 33.8477L39.8569 34.5222L38.324 32.5601ZM40.5927 35.5033L41.5125 34.8288L43.0454 36.8524L42.1257 37.5268L40.5927 35.5033ZM42.8615 38.4466L43.7813 37.7721L45.3143 39.7343L44.3945 40.4701L42.8615 38.4466ZM45.1916 41.3899L46.0501 40.7154L47.583 42.6776L46.6632 43.3521L45.1916 41.3899ZM47.5217 44.3945L48.3802 43.72L49.9131 45.6822L49.0547 46.3567L47.5217 44.3945ZM49.7905 47.3991L50.6489 46.7246L52.1819 48.6868L51.3234 49.3613L49.7905 47.3991ZM52.0593 50.4037L52.9791 49.6679L54.512 51.6914L53.5922 52.3659L52.0593 50.4037ZM54.328 53.347L55.2478 52.6725L56.7808 54.696L55.861 55.3705L54.328 53.347ZM56.6582 56.2902L57.5166 55.6157L59.0495 57.5779L58.1297 58.3138L56.6582 56.2902ZM58.9882 59.2335L59.8467 58.559L61.3796 60.5212L60.5212 61.1957L58.9882 59.2335ZM61.257 62.2381L62.1154 61.5636L63.6484 63.5258L62.79 64.2003L61.257 62.2381ZM63.5258 65.2427L64.4456 64.5069L65.9172 66.5304L65.0587 67.2049L63.5258 65.2427ZM65.7945 68.186L66.7143 67.5115L68.2473 69.535L67.3275 70.2095L65.7945 68.186ZM68.0634 71.1293L68.9831 70.4548L70.5161 72.417L69.5963 73.1528L68.0634 71.1293ZM70.3934 74.0726L71.2519 73.3981L72.7848 75.3603L71.9264 76.0348L70.3934 74.0726ZM72.6622 77.0772L73.5207 76.4027L75.0537 78.3648L74.1952 79.0394L72.6622 77.0772ZM74.931 80.0818L75.8508 79.4073L77.3224 81.3695L76.4639 82.0439L74.931 80.0818ZM77.1998 83.0864L78.1196 82.3505L79.6525 84.3741L78.7328 85.0486L77.1998 83.0864ZM79.4686 86.0296L80.3883 85.3551L81.9213 87.3786L81.0015 88.0532L79.4686 86.0296ZM81.7987 88.9729L82.6571 88.2984L84.19 90.2606L83.2703 90.9351L81.7987 88.9729ZM74.6244 26.6735L73.582 26.2442L74.5018 23.9142L75.5442 24.3434L74.6244 26.6735ZM73.2141 30.1073L72.1717 29.6781L73.0914 27.4093L74.1339 27.8385L73.2141 30.1073ZM71.8038 33.5411L70.7614 33.1119L71.7425 30.8431L72.7848 31.2724L71.8038 33.5411ZM70.3321 36.975L69.2897 36.5458L70.2708 34.2156L71.3132 34.6449L70.3321 36.975ZM68.8605 40.4701L67.8181 40.0409L68.7991 37.7108L69.8416 38.14L68.8605 40.4701ZM67.3889 43.9653L66.4077 43.536L67.3275 41.2059L68.3699 41.6352L67.3889 43.9653ZM65.9785 47.4604L64.9361 47.0312L65.8559 44.7011L66.8983 45.1303L65.9785 47.4604ZM64.5682 50.8942L63.5258 50.465L64.5069 48.1962L65.4879 48.6254L64.5682 50.8942ZM63.1579 54.3281L62.1154 53.8988L63.0966 51.6301L64.139 52.0593L63.1579 54.3281ZM61.6862 57.7619L60.6439 57.3327L61.6249 55.0026L62.6673 55.4318L61.6862 57.7619ZM60.2146 61.257L59.1722 60.8278L60.1533 58.4977L61.1957 58.927L60.2146 61.257ZM58.7429 64.7522L57.7618 64.323L58.6816 61.9929L59.7241 62.4221L58.7429 64.7522ZM57.3326 68.2473L56.2902 67.8181L57.21 65.488L58.2524 65.9172L57.3326 68.2473ZM55.9223 71.6812L54.8799 71.2519L55.861 68.9831L56.8421 69.4124L55.9223 71.6812ZM54.512 75.115L53.4696 74.6857L54.4506 72.417L55.4931 72.8462L54.512 75.115ZM53.0404 78.5488L51.9979 78.1196L52.9791 75.7895L54.0214 76.2187L53.0404 78.5488ZM51.5687 82.0439L50.5263 81.6147L51.5074 79.2846L52.5498 79.7139L51.5687 82.0439ZM50.0971 85.5391L49.116 85.1099L50.0357 82.7798L51.0781 83.209L50.0971 85.5391ZM48.6868 89.0342L47.6443 88.605L48.5641 86.2749L49.6066 86.7042L48.6868 89.0342ZM47.2764 92.4681L46.234 92.0389L47.2151 89.7701L48.1962 90.1993L47.2764 92.4681ZM45.8661 95.9019L44.8237 95.4727L45.8048 93.2039L46.8472 93.6331L45.8661 95.9019ZM29.0649 36.7297L29.7394 35.8712L31.7629 37.4042L31.0884 38.2627L29.0649 36.7297ZM32.0081 38.9985L32.6826 38.14L34.7062 39.673L34.0317 40.5315L32.0081 38.9985ZM34.9515 41.2672L35.6259 40.4088L37.6495 41.9418L36.9749 42.8002L34.9515 41.2672ZM37.8947 43.536L38.5692 42.6776L40.5927 44.1492L39.9182 45.069L37.8947 43.536ZM40.838 45.8048L41.5125 44.9463L43.536 46.418L42.8615 47.3378L40.838 45.8048ZM43.7813 48.0736L44.4558 47.2151L46.4793 48.6868L45.8048 49.6066L43.7813 48.0736ZM46.7245 50.3424L47.399 49.4839L49.4226 50.9556L48.7481 51.8753L46.7245 50.3424ZM49.6679 52.6111L50.3423 51.7527L52.3659 53.2243L51.6913 54.1441L49.6679 52.6111ZM52.6111 54.8799L53.2857 54.0215L55.3091 55.4931L54.6346 56.4129L52.6111 54.8799ZM55.5544 57.1487L56.2289 56.2289L58.2524 57.7619L57.5779 58.6817L55.5544 57.1487ZM58.4977 59.4175L59.1722 58.4977L61.1957 60.0307L60.4599 60.9505L58.4977 59.4175ZM61.5022 61.6863L62.1768 60.7665L64.2003 62.2995L63.4645 63.2192L61.5022 61.6863ZM64.5069 63.955L65.1814 63.0353L67.2049 64.5682L66.4691 65.488L64.5069 63.955ZM67.5115 66.2238L68.186 65.304L70.2095 66.837L69.4736 67.7568L67.5115 66.2238ZM70.5161 68.4926L71.1906 67.5728L73.2141 69.1058L72.4782 70.0256L70.5161 68.4926ZM73.5207 70.7614L74.1952 69.8416L76.2187 71.3746L75.4829 72.2943L73.5207 70.7614ZM76.5252 73.0302L77.1998 72.1104L79.2233 73.6434L78.4875 74.5631L76.5252 73.0302ZM79.5299 75.2989L80.2043 74.3792L82.2279 75.9121L81.4921 76.8319L79.5299 75.2989ZM82.5345 77.5677L83.209 76.6479L85.1712 78.1809L84.4966 79.1007L82.5345 77.5677ZM85.5391 79.8365L86.2136 78.9167L88.1757 80.4497L87.5012 81.3082L85.5391 79.8365ZM88.5437 82.1666L89.2182 81.2468L91.1803 82.7798L90.5059 83.6382L88.5437 82.1666ZM82.6571 31.3337L81.7987 30.5979L83.3316 28.6357L84.19 29.3102L82.6571 31.3337ZM80.3883 34.3383L79.4686 33.6638L81.0015 31.6403L81.9213 32.3148L80.3883 34.3383ZM78.0582 37.3429L77.1998 36.6684L78.7328 34.6449L79.5912 35.3807L78.0582 37.3429ZM75.7895 40.2862L74.8697 39.6117L76.4026 37.6495L77.3224 38.324L75.7895 40.2862ZM73.4593 43.2294L72.6009 42.555L74.1339 40.5928L74.9923 41.2672L73.4593 43.2294ZM71.1906 46.1727L70.2708 45.4982L71.8038 43.536L72.7235 44.2106L71.1906 46.1727ZM68.9218 49.1773L68.0021 48.4415L69.535 46.4793L70.3934 47.1538L68.9218 49.1773ZM66.653 52.1819L65.7945 51.5074L67.2662 49.4839L68.186 50.1584L66.653 52.1819ZM64.3843 55.1865L63.4645 54.512L64.9974 52.4885L65.8559 53.2243L64.3843 55.1865ZM62.1154 58.1298L61.257 57.4553L62.79 55.4931L63.6484 56.1676L62.1154 58.1298ZM59.8467 61.0731L58.9269 60.3986L60.4599 58.4364L61.3796 59.1109L59.8467 61.0731ZM57.5166 64.0164L56.6582 63.3418L58.1911 61.3797L59.0495 62.0542L57.5166 64.0164ZM55.2478 67.0209L54.328 66.2852L55.861 64.323L56.7808 64.9975L55.2478 67.0209ZM52.9177 70.0256L52.0593 69.3511L53.5922 67.3275L54.4506 68.0021L52.9177 70.0256ZM50.6489 73.0302L49.7292 72.3557L51.2621 70.3322L52.1819 71.068L50.6489 73.0302ZM48.3802 75.9734L47.4604 75.2989L48.9934 73.3368L49.8518 74.0113L48.3802 75.9734ZM46.1114 78.9167L45.2529 78.2422L46.7245 76.28L47.6443 76.9545L46.1114 78.9167ZM43.8426 81.86L42.9228 81.1855L44.4558 79.2233L45.3756 79.8978L43.8426 81.86ZM41.5125 84.8646L40.654 84.1288L42.187 82.1666L43.0454 82.8411L41.5125 84.8646ZM39.2437 87.8692L38.324 87.1947L39.8569 85.1712L40.7767 85.8457L39.2437 87.8692ZM36.9136 90.8738L36.0551 90.1993L37.5881 88.1758L38.4466 88.9116L36.9136 90.8738ZM24.0981 45.4982L24.5273 44.4558L26.7961 45.4369L26.3669 46.4793L24.0981 45.4982ZM27.5932 46.9085L28.0224 45.8661L30.3526 46.8472L29.9233 47.8897L27.5932 46.9085ZM31.0271 48.3189L31.4563 47.2765L33.7864 48.2575L33.3572 49.3L31.0271 48.3189ZM34.4609 49.7292L34.8901 48.6868L37.2202 49.6679L36.791 50.649L34.4609 49.7292ZM37.9561 51.2008L38.3853 50.1584L40.654 51.0782L40.2248 52.1206L37.9561 51.2008ZM41.4512 52.6725L41.8804 51.6301L44.2105 52.5498L43.7813 53.5923L41.4512 52.6725ZM44.885 54.1441L45.3143 53.1017L47.6443 54.0215L47.2151 55.0639L44.885 54.1441ZM48.3188 55.5544L48.7481 54.5733L51.0781 55.4931L50.6489 56.5355L48.3188 55.5544ZM51.814 56.9648L52.2432 55.9223L54.512 56.9034L54.0827 57.9458L51.814 56.9648ZM55.3091 58.3751L55.7384 57.3327L58.0684 58.3138L57.6392 59.3562L55.3091 58.3751ZM58.7429 59.7854L59.1722 58.743L61.5022 59.7241L61.0731 60.7665L58.7429 59.7854ZM62.2381 61.1957L62.6673 60.1533L64.9361 61.1344L64.5069 62.1768L62.2381 61.1957ZM65.7332 62.6061L66.1625 61.5636L68.4926 62.5447L68.0634 63.5258L65.7332 62.6061ZM69.167 64.0777L69.5963 63.0353L71.9264 63.955L71.4972 64.9975L69.167 64.0777ZM72.6009 65.5493L73.0301 64.5069L75.3603 65.4267L74.931 66.4691L72.6009 65.5493ZM76.096 67.0209L76.5252 65.9786L78.7941 66.8983L78.3648 67.9407L76.096 67.0209ZM79.5912 68.4313L80.0204 67.4502L82.3505 68.37L81.9213 69.4124L79.5912 68.4313ZM83.025 69.8416L83.4542 68.7992L85.7844 69.7803L85.3551 70.8227L83.025 69.8416ZM86.4589 71.2519L86.8881 70.2095L89.2182 71.1906L88.7889 72.233L86.4589 71.2519ZM89.954 72.6622L90.3832 71.6198L92.652 72.6009L92.2228 73.6434L89.954 72.6622ZM93.4492 74.0726L93.8784 73.0302L96.2085 74.0113L95.7792 75.0537L93.4492 74.0726ZM89.2795 38.0787L88.605 37.2202L90.5672 35.6873L91.2416 36.6071L89.2795 38.0787ZM86.2749 40.3475L85.6004 39.4277L87.6239 37.9561L88.2984 38.8145L86.2749 40.3475ZM83.2703 42.6163L82.5958 41.7578L84.6193 40.2249L85.2938 41.0833L83.2703 42.6163ZM80.2657 44.9463L79.5912 44.0266L81.5534 42.4936L82.2279 43.4134L80.2657 44.9463ZM77.3224 47.2151L76.6479 46.3567L78.6101 44.8237L79.2846 45.6822L77.3224 47.2151ZM74.3791 49.4839L73.7046 48.6254L75.6668 47.0925L76.3413 48.0123L74.3791 49.4839ZM71.3746 51.7527L70.7 50.8329L72.7235 49.3613L73.398 50.2197L71.3746 51.7527ZM68.3699 54.0215L67.6955 53.163L69.7189 51.6301L70.3934 52.4885L68.3699 54.0215ZM65.3653 56.3516L64.6908 55.4318L66.653 53.8988L67.3275 54.8186L65.3653 56.3516ZM62.422 58.6204L61.7475 57.7006L63.7098 56.2289L64.3843 57.0874L62.422 58.6204ZM59.4788 60.8891L58.8043 60.0307L60.7665 58.4977L61.4409 59.4175L59.4788 60.8891ZM56.5355 63.1579L55.7997 62.2381L57.8231 60.7052L58.4977 61.6249L56.5355 63.1579ZM53.5309 65.4267L52.8564 64.5682L54.8799 63.0353L55.5544 63.8937L53.5309 65.4267ZM50.5263 67.7568L49.8518 66.837L51.814 65.304L52.5498 66.2238L50.5263 67.7568ZM47.5217 70.0256L46.8472 69.1058L48.8094 67.6341L49.4839 68.4926L47.5217 70.0256ZM44.5784 72.2943L43.9039 71.4359L45.8661 69.9029L46.5406 70.8227L44.5784 72.2943ZM41.6352 74.5631L40.8993 73.6434L42.9228 72.1104L43.5973 73.0302L41.6352 74.5631ZM38.6306 76.8319L37.9561 75.9734L39.9795 74.4405L40.654 75.2989L38.6306 76.8319ZM35.6259 79.162L34.9515 78.2422L36.9136 76.7093L37.6495 77.6291L35.6259 79.162ZM32.6213 81.4308L31.9468 80.511L33.909 79.0394L34.5836 79.8978L32.6213 81.4308ZM29.6781 83.6995L29.0035 82.8411L30.9658 81.3082L31.6402 82.2279L29.6781 83.6995ZM21.6453 55.2479L21.768 54.0828L24.2207 54.4507L24.0981 55.5544L21.6453 55.2479ZM25.3858 55.7384L25.5084 54.6347L27.9611 54.9413L27.8385 56.045L25.3858 55.7384ZM29.1262 56.2289L29.2488 55.1252L31.7629 55.4318L31.5789 56.5355L29.1262 56.2289ZM32.8666 56.7195L32.9892 55.6157L35.5033 55.9223L35.3193 57.0261L32.8666 56.7195ZM36.607 57.21L36.7297 56.1063L39.2437 56.4129L39.0597 57.5166L36.607 57.21ZM40.3474 57.7006L40.5314 56.5968L42.9841 56.9034L42.8615 58.0685L40.3474 57.7006ZM44.0265 58.1911L44.2105 57.0261L46.6632 57.394L46.5406 58.4977L44.0265 58.1911ZM47.7056 58.6817L47.8896 57.5779L50.3423 57.8845L50.2197 58.9883L47.7056 58.6817ZM51.4461 59.1722L51.5687 58.0685L54.0214 58.3751L53.8988 59.4788L51.4461 59.1722ZM55.1865 59.6627L55.3091 58.559L57.7618 58.8656L57.6392 59.9693L55.1865 59.6627ZM58.9269 60.1533L59.0495 59.0496L61.5636 59.3562L61.3796 60.4599L58.9269 60.1533ZM62.6673 60.6439L62.79 59.5401L65.304 59.8467L65.12 61.0118L62.6673 60.6439ZM66.4077 61.1344L66.5304 59.9693L69.0444 60.3373L68.8605 61.441L66.4077 61.1344ZM70.1482 61.6249L70.2708 60.5212L72.7848 60.8278L72.6622 61.9315L70.1482 61.6249ZM73.8273 62.1155L74.0112 61.0118L76.4639 61.3183L76.3413 62.4221L73.8273 62.1155ZM77.5064 62.6061L77.6903 61.5023L80.143 61.8089L80.0204 62.9126L77.5064 62.6061ZM81.1855 63.0966L81.3694 61.9929L83.8221 62.2995L83.6995 63.4645L81.1855 63.0966ZM84.9259 63.5258L85.0485 62.4221L87.5012 62.79L87.3786 63.8937L84.9259 63.5258ZM88.6663 64.0164L88.7889 62.8513L91.303 63.2192L91.119 64.323L88.6663 64.0164ZM92.4067 64.5069L92.5294 63.4032L95.0434 63.7098L94.8594 64.8135L92.4067 64.5069ZM96.1471 64.9975L96.2698 63.8937L98.7838 64.2003L98.5998 65.304L96.1471 64.9975ZM21.9519 65.4267L21.768 64.323L24.282 64.0164L24.4047 65.1201L21.9519 65.4267ZM25.6924 64.9361L25.5084 63.8324L28.0224 63.4645L28.1451 64.5682L25.6924 64.9361ZM29.4328 64.4456L29.2488 63.3418L31.7629 63.0353L31.8855 64.139L29.4328 64.4456ZM33.1732 63.955L32.9892 62.8513L35.5033 62.4834L35.6259 63.5871L33.1732 63.955ZM36.9136 63.4645L36.7297 62.3608L39.2437 62.0542L39.3663 63.1579L36.9136 63.4645ZM40.654 62.974L40.5314 61.8702L42.9841 61.5023L43.1067 62.6674L40.654 62.974ZM44.3945 62.4221L44.2718 61.3183L46.7245 61.0118L46.9085 62.1155L44.3945 62.4221ZM48.0736 61.9315L47.9509 60.8278L50.4036 60.5212L50.5876 61.6249L48.0736 61.9315ZM51.7527 61.441L51.63 60.2759L54.0827 59.9693L54.2667 61.0731L51.7527 61.441ZM55.4318 60.9505L55.3091 59.8467L57.7618 59.5401L57.9458 60.6439L55.4318 60.9505ZM59.1109 60.4599L58.9882 59.3562L61.4409 58.9883L61.6249 60.092L59.1109 60.4599ZM62.8513 59.9693L62.6673 58.8656L65.1814 58.559L65.304 59.6627L62.8513 59.9693ZM66.5917 59.4788L66.4077 58.3751L68.9218 58.0072L69.0444 59.1109L66.5917 59.4788ZM70.3321 58.9883L70.1482 57.8845L72.6622 57.5779L72.7848 58.6817L70.3321 58.9883ZM74.0725 58.4977L73.8886 57.394L76.4026 57.0261L76.5252 58.1911L74.0725 58.4977ZM77.813 57.9458L77.629 56.8421L80.143 56.5355L80.2657 57.6392L77.813 57.9458ZM81.5534 57.4553L81.3694 56.3516L83.8834 55.9836L84.0061 57.1487L81.5534 57.4553ZM85.2938 56.9648L85.1712 55.7997L87.6239 55.4931L87.7465 56.5968L85.2938 56.9648ZM89.0342 56.4742L88.9116 55.3705L91.3643 55.0639L91.5482 56.1676L89.0342 56.4742ZM92.7133 55.9836L92.5907 54.8186L95.0434 54.512L95.2273 55.6157L92.7133 55.9836ZM96.3924 55.4931L96.2698 54.3894L98.7225 54.0828L98.9064 55.1865L96.3924 55.4931ZM94.0623 46.418L93.6331 45.3756L95.9632 44.3945L96.3924 45.4369L94.0623 46.418ZM90.6285 47.8283L90.1993 46.7859L92.468 45.8661L92.8973 46.9085L90.6285 47.8283ZM87.1946 49.2386L86.7654 48.1962L89.0342 47.2765L89.4635 48.3189L87.1946 49.2386ZM83.7608 50.649L83.3316 49.6066L85.6617 48.6254L86.091 49.6679L83.7608 50.649ZM80.2657 52.1206L79.8364 51.0782L82.1666 50.0971L82.5958 51.1395L80.2657 52.1206ZM76.7705 53.5923L76.3413 52.5498L78.6714 51.5688L79.1007 52.6111L76.7705 53.5923ZM73.2754 55.0026L72.8461 53.9601L75.1763 53.0404L75.6055 54.0828L73.2754 55.0026ZM69.7802 56.4129L69.351 55.3705L71.6812 54.4507L72.1104 55.4931L69.7802 56.4129ZM66.3464 57.8232L65.9172 56.7808L68.186 55.7997L68.6152 56.8421L66.3464 57.8232ZM62.9126 59.2949L62.4834 58.2524L64.7522 57.2714L65.1814 58.3138L62.9126 59.2949ZM59.4788 60.7052L59.0495 59.7241L61.3796 58.743L61.8088 59.7854L59.4788 60.7052ZM55.9836 62.1155L55.5544 61.0731L57.8845 60.1533L58.3137 61.1957L55.9836 62.1155ZM52.4885 63.5258L52.0593 62.4834L54.3893 61.5636L54.8186 62.5447L52.4885 63.5258ZM48.9934 64.9975L48.5641 63.955L50.8942 62.974L51.3234 64.0164L48.9934 64.9975ZM45.4982 66.4691L45.069 65.4267L47.399 64.4456L47.8283 65.488L45.4982 66.4691ZM42.0644 67.8794L41.6352 66.837L43.9039 65.9172L44.3331 66.9596L42.0644 67.8794ZM38.6306 69.2897L38.2013 68.2473L40.4701 67.3275L40.8993 68.37L38.6306 69.2897ZM35.1967 70.7L34.7675 69.6577L37.0976 68.6766L37.5268 69.719L35.1967 70.7ZM31.7015 72.1717L31.2723 71.1293L33.6024 70.1482L34.0317 71.1906L31.7015 72.1717ZM28.2064 73.582L27.7772 72.5396L30.1073 71.6198L30.5365 72.6622L28.2064 73.582ZM24.7112 74.9923L24.282 73.95L26.6122 73.0302L27.0414 74.0726L24.7112 74.9923Z" fill="white"/>
<path d="M60.0307 43.7814C62.5775 43.7814 65.067 44.5366 67.1846 45.9515C69.3022 47.3664 70.9526 49.3775 71.9273 51.7305C72.9019 54.0834 73.1569 56.6725 72.6601 59.1704C72.1632 61.6682 70.9368 63.9627 69.136 65.7635C67.3351 67.5644 65.0406 68.7908 62.5428 69.2877C60.0449 69.7845 57.4558 69.5295 55.1029 68.5549C52.75 67.5802 50.7388 65.9298 49.3239 63.8122C47.909 61.6946 47.1538 59.205 47.1538 56.6582C47.1538 53.2431 48.5105 49.9678 50.9254 47.5529C53.3402 45.138 56.6155 43.7814 60.0307 43.7814Z" fill="url(#paint0_radial_733_17673)"/>
<path d="M60.0307 43.7814C62.5801 43.7693 65.0757 44.5141 67.2013 45.9217C69.327 47.3292 70.9869 49.336 71.9709 51.6878C72.955 54.0397 73.2188 56.6307 72.7289 59.1326C72.239 61.6345 71.0174 63.9347 69.219 65.7417C67.4206 67.5487 65.1263 68.7812 62.6268 69.283C60.1272 69.7848 57.535 69.5334 55.1785 68.5606C52.822 67.5879 50.8072 65.9375 49.3896 63.8186C47.9719 61.6997 47.2152 59.2077 47.2151 56.6582C47.2151 53.2537 48.5634 49.9877 50.965 47.5745C53.3666 45.1614 56.6262 43.7976 60.0307 43.7814Z" stroke="#100F0E" stroke-width="0.613183"/>
<path fill-rule="evenodd" clip-rule="evenodd" d="M21.8906 29.1263C22.3885 29.7846 22.7483 30.5368 22.9485 31.3375C23.1487 32.1383 23.1851 32.9713 23.0557 33.7865C22.9443 34.4185 22.6694 35.0104 22.2585 35.5034C22.0873 35.7474 21.8689 35.9546 21.6161 36.1126C21.3633 36.2706 21.0813 36.3762 20.7869 36.4232C20.4301 36.4667 20.0681 36.4286 19.7282 36.3117C19.3882 36.1949 19.0793 36.0023 18.8247 35.7486C17.9233 35.0128 17.0894 33.7068 16.3107 31.8243C16.2309 31.579 16.2064 31.438 16.2494 31.3951C16.2886 31.3954 16.3269 31.4073 16.3595 31.429C16.3922 31.4508 16.4178 31.4816 16.4333 31.5177C16.5061 31.5902 16.5681 31.6728 16.6173 31.7629C16.9994 32.7376 17.5609 33.632 18.2728 34.3997C19.2539 35.2152 20.1921 35.0557 21.0935 33.9091C21.5515 33.3527 21.8503 32.6827 21.9583 31.9702C22.0662 31.2576 21.9793 30.5292 21.7067 29.8621C21.548 29.3775 21.2492 28.9508 20.8482 28.6357L19.8058 27.7773C19.5051 27.458 19.238 27.1087 19.0087 26.7349C18.6837 26.0788 18.5365 25.7108 18.5794 25.6311C18.6223 25.5514 18.6408 25.6311 18.7634 25.6925C19.1095 26.0815 19.4781 26.4501 19.8672 26.7962C20.326 27.1748 20.7377 27.6071 21.0935 28.0838C21.3816 28.4137 21.6478 28.7619 21.8906 29.1263ZM94.4916 26.7962C94.5978 26.9342 94.7215 27.0578 94.8595 27.1641C94.9821 27.2438 95.1661 27.2254 95.4113 27.1028C95.5291 27.0028 95.6258 26.8804 95.6958 26.7427C95.7659 26.605 95.8079 26.4547 95.8193 26.3007C95.8307 26.1466 95.8113 25.9918 95.7623 25.8453C95.7133 25.6987 95.6357 25.5634 95.5339 25.4472C95.5339 25.3616 95.5551 25.2774 95.5953 25.2019C95.9121 24.9798 96.2647 24.8139 96.6377 24.7113C96.9566 24.6483 97.2874 24.7145 97.5575 24.8953C99.2925 26.0254 101.095 27.0492 102.954 27.9612C102.42 28.1268 101.378 27.7957 99.8262 26.9801C99.4583 26.7348 97.0669 24.9566 96.9443 25.2019C97.047 25.5691 97.0172 25.9608 96.8603 26.3083C96.7034 26.6558 96.4292 26.937 96.0858 27.1028C95.736 27.359 95.3406 27.5463 94.9208 27.6546C94.4731 27.8202 94.1665 27.8386 94.001 27.716L93.9397 27.5933L93.8171 27.4707C93.5718 27.1804 93.1426 27.1191 92.5294 27.2867C92.2075 27.373 91.8795 27.4345 91.5482 27.4707C91.0841 27.4485 90.6274 27.3447 90.1993 27.1641C87.0107 26.1217 80.0817 20.4804 77.9356 18.1503C77.2611 17.2918 77.2611 16.4947 77.7516 15.9428C77.9749 15.6765 78.2212 15.4303 78.4875 15.207C78.7328 14.9188 78.8983 14.7962 78.978 14.8391C79.0577 14.882 79.0393 14.9617 78.9167 15.0844C78.8394 15.2415 78.7778 15.4058 78.7328 15.5749C78.1196 17.3532 89.0342 25.8764 92.7133 26.5509C93.2652 26.6735 94.185 26.4283 94.4916 26.7962ZM87.7465 20.3577C87.577 20.5607 87.3685 20.7275 87.1334 20.8483C86.7225 21.0138 86.4588 21.0323 86.3362 20.9096C86.2788 20.7089 86.2378 20.5038 86.2136 20.2964C86.1339 20.0082 86.1094 19.8488 86.1523 19.8059C86.347 19.6853 86.5522 19.5827 86.7655 19.4993C87.0633 19.3725 87.3709 19.27 87.6852 19.1927C87.7526 19.4328 87.7937 19.6795 87.8078 19.9285C87.8294 20.0002 87.8351 20.0758 87.8245 20.1499C87.8139 20.224 87.7873 20.295 87.7465 20.3577ZM101.298 35.6873C101.207 35.5196 101.082 35.3732 100.93 35.2581C100.766 35.1471 100.575 35.0835 100.378 35.0742C98.9065 34.786 98.1523 34.5836 98.1094 34.461C98.0096 33.9282 97.7534 33.4372 97.3735 33.0507C97.1185 32.7888 96.8298 32.562 96.5151 32.3761C95.7098 32.1413 94.8906 31.957 94.0624 31.8243C92.6726 31.5398 91.3698 30.9305 90.2606 30.046C89.9283 29.8347 89.6374 29.5646 89.4021 29.2489V29.1263C89.445 29.1263 89.9111 29.3899 90.8125 29.9234C91.4848 30.3374 92.2056 30.667 92.9586 30.9045C93.7604 31.1525 94.5806 31.337 95.4113 31.4564C97.8641 31.8243 99.3562 32.6827 99.8876 34.0317C99.9634 34.1466 100.025 34.2701 100.072 34.3997C100.072 34.4794 100.335 34.5836 100.869 34.7063C101.225 34.7762 101.574 34.8788 101.911 35.0128C102.133 35.2037 102.32 35.4319 102.463 35.6873C102.693 35.693 102.92 35.7344 103.137 35.81C103.137 35.8529 103.095 35.8897 103.015 35.9326C102.702 36.0559 102.359 36.0773 102.034 35.9939C101.897 35.9943 101.761 35.9673 101.635 35.9147C101.509 35.8621 101.394 35.7848 101.298 35.6873ZM101.114 31.2111C100.894 31.3454 100.63 31.3894 100.378 31.3337C99.9305 31.2908 99.6852 31.2111 99.6423 31.0885C99.5994 30.9658 99.7465 30.7205 99.8262 30.4753C99.9059 30.23 99.9305 30.0277 100.01 29.9847L100.685 30.046C101.096 30.089 101.421 30.1258 101.666 30.1687C101.609 30.4215 101.527 30.668 101.421 30.9045C101.393 30.9737 101.351 31.0365 101.299 31.0892C101.246 31.1419 101.183 31.1833 101.114 31.2111ZM103.26 31.2724C103.026 31.3656 102.775 31.4074 102.524 31.3951C102.077 31.3521 101.831 31.254 101.788 31.0885C101.746 30.9229 101.893 30.7205 101.972 30.4753C102.052 30.23 102.077 30.046 102.156 30.046C102.236 30.046 102.42 30.0031 102.831 30.046C103.242 30.089 103.567 30.1258 103.812 30.1687C103.77 30.4254 103.687 30.6738 103.567 30.9045C103.5 31.053 103.394 31.1804 103.26 31.2724ZM36.791 13.5514C36.7297 13.7967 36.4844 13.858 36.2391 13.858C35.9939 13.858 35.9509 14.0236 35.9938 14.3486C36.1778 15.207 35.5033 15.6362 35.3807 15.3296C35.258 15.023 35.5033 15.0231 35.6259 14.8391C35.7076 14.7135 35.7608 14.5717 35.782 14.4234C35.8032 14.2751 35.7917 14.124 35.7485 13.9806C35.6259 12.4477 36.975 12.5703 36.791 13.5514ZM32.1921 25.4472C32.3569 25.6614 32.4626 25.9151 32.4987 26.183C32.5437 26.5918 32.4823 26.8371 32.3147 26.9188C32.1092 26.912 31.9044 26.8915 31.7016 26.8575C31.4134 26.8575 31.254 26.8146 31.2111 26.7349C31.1321 26.5186 31.0906 26.2905 31.0884 26.0603C31.0446 25.7348 31.0446 25.4048 31.0884 25.0793C31.3357 25.1069 31.5813 25.1478 31.8242 25.2019C31.9731 25.2351 32.1043 25.3225 32.1921 25.4472ZM33.5411 24.3434C33.6345 24.4298 33.7097 24.534 33.7624 24.6498C33.815 24.7656 33.844 24.8908 33.8477 25.0179C33.9274 25.4288 33.909 25.6925 33.7864 25.8151C33.5649 25.7675 33.3384 25.7468 33.1119 25.7538C32.8237 25.7538 32.6642 25.7538 32.6213 25.6925C32.5784 25.6311 32.5784 25.4288 32.4987 25.0179C32.4283 24.6953 32.3872 24.3669 32.376 24.0368C32.6432 24.0271 32.9107 24.0477 33.1732 24.0982C33.3221 24.1313 33.4532 24.2188 33.5411 24.3434ZM47.2151 14.3486C48.6108 13.548 49.8728 12.5342 50.9555 11.3439C51.7343 10.4426 52.2248 9.85393 52.4272 9.56573L52.7338 9.01385C52.7338 8.9283 52.7548 8.84405 52.7951 8.76857C53.1201 7.95303 53.5125 7.49931 53.9601 7.41959H54.1441C54.3893 7.46252 54.5304 7.46252 54.5733 7.41959C54.6162 7.37667 54.837 7.23562 55.0025 6.86771C55.0454 6.70215 55.0823 6.62242 55.1252 6.62242C55.1681 6.62242 55.2478 6.74508 55.2478 6.99036C55.2049 7.11299 55.1252 7.37665 55.0025 7.78749C55.0179 7.90312 55.0019 8.02078 54.9562 8.1281C54.9105 8.23542 54.8367 8.32843 54.7426 8.39742C54.6486 8.4664 54.5376 8.50881 54.4215 8.52017C54.3054 8.53153 54.1884 8.51142 54.0827 8.46197C54.0043 8.43004 53.9217 8.40941 53.8375 8.40067C53.7512 8.40283 53.6669 8.42639 53.5919 8.4692C53.517 8.51201 53.4539 8.57274 53.4083 8.64596C53.3062 8.79115 53.2428 8.95999 53.2243 9.1365C53.3257 9.33222 53.473 9.50051 53.6535 9.62704C53.8175 9.74765 53.9621 9.89237 54.0827 10.0563C54.0453 10.2948 53.962 10.5239 53.8375 10.7308C53.7148 11.019 53.5738 11.1784 53.4083 11.2213L53.0404 11.0987C52.8584 11.0634 52.6738 11.0429 52.4885 11.0374C52.262 11.2184 52.0564 11.4241 51.8753 11.6505C51.5503 12.0184 51.2621 12.325 51.0781 12.5703C49.6685 14.2204 47.9633 15.593 46.0501 16.6173C43.3521 18.0277 39.4276 19.3154 36.3617 18.7635C36.3188 18.8432 36.0981 19.6403 35.6872 21.1549C35.6443 21.3204 35.583 21.4002 35.5033 21.4002C35.4236 21.4002 35.4604 21.2346 35.5033 21.0322C35.7915 19.4809 36.0123 18.3956 36.1778 17.7824C36.3434 17.1692 36.5457 16.8197 36.791 16.8626C40.4388 17.0844 44.0695 16.2088 47.2151 14.3486ZM51.3847 16.1881C51.523 16.4294 51.5667 16.7135 51.5074 16.9852C51.4645 17.3961 51.3664 17.5984 51.2008 17.6597C51.0353 17.721 50.8758 17.5555 50.5876 17.4758C50.2994 17.3961 50.1584 17.3715 50.1584 17.2918C50.1584 17.2121 50.1584 17.0282 50.2197 16.6173C50.2811 16.2065 50.2994 15.8815 50.3423 15.6362C50.5952 15.6933 50.8416 15.7755 51.0781 15.8815C51.1473 15.9093 51.2102 15.9508 51.2629 16.0034C51.3156 16.0561 51.357 16.119 51.3847 16.1881ZM101.788 32.7441C101.557 32.8462 101.304 32.8883 101.053 32.8667C100.642 32.8238 100.397 32.7257 100.317 32.5601C100.36 32.3946 100.421 32.1922 100.501 31.9469C100.534 31.7743 100.596 31.6084 100.685 31.4564C100.764 31.4564 101.01 31.4564 101.421 31.5177C101.831 31.579 102.138 31.5974 102.34 31.6403C102.283 31.8932 102.201 32.1396 102.095 32.3761C102.076 32.4569 102.038 32.5322 101.985 32.596C101.932 32.6598 101.864 32.7105 101.788 32.7441ZM89.0342 21.3388C88.8884 21.5513 88.6705 21.7037 88.421 21.7681C88.0531 21.9336 87.8079 21.9704 87.6852 21.8907C87.5626 21.811 87.581 21.5228 87.5013 21.2775C87.4215 21.0322 87.4583 20.8299 87.5013 20.787C87.6959 20.6664 87.9012 20.5638 88.1144 20.4804C88.4144 20.3418 88.7214 20.219 89.0342 20.1125C89.1051 20.3727 89.1463 20.6401 89.1569 20.9096C89.1595 21.0617 89.1168 21.2111 89.0342 21.3388ZM70.1482 13.4901C70.3447 13.4097 70.5649 13.4097 70.7614 13.4901C70.9673 13.5676 71.1405 13.7133 71.252 13.903C71.3636 14.0927 71.4069 14.3148 71.3746 14.5325V14.6551C71.6092 14.5515 71.8348 14.4284 72.0491 14.2872C72.6193 13.999 73.0301 13.9193 73.2754 14.042L73.582 14.2259C73.654 14.2449 73.7291 14.2492 73.8028 14.2386C73.8765 14.2281 73.9474 14.203 74.0112 14.1646L74.5018 13.858L74.6857 13.9806C74.8083 14.0235 75.0107 13.9009 75.2989 13.6127C75.4215 13.4901 75.5012 13.4472 75.5442 13.4901C75.5871 13.533 75.5442 13.6311 75.4216 13.7967C75.2931 14.0617 75.104 14.2928 74.8697 14.4712C74.7916 14.5743 74.689 14.6563 74.5713 14.7098C74.4535 14.7634 74.3242 14.7867 74.1952 14.7778C73.9654 14.7835 73.7378 14.8248 73.5207 14.9004C73.3515 14.9994 73.1636 15.0621 72.9688 15.0844C72.8541 15.0469 72.7493 14.984 72.6622 14.9004C72.5666 14.8553 72.4613 14.8343 72.3556 14.8391C72.0889 14.8791 71.836 14.9844 71.6198 15.1457L70.9453 15.5749C70.6395 15.8408 70.3527 16.1276 70.0868 16.4334C69.7618 16.8013 69.5779 16.9669 69.535 16.9239C69.4921 16.881 69.4307 16.881 69.4736 16.8013C69.5166 16.7216 69.7374 16.3537 70.1482 15.6976C70.3935 15.1273 70.2892 14.7349 69.8416 14.5325C69.1891 14.6648 68.5658 14.9141 68.0021 15.2683C67.8149 15.3687 67.6078 15.4262 67.3958 15.4368C67.1837 15.4474 66.9719 15.4108 66.7757 15.3296C65.999 15.0067 65.8559 14.23 66.3464 12.9995C67.0656 11.5148 67.8851 10.0807 68.7992 8.70726C69.2814 8.18759 69.7932 7.69621 70.3321 7.23561C70.3321 7.19268 70.3321 7.19268 70.3934 7.23561C70.3704 7.32516 70.3287 7.40879 70.2708 7.4809C69.9826 7.89173 69.535 8.60302 68.9218 9.62704C68.3087 10.6511 67.9591 11.3869 67.7568 11.8345C67.3459 12.8156 67.5115 13.4717 68.2473 13.7967C68.4837 13.8778 68.7366 13.8989 68.9831 13.858C69.3912 13.81 69.7865 13.6851 70.1482 13.4901ZM61.9315 10.3015C61.8886 10.4242 62.1584 10.6265 62.7286 10.9147C62.931 11.0373 63.0352 11.3439 63.0352 11.8345C62.996 13.0129 62.5887 14.1495 61.8702 15.0844C61.5646 15.5823 61.1426 15.9987 60.6406 16.2977C60.1387 16.5968 59.5716 16.7696 58.9882 16.8013C58.6919 16.7875 58.4033 16.7022 58.147 16.5527C57.8908 16.4032 57.6745 16.194 57.5166 15.9428C57.2213 15.3754 57.0737 14.7428 57.0874 14.1033C57.1193 13.1733 57.3274 12.2578 57.7005 11.4053C58.0266 10.6294 58.3951 9.87196 58.8043 9.1365C58.8478 9.29712 58.8478 9.46642 58.8043 9.62704C58.7246 9.82939 58.559 10.1973 58.3137 10.7308C58.0685 11.2642 57.9458 11.7302 57.8232 12.1411C57.6996 12.517 57.6375 12.9104 57.6392 13.3061C57.643 13.7325 57.7947 14.1443 58.0684 14.4712C58.2443 14.6458 58.4561 14.7801 58.689 14.8648C58.922 14.9495 59.1705 14.9826 59.4175 14.9617C59.9524 14.9808 60.4824 14.8536 60.9504 14.5938C61.3594 14.42 61.7179 14.1458 61.9928 13.7967C62.2104 13.5307 62.3579 13.2145 62.422 12.8769C62.422 12.7543 62.1584 12.5703 61.6249 12.3251C61.4669 12.2472 61.3356 12.1239 61.2482 11.9709C61.1608 11.8179 61.1211 11.6423 61.1344 11.4666C61.1656 10.9316 61.358 10.4185 61.6862 9.99493C61.9228 9.55612 62.2341 9.16189 62.606 8.82991C62.9739 8.53967 63.1579 8.3557 63.1579 8.27803L63.0352 8.15538C62.9126 8.07567 62.8697 7.98985 62.9126 7.91013C63.0611 7.52552 63.2459 7.15595 63.4645 6.80641C63.628 6.56114 63.7506 6.43848 63.8324 6.43848C64.5682 6.60404 64.9545 6.8248 64.9974 7.113C65.0172 7.25572 65.0055 7.40101 64.9631 7.53872C64.9207 7.67643 64.8487 7.80321 64.7522 7.91013C64.5703 8.18042 64.315 8.39315 64.0164 8.52332C63.7282 8.68887 63.2989 8.97092 62.7286 9.38175C62.1584 9.79258 61.9315 10.0992 61.9315 10.3015ZM49.7905 16.9239C49.8796 17.1586 49.9008 17.4136 49.8518 17.6597C49.77 18.1094 49.6474 18.3547 49.4839 18.3956C49.311 18.2909 49.1255 18.2085 48.932 18.1503C48.6438 18.0706 48.5028 17.9847 48.5028 17.905C48.5028 17.8253 48.5028 17.6414 48.5641 17.2305C48.6254 16.8197 48.7052 16.5131 48.7481 16.3108C49.0108 16.3647 49.2606 16.4688 49.4839 16.6173C49.553 16.6451 49.6158 16.6865 49.6685 16.7392C49.7212 16.7919 49.7627 16.8548 49.7905 16.9239ZM54.9412 14.1033C54.9771 14.35 54.9561 14.6017 54.8799 14.8391C54.7144 15.2499 54.5549 15.4523 54.3893 15.4523C54.211 15.3403 54.0268 15.238 53.8375 15.1457C53.5922 14.9801 53.4696 14.882 53.4696 14.8391C53.5342 14.6084 53.6162 14.3829 53.7149 14.1646C53.8067 13.8662 53.93 13.5784 54.0827 13.3061C54.3039 13.4236 54.5098 13.5678 54.6959 13.7354C54.8045 13.8379 54.8883 13.9637 54.9412 14.1033ZM30.5979 15.7589C30.8431 16.2065 31.1313 16.7584 31.4563 17.4145L32.2534 19.0087C32.5401 19.5482 32.7467 20.1266 32.8666 20.7256C33.069 22.0746 33.0935 22.7921 32.9279 22.8718C32.885 22.9147 32.8482 22.8718 32.8053 22.8105C32.5053 21.6608 32.0732 20.5496 31.5176 19.4993L30.9658 18.3956C30.8431 17.95 30.7205 17.3981 30.5979 16.74C30.5182 16.1268 30.4752 15.7773 30.4752 15.6976C30.4752 15.6179 30.5549 15.6976 30.5979 15.7589ZM29.6167 20.0512C29.9846 21.1549 30.0644 21.8907 29.862 22.3199C29.3285 23.1784 29.1446 23.8713 29.3101 24.4047C29.4269 24.8681 29.5089 25.3395 29.5554 25.8151C29.6391 26.2066 29.5961 26.6146 29.4328 26.9801C29.1988 27.3855 28.8861 27.7399 28.513 28.0225C28.1451 28.3905 27.8999 28.5131 27.8385 28.3904C27.7772 28.2678 27.7956 28.1022 27.9611 27.7773L28.329 26.7962C28.4889 26.4843 28.6123 26.1552 28.6969 25.8151C28.7746 25.5249 28.836 25.2796 28.8809 25.0793C28.8668 24.7089 28.8258 24.34 28.7583 23.9755C28.6671 23.634 28.6055 23.2852 28.5743 22.9331C28.5695 22.5435 28.6758 22.1607 28.8809 21.8294C29.0444 21.5065 29.1671 21.2612 29.2488 21.0936C29.3129 20.832 29.354 20.5652 29.3715 20.2964C29.4144 19.9285 29.4328 19.7446 29.4328 19.7446C29.4328 19.7446 29.5738 19.8059 29.6167 20.0512ZM23.117 23.2397C23.442 23.6506 23.8099 24.1166 24.2207 24.65L25.3858 26.0603C25.7795 26.5365 26.0904 27.0755 26.3056 27.6546C26.7961 28.9239 26.98 29.6168 26.8574 29.7394C26.8418 29.7499 26.8241 29.7566 26.8056 29.7591C26.787 29.7616 26.7682 29.7598 26.7504 29.7539C26.7327 29.748 26.7165 29.7381 26.7031 29.7249C26.6898 29.7118 26.6797 29.6958 26.6735 29.6781C26.1375 28.6181 25.501 27.6119 24.7726 26.6735L23.9755 25.6925C23.7217 25.2157 23.4965 24.7242 23.301 24.2208C23.1275 23.8984 23.0231 23.5434 22.9944 23.1784C22.9944 23.1355 23.0373 23.1784 23.117 23.2397ZM19.1926 29.7394C19.4236 29.9065 19.5954 30.1428 19.6832 30.414C19.8855 30.8616 19.9284 31.1682 19.8058 31.3337C19.5767 31.346 19.3501 31.3872 19.1313 31.4564C18.8063 31.5361 18.6223 31.5606 18.5794 31.5177C18.4382 31.3035 18.3152 31.0778 18.2115 30.8432C18.0092 30.3955 17.862 30.0461 17.7823 29.8008C18.1931 29.7211 18.4752 29.6597 18.6408 29.6168C18.8318 29.6141 19.0207 29.6561 19.1926 29.7394ZM52.9177 109.637C52.9298 110.36 52.8474 111.082 52.6725 111.783C52.6725 111.826 52.6724 111.845 52.6111 111.845C52.5498 111.845 52.5498 111.845 52.5498 111.783C52.4468 110.653 52.1995 109.54 51.814 108.472C51.5152 107.596 51.1247 106.753 50.6489 105.958C50.5905 105.905 50.5481 105.837 50.5264 105.761C50.5047 105.685 50.5047 105.605 50.5263 105.529L50.9555 104.057C50.9985 103.892 51.0598 103.873 51.1395 103.996C51.6401 104.755 52.0322 105.581 52.3045 106.449C52.677 107.472 52.884 108.549 52.9177 109.637ZM59.2335 103.996C59.185 104.509 59.0394 105.009 58.8043 105.468C58.5161 106.081 58.1911 106.387 57.7618 106.387C57.5709 106.39 57.3819 106.348 57.21 106.265L56.9034 105.958C56.6943 106.227 56.4199 106.438 56.1063 106.571C56.4468 107.559 56.633 108.593 56.6582 109.637C56.6703 110.36 56.5878 111.082 56.4129 111.783C56.37 111.863 56.3516 111.906 56.3516 111.906C56.3335 111.891 56.3186 111.872 56.3081 111.851C56.2975 111.83 56.2914 111.807 56.2902 111.783C56.1922 109.725 55.535 107.732 54.3893 106.019C54.3317 105.953 54.2906 105.874 54.2693 105.789C54.248 105.704 54.2471 105.615 54.2667 105.529C54.3894 105.081 54.5549 104.591 54.7572 104.057C54.8002 103.935 54.837 103.916 54.8799 103.996C55.0223 104.217 55.2105 104.405 55.4318 104.548C55.6334 104.733 55.8939 104.842 56.1676 104.854C56.2949 104.851 56.4202 104.823 56.5362 104.77C56.6521 104.717 56.7561 104.642 56.8421 104.548C56.9967 104.398 57.1034 104.206 57.1487 103.996C57.2284 103.83 57.2897 103.751 57.3327 103.751L57.5166 103.996C57.5963 104.198 57.6576 104.303 57.7005 104.303C57.7635 104.388 57.8475 104.455 57.9442 104.498C58.0409 104.541 58.1471 104.558 58.2524 104.548C58.4288 104.563 58.6048 104.516 58.7503 104.415C58.8959 104.315 59.0016 104.166 59.0495 103.996C59.0924 103.83 59.1293 103.751 59.1722 103.751C59.2151 103.751 59.2335 103.83 59.2335 103.996ZM63.0966 109.637C63.1087 110.36 63.0262 111.082 62.8513 111.783C62.8513 111.826 62.8513 111.845 62.79 111.845C62.7287 111.845 62.7286 111.845 62.7286 111.783C62.6256 110.653 62.3784 109.54 61.9928 108.472C61.694 107.596 61.3035 106.753 60.8278 105.958C60.7693 105.905 60.7269 105.837 60.7052 105.761C60.6836 105.685 60.6836 105.605 60.7052 105.529L61.1344 104.057C61.1773 103.892 61.2386 103.873 61.3183 103.996C61.8189 104.755 62.2111 105.581 62.4834 106.449C62.8559 107.472 63.0629 108.549 63.0966 109.637ZM66.5304 107.675C66.6935 108.358 66.7759 109.058 66.7757 109.76C66.7961 110.463 66.7134 111.165 66.5304 111.845C66.4875 111.924 66.4506 111.967 66.4077 111.967C66.3648 111.967 66.3464 111.924 66.3464 111.845C66.2996 110.843 66.1138 109.852 65.7945 108.901C65.5112 108.046 65.0976 107.239 64.5682 106.51C64.5068 106.446 64.4632 106.367 64.4417 106.281C64.4202 106.195 64.4215 106.105 64.4456 106.019C64.5253 105.652 64.6724 105.143 64.8748 104.487C64.9545 104.364 65.0158 104.345 65.0588 104.425C65.2611 104.75 65.4696 105.038 65.6719 105.345C65.9969 105.793 66.2422 106.019 66.4077 106.019C66.5323 105.403 66.7828 104.818 67.1436 104.303C67.5115 103.689 67.9223 103.383 68.37 103.383C68.4738 103.384 68.5763 103.406 68.6712 103.448C68.7661 103.49 68.8515 103.552 68.9218 103.628C68.9978 103.736 69.0405 103.864 69.0444 103.996C69.0444 104.284 68.9402 104.425 68.7379 104.425C68.6264 104.413 68.5203 104.371 68.4313 104.303C68.2913 104.264 68.1472 104.243 68.0021 104.241C67.738 104.272 67.4961 104.404 67.3275 104.609C67.2336 104.695 67.158 104.799 67.1053 104.915C67.0527 105.031 67.0239 105.156 67.0209 105.284C67.0219 105.388 67.0442 105.49 67.0864 105.585C67.1286 105.68 67.1898 105.765 67.2662 105.836C67.3794 105.951 67.5337 106.017 67.6955 106.019C67.9863 106.001 68.2645 105.894 68.4926 105.713C68.7349 105.55 68.9432 105.342 69.1057 105.1C69.2693 104.854 69.3306 104.793 69.2897 104.916C69.3327 105.406 69.0015 105.958 68.3087 106.571C67.8201 107.085 67.2078 107.465 66.5304 107.675Z" fill="#100F0E"/>
<path d="M97.9866 74.4406C95.089 82.1669 89.9025 88.8248 83.1201 93.5249C76.3377 98.225 68.2824 100.743 60.0307 100.743C51.7789 100.743 43.7236 98.225 36.9411 93.5249C30.1587 88.8248 24.9722 82.1669 22.0746 74.4406C27.9611 72.0492 33.4184 68.8606 38.8144 65.4881C41.2672 63.7098 45.3142 60.46 49.1773 57.578C60.1532 49.3614 59.8467 49.3614 70.884 57.578C74.6857 60.46 78.7941 63.7098 81.2468 65.4881C86.6428 68.8606 92.1001 72.0492 97.9866 74.4406Z" fill="#481513"/>
<path d="M79.4073 80.0818C74.7471 79.7752 61.9928 78.794 58.1298 82.0439C59.1109 82.5345 60.9504 82.6162 63.6484 82.2892C63.8074 82.4059 63.9276 82.5677 63.9932 82.7537C64.0588 82.9396 64.0669 83.141 64.0164 83.3316C64.6943 83.1247 65.2657 82.6631 65.6106 82.0439C66.4691 82.0439 66.7348 82.8206 66.4077 84.374C66.8599 84.3176 67.286 84.131 67.6343 83.8372C67.9826 83.5433 68.2382 83.1547 68.37 82.7184C68.5284 82.7164 68.6847 82.7546 68.8242 82.8297C68.9636 82.9048 69.0816 83.0143 69.1671 83.1477C69.9362 82.8893 70.6308 82.4473 71.1906 81.86C71.7241 82.5958 71.5769 83.8835 70.7614 85.723C71.5381 85.8457 72.9893 84.8033 75.115 82.5958C75.4829 83.4972 74.974 85.0056 73.582 87.1334C75.1763 87.0925 76.7093 86.0705 78.1809 84.0675C79.0394 84.4762 79.0189 86.0296 78.1196 88.7276C79.346 88.6827 80.9402 86.9657 82.9024 83.5769C83.7608 84.0265 83.904 85.4778 83.3317 87.9305C84.1901 87.7261 85.1507 86.1114 86.2136 83.0863C86.7041 83.209 86.9065 83.9632 86.8268 85.3551C87.6852 84.8646 88.3802 83.3929 88.9116 80.9402C89.1726 81.1655 89.3757 81.4501 89.5038 81.7703C89.6318 82.0904 89.6811 82.4366 89.6474 82.7797C90.57 81.6546 91.1642 80.2966 91.3643 78.8554C92.1975 78.5535 92.9366 78.0375 93.507 77.3594C94.0775 76.6813 94.4594 75.8649 94.6142 74.9923C90.3219 77.629 83.7609 75.9121 79.4073 80.0818Z" fill="white"/>
<path d="M31.5176 72.1717C33.2795 72.0082 35.4257 70.9863 37.9561 69.1058C38.651 69.0282 38.7532 69.7027 38.2627 71.1293C39.5299 70.5161 41.1241 69.0241 43.0454 66.6531C43.209 67.8345 42.6571 69.2857 41.3899 71.0067C43.2986 69.6905 44.942 68.0263 46.234 66.1012C46.8472 66.1012 47.6443 67.4502 47.6443 67.4502C48.2575 65.672 48.7481 62.9127 51.2621 61.441C52.0388 63.485 50.3628 67.532 46.234 73.5821C49.1364 71.9469 51.4052 69.3511 53.0404 65.7946C53.0404 67.3889 52.9791 68.9219 51.7527 72.2331C52.6725 71.7425 53.4083 71.1906 53.6535 70.3935C53.7762 71.3746 53.5922 71.9265 53.0404 73.3368C54.9412 72.601 56.7807 68.3087 58.1297 61.625C58.9882 63.4645 56.9034 73.7047 55.861 74.9924C56.5968 74.3792 57.6392 73.3368 57.8231 72.4783C57.8231 73.6434 57.8845 75.1764 58.3137 75.7895C58.4939 73.1291 59.1807 70.5275 60.3373 68.1248C60.865 70.1315 61.1936 72.1854 61.3183 74.2566C62.4221 73.766 62.8513 70.6388 62.606 64.8748C63.8035 68.3007 64.3645 71.9166 64.2616 75.5443C65.0403 74.3179 65.2611 72.5396 64.9361 70.2096C65.5017 71.6454 66.3107 72.973 67.3275 74.1339C66.2238 69.6741 65.8967 66.9352 66.3464 65.9173C68.5542 68.3627 70.3367 71.1608 71.6198 74.1952C72.3556 72.601 70.9862 69.2693 67.5115 64.2004C69.8825 67.1028 71.9264 69.1058 73.6433 70.2096C72.8122 69.0118 72.4619 67.5453 72.6622 66.1012C73.9336 66.9597 75.4256 69.2489 77.1384 72.9689C77.7107 71.7016 77.0159 69.1263 75.0537 65.2428C76.1574 65.3205 77.8538 67.0373 80.143 70.3935C80.838 69.2898 80.654 67.7977 79.5912 65.9173C80.3576 66.0298 81.1156 66.1937 81.86 66.4078L80.7562 65.672C78.3648 63.9551 74.3791 60.8279 70.7 58.0072C59.9693 50.0358 60.2146 50.0358 49.4839 58.0072C45.8048 60.8279 41.8191 63.9551 39.4276 65.672C35.5538 68.22 31.5188 70.5141 27.348 72.5396C29.9703 71.8904 32.46 70.7908 34.7062 69.2898C34.2585 70.2279 33.1732 71.1907 31.5176 72.1717Z" fill="white"/>
<path d="M79.5912 91.3644C79.1619 91.4257 78.2422 91.6097 75.6055 90.7512C72.9688 89.8927 68.7379 88.1145 63.7711 86.0297C54.696 82.2893 38.5079 77.6904 29.0649 79.7752C27.2867 80.1432 27.2866 80.1431 27.9612 80.1431C28.963 80.1045 29.9663 80.125 30.9658 80.2044C31.8242 80.3271 32.2535 80.5111 32.4987 81.0016C32.6345 81.2564 32.7055 81.5407 32.7055 81.8294C32.7055 82.1181 32.6345 82.4024 32.4987 82.6572C32.1643 83.0521 31.7136 83.3311 31.2111 83.4543C30.8431 83.577 30.8431 83.577 31.5789 83.6996C32.7364 83.8882 33.9166 83.8882 35.0741 83.6996C36.2858 83.3267 37.4411 82.7904 38.5079 82.1053C39.1824 81.6761 39.2437 81.6761 39.1211 82.1053C39.0257 82.8874 38.6818 83.6182 38.14 84.1901C37.4168 84.8386 36.587 85.3572 35.6872 85.7231C35.0741 86.0297 35.0741 85.9684 35.8099 85.8457C37.0672 85.6794 38.3014 85.3709 39.489 84.926C40.4948 84.4943 41.4424 83.9381 42.3097 83.2704C42.8002 82.9024 42.8002 82.9025 42.6163 83.3317C42.3357 84.0577 41.9195 84.7236 41.3899 85.2939C40.7478 85.9348 40.0266 86.4911 39.2437 86.9495C38.8145 87.1947 38.8145 87.2561 39.4277 87.0721C40.0408 86.8881 41.3286 86.5816 41.9418 86.4589C42.5549 86.3363 42.5549 86.3363 42.3097 86.5816C41.9203 87.0698 41.4664 87.503 40.9606 87.8692C40.4144 88.2432 39.815 88.5326 39.1824 88.7277C38.8145 88.9117 38.7532 88.9116 39.6729 88.789C41.2023 88.5935 42.7042 88.2231 44.1492 87.6853C45.5431 87.0883 46.8607 86.3266 48.0736 85.4165C48.8094 84.8646 48.8094 84.8646 48.4415 85.4165C47.8463 86.3963 47.1909 87.3384 46.4793 88.2372C45.6706 89.1247 44.8107 89.9642 43.9039 90.7512C43.3521 91.2417 43.4134 91.1804 43.9039 90.9965C44.7141 90.7827 45.4963 90.4739 46.234 90.0767C46.8809 89.7277 47.4788 89.2947 48.0122 88.789C48.3801 88.4824 48.3801 88.4824 48.2575 88.7277C48.1576 89.1399 47.992 89.5333 47.767 89.8928C47.4641 90.3595 47.1365 90.8097 46.7859 91.2417C46.5406 91.487 46.5406 91.487 47.2764 91.1191C48.5026 90.5648 49.6908 89.9298 50.8329 89.2182C51.7354 88.5795 52.5956 87.8831 53.4083 87.1334C53.8988 86.7042 53.9601 86.5816 53.6536 87.1334C53.1945 88.1328 52.5958 89.0619 51.8753 89.8928C51.0388 90.8548 50.1151 91.7375 49.116 92.5294C48.5641 93.0813 48.5641 93.0813 49.1773 92.8973C50.3477 92.6588 51.4817 92.2671 52.5498 91.7323C53.9368 90.9907 55.2687 90.1505 56.5355 89.2182C57.3939 88.6664 57.4553 88.5438 57.1487 89.1569C56.6445 90.2213 56.0278 91.2285 55.3091 92.1615C54.6345 92.9953 53.8741 93.7557 53.0404 94.4303C52.6111 94.8595 52.7951 94.7369 54.1441 94.1237C55.4931 93.5105 57.9458 92.2842 59.6627 91.3031C60.7548 90.6699 61.7818 89.9305 62.7286 89.0956C63.2192 88.6664 63.2192 88.6051 63.0352 89.0343C62.5754 90.0145 61.9766 90.9233 61.257 91.7323C60.1868 92.8121 59.0611 93.8354 57.8845 94.7982C57.0874 95.4114 57.0874 95.4114 57.8845 95.1661C59.3023 94.6873 60.694 94.1346 62.0541 93.5105C63.6079 92.7493 65.1224 91.9102 66.5917 90.9965C67.5115 90.3833 67.5728 90.3833 67.3275 90.6899C66.9535 91.4403 66.4321 92.1076 65.7945 92.6521C64.8915 93.4234 63.9278 94.1206 62.9126 94.7369C62.2381 95.1661 62.2381 95.1661 63.0966 94.8595C63.9551 94.5529 65.7946 94.0624 66.9596 93.6332C68.1247 93.2039 68.6766 92.8974 69.2284 93.02C69.7803 93.1426 70.2708 93.6332 70.7614 93.6332C71.2519 93.6332 71.5585 93.1426 72.0491 93.1426C72.5396 93.1426 73.0915 93.5106 74.1952 93.5719C75.5301 93.6133 76.861 93.4054 78.1196 92.9587C78.8242 92.6795 79.4391 92.213 79.8978 91.6097C80.0817 91.3031 80.0817 91.2417 79.5912 91.3644Z" fill="white"/>
<path fill-rule="evenodd" clip-rule="evenodd" d="M55.861 74.9923C55.8181 75.072 55.7813 75.115 55.7384 75.115L55.861 74.9923Z" fill="white"/>
</g>
</g>
<g clip-path="url(#clip1_733_17673)">
<mask id="mask1_733_17673" style="mask-type:luminance" maskUnits="userSpaceOnUse" x="-272" y="-96" width="731" height="488">
<path d="M458.023 -95.1913H-271.785V391.163H458.023V-95.1913Z" fill="white"/>
</mask>
<g mask="url(#mask1_733_17673)">
<path d="M48.7969 140.217V131.668H43.0958V139.35C43.0958 139.856 42.8827 140.341 42.5033 140.698C42.1239 141.055 41.6093 141.256 41.0728 141.256C40.5363 141.256 40.0217 141.055 39.6423 140.698C39.2629 140.341 39.0498 139.856 39.0498 139.35V131.668H33.2567V145.733C33.2567 145.982 33.2042 146.228 33.1022 146.458C33.0001 146.688 32.8506 146.896 32.6624 147.071C32.4741 147.245 32.2508 147.383 32.0056 147.476C31.7603 147.568 31.4979 147.614 31.2337 147.61V151.422C31.9867 151.806 32.83 152.004 33.6858 152C35.1064 151.994 36.4671 151.459 37.4716 150.513C38.4761 149.566 39.0433 148.284 39.0498 146.946V143.134C39.7077 144.009 40.6441 144.665 41.7235 145.006C42.8029 145.347 43.9695 145.356 45.0545 145.031C46.1396 144.706 47.087 144.065 47.7597 143.199C48.4325 142.334 48.7957 141.289 48.7969 140.217Z" fill="#264796"/>
<path d="M58.544 128.058H52.8429V145.271H58.544V128.058Z" fill="#264796"/>
<path d="M48.9196 146.657C48.1931 146.659 47.4951 146.923 46.9701 147.396C46.4451 147.87 46.1335 148.515 46.0996 149.199C46.0636 148.502 45.7401 147.847 45.1981 147.372C44.6561 146.897 43.9385 146.641 43.1987 146.658C42.459 146.675 41.7555 146.964 41.2387 147.463C40.7218 147.962 40.4325 148.631 40.4325 149.329C40.4325 150.026 40.7218 150.695 41.2387 151.194C41.7555 151.693 42.459 151.982 43.1987 151.999C43.9385 152.016 44.6561 151.76 45.1981 151.285C45.7401 150.81 46.0636 150.155 46.0996 149.458C46.1261 149.982 46.3152 150.487 46.6435 150.91C46.9718 151.333 47.4249 151.656 47.9463 151.838C48.4677 152.021 49.0346 152.055 49.5765 151.936C50.1183 151.818 50.6113 151.552 50.9941 151.172C51.3769 150.791 51.6327 150.314 51.7296 149.797C51.8265 149.281 51.7604 148.75 51.5394 148.269C51.3184 147.788 50.9522 147.379 50.4865 147.092C50.0207 146.805 49.4758 146.654 48.9196 146.657Z" fill="#264796"/>
<path d="M29.2107 128.058H23.5402V145.271H29.2107V128.058Z" fill="#264796"/>
<path d="M10.0536 133.343C10.6144 133.34 11.1616 133.181 11.6262 132.885C12.0907 132.589 12.4517 132.17 12.6635 131.68C12.8753 131.191 12.9283 130.654 12.816 130.136C12.7036 129.618 12.4309 129.144 12.0322 128.772C11.6336 128.401 11.1269 128.149 10.5764 128.049C10.0258 127.948 9.45602 128.004 8.93912 128.209C8.42221 128.414 7.98137 128.758 7.67236 129.199C7.36334 129.64 7.20002 130.158 7.20304 130.686C7.20791 131.394 7.51078 132.072 8.04519 132.57C8.5796 133.068 9.3019 133.346 10.0536 133.343Z" fill="#264796"/>
<path d="M13.7012 143.596C13.7012 147.697 5.82379 147.697 5.82379 143.596V131.755H0.0613403V145.155C0.0613403 154.282 19.4943 154.282 19.4943 145.155V131.755H13.7012V143.596Z" fill="#264796"/>
<path d="M117.149 146.657C116.589 146.66 116.041 146.819 115.577 147.115C115.112 147.411 114.751 147.83 114.54 148.32C114.328 148.809 114.275 149.346 114.387 149.864C114.499 150.382 114.772 150.856 115.171 151.228C115.569 151.599 116.076 151.851 116.627 151.951C117.177 152.052 117.747 151.996 118.264 151.791C118.781 151.586 119.222 151.242 119.531 150.801C119.84 150.36 120.003 149.842 120 149.314C120.001 148.963 119.927 148.614 119.784 148.29C119.641 147.965 119.43 147.671 119.165 147.423C118.9 147.176 118.585 146.981 118.239 146.849C117.893 146.718 117.523 146.652 117.149 146.657Z" fill="#264796"/>
<path d="M108.414 146.657C107.686 146.653 106.985 146.917 106.459 147.391C105.933 147.865 105.622 148.513 105.594 149.199C105.558 148.502 105.234 147.847 104.692 147.372C104.15 146.897 103.433 146.641 102.693 146.658C101.953 146.675 101.25 146.964 100.733 147.463C100.216 147.962 99.9267 148.631 99.9267 149.328C99.9267 150.026 100.216 150.695 100.733 151.194C101.25 151.693 101.953 151.982 102.693 151.999C103.433 152.016 104.15 151.76 104.692 151.285C105.234 150.81 105.558 150.155 105.594 149.458C105.622 150.144 105.933 150.792 106.459 151.266C106.985 151.74 107.686 152.004 108.414 152C109.166 152 109.887 151.719 110.419 151.218C110.95 150.717 111.249 150.037 111.249 149.328C111.249 148.62 110.95 147.94 110.419 147.439C109.887 146.938 109.166 146.657 108.414 146.657Z" fill="#264796"/>
<path d="M114.299 139.35C114.299 139.856 114.086 140.341 113.706 140.698C113.327 141.056 112.812 141.256 112.276 141.256C111.739 141.256 111.225 141.056 110.845 140.698C110.466 140.341 110.253 139.856 110.253 139.35V131.639H104.552V139.35C104.552 139.856 104.339 140.341 103.959 140.698C103.58 141.056 103.065 141.256 102.529 141.256C101.992 141.256 101.478 141.056 101.098 140.698C100.719 140.341 100.506 139.856 100.506 139.35V131.639H88.4291C87.5438 131.641 86.6954 131.974 86.0694 132.564C85.4433 133.153 85.0906 133.953 85.0881 134.787V139.35C85.0881 139.86 84.8734 140.348 84.4911 140.708C84.1089 141.068 83.5904 141.271 83.0498 141.271C82.5092 141.271 81.9908 141.068 81.6085 140.708C81.2262 140.348 81.0115 139.86 81.0115 139.35V131.639H68.9348C68.0495 131.641 67.2011 131.974 66.5751 132.564C65.949 133.153 65.5963 133.953 65.5938 134.787V140.217C65.6003 141.555 66.1675 142.837 67.1721 143.784C68.1766 144.73 69.5372 145.265 70.9578 145.271C71.8118 145.261 72.6515 145.063 73.4099 144.693V140.852C72.8699 140.869 72.3446 140.685 71.9484 140.338C71.5522 139.992 71.3174 139.512 71.295 139.004V135.22C71.3079 134.716 71.5303 134.237 71.9144 133.886C72.2985 133.535 72.8135 133.34 73.3486 133.343C73.6104 133.343 73.8697 133.391 74.1116 133.485C74.3535 133.579 74.5733 133.718 74.7583 133.892C74.9434 134.066 75.0902 134.273 75.1902 134.501C75.2901 134.729 75.3414 134.974 75.341 135.22V140.217C75.3417 141.369 75.7604 142.487 76.5277 143.384C77.295 144.282 78.3647 144.905 79.5596 145.151C80.7545 145.397 82.0028 145.251 83.0975 144.737C84.1922 144.223 85.0676 143.372 85.5785 142.325C86.0025 143.204 86.6861 143.949 87.5476 144.472C88.4091 144.995 89.4121 145.273 90.4368 145.273C91.4615 145.273 92.4645 144.995 93.326 144.472C94.1875 143.949 94.871 143.204 95.295 142.325C95.7268 143.201 96.4144 143.944 97.2774 144.465C98.1404 144.987 99.1432 145.266 100.169 145.271C101.196 145.274 102.202 144.997 103.066 144.475C103.931 143.952 104.617 143.206 105.042 142.325C105.434 143.134 106.046 143.832 106.817 144.346C107.588 144.86 108.489 145.173 109.43 145.252C110.37 145.331 111.316 145.174 112.172 144.797C113.027 144.42 113.761 143.836 114.299 143.105V145.242H120V131.639H114.299V139.35ZM94.8352 139.004C94.8312 139.5 94.62 139.976 94.2473 140.327C93.8745 140.678 93.3701 140.877 92.8429 140.881C92.3077 140.875 91.7948 140.678 91.4078 140.33C91.0209 139.981 90.7889 139.507 90.7586 139.004V135.22C90.7586 134.209 91.7701 133.372 92.8429 133.372C93.3667 133.37 93.8703 133.563 94.2436 133.909C94.6169 134.255 94.8296 134.727 94.8352 135.22V139.004Z" fill="#264796"/>
<path fill-rule="evenodd" clip-rule="evenodd" d="M3.58621 168H0V157.632H3.58621V168ZM117.027 157.689C117.814 157.695 118.567 157.992 119.123 158.516C119.679 159.04 119.994 159.75 120 160.491V161.184C119.999 161.927 119.686 162.639 119.128 163.164C118.571 163.689 117.815 163.985 117.027 163.986H113.195C113.441 164.967 114.023 165.718 114.912 165.718H119.019V168H113.533C107.862 168 107.862 157.689 113.533 157.689H117.027ZM116.843 159.971H114.912C114.023 159.971 113.441 160.751 113.195 161.704H116.843C117.037 161.702 117.223 161.628 117.36 161.498C117.498 161.369 117.576 161.194 117.579 161.011V160.664C117.576 160.481 117.498 160.306 117.36 160.177C117.223 160.047 117.037 159.973 116.843 159.971ZM64.3065 157.632V164.274C64.3065 164.596 64.4421 164.905 64.6836 165.132C64.925 165.36 65.2524 165.487 65.5939 165.487C65.9353 165.487 66.2627 165.36 66.5042 165.132C66.7456 164.905 66.8812 164.596 66.8812 164.274V157.632H70.4674V168H66.8812V166.643C66.469 167.194 65.8822 167.608 65.2049 167.826C64.5276 168.044 63.7946 168.054 63.1107 167.855C62.4269 167.656 61.8273 167.259 61.3979 166.719C60.9685 166.18 60.7313 165.526 60.7203 164.852V157.632H64.3065ZM53.5479 160.664V161.011C53.5503 161.194 53.6286 161.369 53.766 161.498C53.9034 161.628 54.0892 161.702 54.2835 161.704H56.6743C57.4611 161.709 58.2141 162.006 58.7705 162.53C59.3269 163.055 59.6419 163.764 59.6475 164.505V165.198C59.6467 165.941 59.3332 166.653 58.7758 167.179C58.2184 167.704 57.4626 167.999 56.6743 168H49.9004V165.718H55.2337C55.4327 165.721 55.6249 165.65 55.7684 165.521C55.9119 165.391 55.9952 165.213 56 165.025V164.679C55.9952 164.491 55.9119 164.313 55.7684 164.183C55.6249 164.054 55.4327 163.982 55.2337 163.986H52.8735C52.0853 163.985 51.3295 163.689 50.7721 163.164C50.2147 162.639 49.9012 161.927 49.9004 161.184V160.491C49.906 159.75 50.2211 159.04 50.7774 158.516C51.3338 157.992 52.0867 157.695 52.8735 157.689H59.6475V159.971H54.2835C54.0892 159.973 53.9034 160.047 53.766 160.177C53.6286 160.306 53.5503 160.481 53.5479 160.664ZM108.69 168H103.234C97.5326 168 97.5326 157.689 103.234 157.689H108.69V159.971H104.582C102.13 159.971 102.13 165.718 104.582 165.718H108.69V168ZM94.1303 168V161.386C94.1303 161.065 93.9946 160.756 93.7532 160.529C93.5118 160.301 93.1843 160.173 92.8429 160.173C92.5015 160.173 92.174 160.301 91.9326 160.529C91.6912 160.756 91.5556 161.065 91.5556 161.386V168H87.9693V157.661H91.5556V158.989C91.9719 158.445 92.5589 158.038 93.2339 157.824C93.9089 157.611 94.6379 157.603 95.3182 157.801C95.9985 157.998 96.5958 158.392 97.0261 158.927C97.4563 159.461 97.6978 160.109 97.7165 160.78V168H94.1303ZM81.5632 158.123C82.1016 157.822 82.7153 157.663 83.341 157.661C83.7858 157.659 84.2266 157.739 84.6383 157.898C85.05 158.057 85.4245 158.29 85.7405 158.585C86.0564 158.88 86.3075 159.231 86.4796 159.617C86.6517 160.004 86.7413 160.418 86.7433 160.837V168H79.1111C78.5505 167.999 78.013 167.789 77.6165 167.415C77.22 167.042 76.997 166.535 76.9962 166.007V164.13C76.9977 163.584 77.148 163.047 77.4326 162.571C77.7173 162.095 78.1269 161.696 78.6221 161.412C79.1173 161.128 79.6816 160.969 80.261 160.949C80.8403 160.929 81.4154 161.05 81.931 161.3L83.1571 161.906V161.386C83.154 161.203 83.1077 161.023 83.0215 160.859C82.9353 160.695 82.8114 160.551 82.6588 160.437C82.5062 160.324 82.3287 160.244 82.1391 160.203C81.9496 160.163 81.7529 160.162 81.5632 160.202V158.123ZM83.1571 163.754L81.931 163.726C81.7649 163.718 81.5989 163.742 81.443 163.796C81.2871 163.851 81.1446 163.935 81.0242 164.043C80.9038 164.151 80.8079 164.281 80.7425 164.425C80.6771 164.569 80.6435 164.724 80.6437 164.881V165.747C80.6453 166.061 80.7782 166.361 81.0135 166.583C81.2489 166.805 81.5676 166.93 81.9004 166.931C82.2315 166.925 82.547 166.798 82.7812 166.577C83.0154 166.357 83.15 166.059 83.1571 165.747V163.754ZM75.7701 168H72.1226V160.837C72.1198 160.29 72.2673 159.751 72.5509 159.272C72.8345 158.794 73.2445 158.393 73.7411 158.108C74.2377 157.823 74.8041 157.664 75.3852 157.647C75.9663 157.629 76.5423 157.753 77.0575 158.007V160.404C76.8903 160.402 76.7243 160.431 76.569 160.489C76.4137 160.548 76.2722 160.634 76.1526 160.744C76.033 160.854 75.9376 160.985 75.872 161.13C75.8063 161.275 75.7717 161.431 75.7701 161.588V168ZM45.1801 168V161.386C45.1801 161.065 45.0445 160.756 44.803 160.529C44.5616 160.301 44.2342 160.173 43.8927 160.173C43.5513 160.173 43.2239 160.301 42.9824 160.529C42.741 160.756 42.6053 161.065 42.6053 161.386V168H39.0192V157.661H42.6053V159.018C42.913 158.597 43.3252 158.253 43.806 158.017C44.2867 157.78 44.8216 157.658 45.364 157.661C46.2494 157.664 47.099 157.991 47.7337 158.573C48.3683 159.155 48.7385 159.946 48.7663 160.78V168H45.1801ZM37.7625 168H34.1762V157.661H37.7625V168ZM26.8812 168V161.357C26.8796 161.2 26.845 161.044 26.7794 160.899C26.7137 160.754 26.6184 160.623 26.4987 160.513C26.3791 160.403 26.2376 160.316 26.0823 160.258C25.927 160.2 25.761 160.171 25.5939 160.173C25.4284 160.172 25.2642 160.201 25.111 160.26C24.9578 160.319 24.8186 160.406 24.7016 160.517C24.5846 160.627 24.4921 160.758 24.4295 160.902C24.3669 161.047 24.3355 161.201 24.3372 161.357V168H20.7203V157.632H24.3372V158.989C24.7472 158.439 25.3319 158.026 26.007 157.809C26.6822 157.592 27.413 157.582 28.0943 157.781C28.7757 157.98 29.3725 158.378 29.7989 158.916C30.2254 159.455 30.4594 160.108 30.4674 160.78V168H26.8812ZM14.3142 158.123C14.8439 157.801 15.4615 157.63 16.092 157.632C16.9933 157.635 17.8568 157.973 18.4942 158.574C19.1315 159.175 19.491 159.988 19.4942 160.837V168H11.8621C11.3014 167.999 10.7639 167.789 10.3675 167.415C9.97101 167.042 9.74793 166.535 9.74712 166.007V164.13C9.74765 163.583 9.89682 163.045 10.1804 162.567C10.464 162.09 10.8726 161.689 11.3673 161.402C11.862 161.115 12.4263 160.953 13.0065 160.93C13.5867 160.907 14.1635 161.024 14.682 161.271L15.908 161.877V161.357C15.9073 161.174 15.8622 160.994 15.7762 160.83C15.6902 160.666 15.5654 160.523 15.4116 160.412C15.2578 160.3 15.0789 160.223 14.8887 160.187C14.6985 160.151 14.5019 160.156 14.3142 160.202V158.123ZM15.908 163.754L14.682 163.697C14.5142 163.692 14.3471 163.719 14.1907 163.777C14.0343 163.834 13.8917 163.921 13.7716 164.031C13.6515 164.142 13.5562 164.274 13.4914 164.42C13.4267 164.566 13.3937 164.723 13.3946 164.881V165.718C13.393 165.874 13.4244 166.029 13.487 166.173C13.5495 166.318 13.642 166.449 13.7591 166.559C13.8761 166.669 14.0153 166.757 14.1685 166.815C14.3217 166.874 14.4858 166.904 14.6513 166.902C14.9841 166.901 15.3028 166.776 15.5382 166.554C15.7735 166.332 15.9064 166.032 15.908 165.718V163.754ZM8.49043 168H4.84291V160.837C4.8444 160.291 4.99469 159.754 5.27937 159.279C5.56405 158.803 5.97361 158.404 6.46883 158.12C6.96405 157.836 7.52835 157.676 8.10771 157.656C8.68708 157.637 9.26211 157.758 9.77777 158.007V160.433C9.60995 160.429 9.44286 160.456 9.28646 160.513C9.13005 160.571 8.98753 160.657 8.86739 160.768C8.74726 160.878 8.65197 161.01 8.5872 161.156C8.52244 161.302 8.48953 161.459 8.49043 161.617V168Z" fill="#264796"/>
</g>
</g>
<defs>
<radialGradient id="paint0_radial_733_17673" cx="0" cy="0" r="1" gradientUnits="userSpaceOnUse" gradientTransform="translate(60.0306 56.6582) scale(12.8768 12.8769)">
<stop stop-color="white"/>
<stop offset="0.2" stop-color="#FFFBF4"/>
<stop offset="1" stop-color="#FFC935"/>
</radialGradient>
<clipPath id="clip0_733_17673">
<rect width="120" height="120" fill="white"/>
</clipPath>
<clipPath id="clip1_733_17673">
<rect width="120" height="40" fill="white" transform="translate(0 128)"/>
</clipPath>
</defs>
</svg>
