<svg width="32" height="45" viewBox="0 0 32 45" fill="none" xmlns="http://www.w3.org/2000/svg">
<path opacity="0.04" d="M20.5 44.5C26.299 44.5 31 42.1495 31 39.25C31 36.3505 26.299 34 20.5 34C14.701 34 10 36.3505 10 39.25C10 42.1495 14.701 44.5 20.5 44.5Z" fill="black"/>
<path opacity="0.04" d="M20.5 44.023C25.7467 44.023 30 41.8862 30 39.2503C30 36.6144 25.7467 34.4775 20.5 34.4775C15.2533 34.4775 11 36.6144 11 39.2503C11 41.8862 15.2533 44.023 20.5 44.023Z" fill="black"/>
<path opacity="0.04" d="M20.5 43.5451C25.1944 43.5451 29 41.6219 29 39.2496C29 36.8773 25.1944 34.9541 20.5 34.9541C15.8056 34.9541 12 36.8773 12 39.2496C12 41.6219 15.8056 43.5451 20.5 43.5451Z" fill="black"/>
<path opacity="0.04" d="M20.5 43.0681C24.6421 43.0681 28 41.3586 28 39.2499C28 37.1411 24.6421 35.4316 20.5 35.4316C16.3579 35.4316 13 37.1411 13 39.2499C13 41.3586 16.3579 43.0681 20.5 43.0681Z" fill="black"/>
<path opacity="0.04" d="M20.5 42.5911C24.0899 42.5911 27 41.0953 27 39.2501C27 37.405 24.0899 35.9092 20.5 35.9092C16.9101 35.9092 14 37.405 14 39.2501C14 41.0953 16.9101 42.5911 20.5 42.5911Z" fill="black"/>
<path opacity="0.04" d="M20.5 42.1141C23.5376 42.1141 26 40.832 26 39.2504C26 37.6688 23.5376 36.3867 20.5 36.3867C17.4624 36.3867 15 37.6688 15 39.2504C15 40.832 17.4624 42.1141 20.5 42.1141Z" fill="black"/>
<path opacity="0.04" d="M20.5 41.636C22.9853 41.636 25 40.5676 25 39.2497C25 37.9317 22.9853 36.8633 20.5 36.8633C18.0147 36.8633 16 37.9317 16 39.2497C16 40.5676 18.0147 41.636 20.5 41.636Z" fill="black"/>
<path fill-rule="evenodd" clip-rule="evenodd" d="M32 4C32 1.79086 30.2091 0 28 0H4C1.79086 0 0 1.79086 0 4V28C0 30.2091 1.79086 32 4 32H10.4634C10.6841 32 10.8985 32.073 11.0734 32.2076L20.391 39.3803C20.7198 39.6334 21.196 39.399 21.196 38.9841V33C21.196 32.4477 21.6438 32 22.196 32H28C30.2091 32 32 30.2091 32 28V4Z" fill="#264796"/>
<g clip-path="url(#clip0_3062_6207)">
<path d="M12.1626 9.10645L13.1032 10.7676L15.0751 10.4219C15.1063 10.416 15.1407 10.4131 15.1719 10.4102C15.0594 10.5303 14.9532 10.6562 14.8532 10.791L13.9376 12.0508L12.8376 12.2441C12.5157 12.2998 12.1907 12.1533 12.0376 11.8838L11.5001 10.9375L10.9626 11.8867C10.8094 12.1592 10.4844 12.3057 10.1626 12.2471L9.03755 12.0508L9.4938 13.0352C9.62505 13.3164 9.5438 13.6475 9.29693 13.8467L8.4313 14.5498L9.53755 14.8311C9.85318 14.9102 10.0782 15.1738 10.0907 15.4814L10.1344 16.5537L11.0563 15.918C11.1157 15.877 11.1782 15.8477 11.2438 15.8242L10.6344 17.9541L9.88443 18.4727C9.65943 18.6279 9.36568 18.6514 9.11568 18.54C8.86568 18.4287 8.70318 18.1943 8.69068 17.9336L8.61255 16.0527L6.67505 15.5605C6.4063 15.4932 6.20005 15.291 6.14068 15.0391C6.0813 14.7871 6.17193 14.5205 6.3813 14.3506L7.90005 13.1201L7.09693 11.3945C6.98755 11.1572 7.02505 10.8789 7.20005 10.6768C7.37505 10.4746 7.65318 10.375 7.92505 10.4248L9.89693 10.7705L10.8376 9.10937C10.9688 8.87793 11.2219 8.73438 11.5001 8.73438C11.7782 8.73438 12.0313 8.87793 12.1626 9.10645ZM22.7657 12.8506L18.4844 11.7754C17.9719 11.6465 17.4282 11.8369 17.1282 12.2471L16.1594 13.5801C16.2001 13.5889 16.2376 13.5977 16.2782 13.6064L23.7032 15.4727C23.7438 15.4814 23.7813 15.4932 23.8188 15.5049L23.6876 13.8936C23.6469 13.3955 23.2782 12.9795 22.7657 12.8506ZM25.1844 13.791L25.4094 16.6152C25.8782 17.2656 26.0563 18.0977 25.8219 18.918L25.4376 20.2656L25.2219 21.0186L25.0501 21.625L24.6626 22.9814C24.5719 23.3037 24.2188 23.4941 23.8782 23.4062C23.5376 23.3184 23.3313 22.9902 23.4251 22.6709L23.8126 21.3145L23.6032 21.2617L13.2782 18.6631L13.0688 18.6104L12.6813 19.9668C12.5907 20.2891 12.2376 20.4795 11.8969 20.3916C11.5563 20.3037 11.3501 19.9756 11.4438 19.6562L11.8313 18.2998L12.2188 16.9404L12.6032 15.5928C12.8376 14.7725 13.4344 14.1367 14.1876 13.791L15.8907 11.4502C16.5501 10.5449 17.7469 10.1289 18.8751 10.4131L23.1563 11.4883C24.2844 11.7725 25.1001 12.6924 25.1876 13.7852L25.1844 13.791ZM23.3126 16.8291L15.8876 14.9629C15.0876 14.7607 14.2657 15.2061 14.0501 15.9561L13.6657 17.3037L23.9876 19.8965L24.3719 18.5488C24.5876 17.7988 24.1126 17.0283 23.3126 16.8262V16.8291ZM23.7594 18.3906C23.7332 18.4953 23.6848 18.594 23.6171 18.6808C23.5494 18.7677 23.4638 18.8408 23.3653 18.896C23.2668 18.9512 23.1576 18.9873 23.0439 19.0021C22.9303 19.017 22.8147 19.0103 22.7039 18.9824C22.5931 18.9545 22.4894 18.906 22.399 18.8398C22.3085 18.7737 22.2332 18.6911 22.1775 18.5971C22.1217 18.5031 22.0867 18.3996 22.0745 18.2926C22.0623 18.1857 22.0731 18.0775 22.1063 17.9746C22.1325 17.8699 22.1809 17.7712 22.2486 17.6844C22.3163 17.5976 22.402 17.5244 22.5004 17.4692C22.5989 17.414 22.7082 17.3779 22.8218 17.3631C22.9354 17.3483 23.0511 17.355 23.1619 17.3829C23.2727 17.4107 23.3763 17.4592 23.4668 17.5254C23.5572 17.5916 23.6325 17.6741 23.6883 17.7681C23.744 17.8621 23.779 17.9657 23.7912 18.0726C23.8035 18.1795 23.7927 18.2877 23.7594 18.3906ZM15.7157 15.54C15.8274 15.5646 15.9326 15.61 16.0252 15.6735C16.1178 15.737 16.1959 15.8172 16.2548 15.9095C16.3137 16.0018 16.3521 16.1043 16.368 16.2108C16.3838 16.3173 16.3766 16.4257 16.3469 16.5296C16.3171 16.6335 16.2654 16.7307 16.1948 16.8155C16.1242 16.9003 16.0362 16.9709 15.9359 17.0231C15.8357 17.0754 15.7252 17.1082 15.6112 17.1197C15.4971 17.1311 15.3817 17.121 15.2719 17.0898C15.1603 17.0653 15.055 17.0199 14.9624 16.9564C14.8698 16.8929 14.7917 16.8127 14.7328 16.7204C14.674 16.628 14.6355 16.5256 14.6196 16.4191C14.6038 16.3125 14.611 16.2041 14.6407 16.1003C14.6705 15.9964 14.7222 15.8992 14.7928 15.8144C14.8634 15.7296 14.9514 15.659 15.0517 15.6068C15.1519 15.5545 15.2624 15.5217 15.3765 15.5102C15.4905 15.4988 15.6059 15.5089 15.7157 15.54Z" fill="white"/>
</g>
<defs>
<clipPath id="clip0_3062_6207">
<rect width="20" height="15" fill="white" transform="translate(6 8.5)"/>
</clipPath>
</defs>
</svg>
