<svg width="82" height="192" viewBox="0 0 82 192" fill="none" transform="rotate(180 0 0)" xmlns="http://www.w3.org/2000/svg">
<path d="M51.1349 109.053C49.1216 109.053 47.4932 107.86 47.4932 106.368C47.4932 104.876 49.1216 103.653 51.1349 103.653H59.5434C61.5567 103.653 63.1851 104.876 63.1851 106.368C63.1851 107.86 61.5567 109.053 59.5434 109.053H51.1349Z" fill="#6A6B6A"/>
<path d="M20.1656 109.053C18.1523 109.053 16.5239 107.86 16.5239 106.368C16.5239 104.876 18.1523 103.653 20.1656 103.653H28.5445C30.5579 103.653 32.1863 104.876 32.1863 106.368C32.1863 107.86 30.5579 109.053 28.5445 109.053H20.1656Z" fill="#6A6B6A"/>
<path d="M26.9756 168.727C26.1629 168.616 25.4259 168.188 24.9223 167.535C24.4188 166.883 24.1887 166.058 24.2813 165.236V98.4318C24.1887 97.6106 24.4188 96.7854 24.9223 96.1329C25.4259 95.4805 26.1629 95.0526 26.9756 94.9409C27.7883 95.0526 28.5253 95.4805 29.0289 96.1329C29.5324 96.7854 29.7625 97.6106 29.6699 98.4318V165.236C29.7625 166.058 29.5324 166.883 29.0289 167.535C28.5253 168.188 27.7883 168.616 26.9756 168.727Z" fill="#898988"/>
<path d="M51.2542 87.5115H30.7067C28.2049 87.5115 26.1768 89.5553 26.1768 92.0765V143.724C26.1768 146.245 28.2049 148.289 30.7067 148.289H51.2542C53.7561 148.289 55.7842 146.245 55.7842 143.724V92.0765C55.7842 89.5553 53.7561 87.5115 51.2542 87.5115Z" fill="#0D47A1"/>
<path d="M41.1883 51.3198V123.465L31.1217 122.182L21.0552 84.5282C20.4979 82.0836 20.4979 79.5434 21.0552 77.0988C22.0323 73.22 34.7338 53.2294 34.7338 53.2294L41.1883 51.3198Z" fill="#C1C1C1"/>
<path d="M41.1878 83.3945H20.8179C20.8179 84.1106 21.0251 84.5283 21.0251 84.5283L31.1213 122.182L41.1878 123.465V83.3945Z" fill="#A2A3A3"/>
<path d="M41.1881 82.7977V51.3198L34.7041 53.11C34.7041 53.11 22.0025 73.1604 21.0254 76.9795C20.6044 78.8481 20.5042 80.7756 20.7294 82.6783L41.1881 82.7977Z" fill="#C1C1C1"/>
<path d="M22.0017 81.7531C23.4486 78.3659 25.1305 75.0857 27.035 71.9368C30.7082 64.5553 35.316 57.6852 40.7432 51.4985L34.8217 53.1694C34.8217 53.1694 22.1202 73.2197 21.1431 77.0388C20.5858 79.4835 20.5858 82.0236 21.1431 84.4682V84.7368C21.3293 83.7157 21.617 82.7161 22.0017 81.7531Z" fill="#898988"/>
<path d="M40.8027 51.3198V123.465L50.8693 122.182L60.9358 84.5282C61.5101 82.0856 61.5101 79.5415 60.9358 77.0988C59.9884 73.22 47.2868 53.2294 47.2868 53.2294L40.8027 51.3198Z" fill="#C1C1C1"/>
<path d="M40.8027 83.3945V123.465L50.8693 122.182L60.9358 84.5283C61.0338 84.1547 61.1129 83.7763 61.1727 83.3945H40.8027Z" fill="#A2A3A3"/>
<path d="M61.2319 82.797C61.4872 80.8954 61.3867 78.9624 60.9358 77.0981C59.9884 73.2193 47.2868 53.2287 47.2868 53.2287L40.8027 51.4385V82.797H61.2319Z" fill="#C1C1C1"/>
<path d="M59.9881 81.7531C58.5293 78.3716 56.8478 75.0921 54.9548 71.9368C51.2711 64.5615 46.6641 57.6928 41.2466 51.4985L47.1681 53.1694C47.1681 53.1694 59.8696 73.2197 60.8171 77.0388C61.3914 79.4815 61.3914 82.0256 60.8171 84.4682V84.7368C60.6268 83.7199 60.3494 82.7216 59.9881 81.7531Z" fill="#898988"/>
<path d="M41.2469 122.331C38.7303 122.331 31.1211 124.33 31.1211 122.331L36.7169 57.227C36.8076 56.105 37.3347 55.0647 38.1832 54.3326C39.0317 53.6005 40.1329 53.2359 41.2469 53.3184H42.7568C43.8691 53.2438 44.9661 53.6111 45.8128 54.3417C46.6595 55.0723 47.1886 56.108 47.2868 57.227L52.8234 113.32C52.8234 115.468 45.2439 122.48 42.7568 122.48L41.2469 122.331Z" fill="#D7D7D7"/>
<path d="M41.2471 122.332H42.757C45.2441 122.332 52.8236 115.32 52.8236 113.172L50.2181 86.9451H34.1413L31.1805 122.182C31.1213 124.331 38.8193 122.332 41.2471 122.332Z" fill="#A2A3A3"/>
<path d="M56.7617 50.3943C55.9386 48.1387 54.6059 46.1071 52.869 44.4603C51.132 42.8135 49.0386 41.5967 46.7543 40.9062C39.5005 39.3249 27.924 41.3538 24.3711 50.8717L56.7617 50.3943Z" fill="#0D47A1"/>
<path d="M54.3329 43.8899C53.8931 43.8899 53.4714 44.0659 53.1605 44.3793C52.8495 44.6926 52.6748 45.1176 52.6748 45.5608V50.1556C52.6748 50.5988 52.8495 51.0238 53.1605 51.3371C53.4714 51.6504 53.8931 51.8265 54.3329 51.8265C54.7726 51.8265 55.1943 51.6504 55.5053 51.3371C55.8162 51.0238 55.9909 50.5988 55.9909 50.1556V45.5608C55.9909 45.1176 55.8162 44.6926 55.5053 44.3793C55.1943 44.0659 54.7726 43.8899 54.3329 43.8899Z" fill="#0D47A1"/>
<path d="M58.2715 43.92C58.2715 43.92 57.0279 37.9526 53.2086 39.1461C51.1953 39.713 49.3596 45.9489 50.5143 48.0971C50.988 48.9624 55.9621 49.1116 57.7089 48.306C58.6268 47.8286 58.686 45.561 58.2715 43.92Z" fill="#E95433"/>
<path d="M57.7089 48.3357C58.3602 48.0374 58.5675 46.7842 58.5082 45.5012H50.1886C50.0588 46.39 50.1714 47.2976 50.5142 48.1269C50.988 48.9026 55.962 49.0518 57.7089 48.3357Z" fill="#A8A7A1"/>
<g style="mix-blend-mode:screen">
<path d="M55.0137 39.1755C57.4415 39.9811 58.2705 43.9196 58.2705 43.9196C58.685 45.5606 58.6258 47.8282 57.708 48.2459C56.8413 48.5545 55.9324 48.7256 55.0137 48.7532V39.1755Z" fill="#E95433"/>
</g>
<path d="M27.6268 43.8899C27.1894 43.8976 26.7721 44.0761 26.4628 44.3878C26.1535 44.6995 25.9764 45.12 25.9688 45.5608V50.1556C25.9764 50.5964 26.1535 51.0169 26.4628 51.3286C26.7721 51.6403 27.1894 51.8188 27.6268 51.8265C28.0665 51.8265 28.4882 51.6504 28.7992 51.3371C29.1101 51.0238 29.2848 50.5988 29.2848 50.1556V45.5608C29.2848 45.1176 29.1101 44.6926 28.7992 44.3793C28.4882 44.0659 28.0665 43.8899 27.6268 43.8899Z" fill="#0D47A1"/>
<path d="M31.5652 43.92C31.5652 43.92 30.3216 37.9526 26.5023 39.1461C24.5186 39.713 22.6829 45.9489 23.808 48.0971C24.2817 48.9624 29.2558 49.1116 31.0026 48.306C31.9205 47.8286 31.9797 45.561 31.5652 43.92Z" fill="#E95433"/>
<path d="M31.0028 48.3357C31.6541 48.0374 31.891 46.7842 31.8022 45.5012H23.5121C23.3587 46.3869 23.4615 47.2984 23.8081 48.1269C24.2819 48.9026 29.2559 49.0518 31.0028 48.3357Z" fill="#A8A7A1"/>
<g style="mix-blend-mode:screen">
<path d="M28.3384 39.1755C30.7366 39.9811 31.5656 43.9196 31.5656 43.9196C31.9801 45.5606 31.9209 47.8282 31.003 48.2459C30.1482 48.5602 29.2481 48.7315 28.3384 48.7532V39.1755Z" fill="#E95433"/>
</g>
<path d="M39.7664 59.1664C38.4779 59.067 37.28 58.4602 36.4322 57.4774C35.5844 56.4946 35.1548 55.2148 35.2364 53.9151V10.1744C35.2364 7.19067 37.2497 0 39.7664 0H42.2237C44.7108 0 46.7537 7.57855 46.7537 10.4727V53.9151C46.8353 55.2148 46.4057 56.4946 45.5579 57.4774C44.7101 58.4602 43.5122 59.067 42.2237 59.1664H39.7664Z" fill="#0D47A1"/>
<path d="M46.7537 53.9158V29.5093H35.2364V53.9158C35.1548 55.2155 35.5844 56.4952 36.4322 57.4781C37.28 58.4609 38.4779 59.0677 39.7664 59.1671H42.2237C43.5122 59.0677 44.7101 58.4609 45.5579 57.4781C46.4057 56.4952 46.8353 55.2155 46.7537 53.9158Z" fill="#0D47A1"/>
<path d="M40.358 49.3802C39.0912 49.3877 37.851 49.014 36.7961 48.3071C35.7412 47.6001 34.9197 46.5921 34.4365 45.4119L33.2818 35.6255C33.2579 34.6096 33.6336 33.6255 34.3269 32.8876C35.0202 32.1498 35.9749 31.7182 36.9828 31.687H44.7399C45.7478 31.7182 46.7025 32.1498 47.3958 32.8876C48.0891 33.6255 48.4648 34.6096 48.4408 35.6255L47.4046 45.3523C47.4046 47.5304 43.8813 49.3206 41.8384 49.3206L40.358 49.3802Z" fill="#0D47A1"/>
<path d="M48.4124 36.8786V35.6255C48.4365 34.6146 48.0648 33.6348 47.3779 32.8978C46.6909 32.1609 45.7437 31.7259 44.7411 31.687H37.0135C36.0057 31.7182 35.051 32.1498 34.3576 32.8876C33.6643 33.6255 33.2887 34.6096 33.3126 35.6255V36.8786H48.4124Z" fill="#FFFCE6"/>
<path d="M48.4123 36.8785V35.6253C48.4123 35.6253 48.4123 35.4165 48.4123 35.2971H33.3125V35.6253V36.8785H48.4123Z" fill="#878888"/>
<path d="M41.4238 61.0164L42.0455 46.3069C38.3294 46.3104 34.6356 46.8839 31.0907 48.0076C25.8015 50.0723 20.6831 52.5565 15.7837 55.4369L17.7082 57.615C17.7082 57.615 26.9457 55.0491 28.8702 56.8094C32.5061 59.5179 36.9024 60.9912 41.4238 61.0164Z" fill="#0D47A1"/>
<path d="M6.93167 47.9484C10.6326 47.471 13.5341 46.1581 13.4157 44.9647C13.2973 43.7712 10.2181 43.3236 6.48758 43.801C2.75704 44.2784 -0.114895 45.5912 0.00353444 46.7847C0.121964 47.9782 3.28995 48.3362 6.93167 47.9484Z" fill="#878888"/>
<path d="M6.93253 47.9476C3.2316 48.425 0.122824 47.9476 0.00439453 46.7839C0.00439453 46.7839 0.00439453 46.6348 0.00439453 46.5452C2.0861 47.6224 4.48598 47.8982 6.75489 47.321C10.219 46.8734 12.9725 45.7098 13.2389 44.6655C13.2933 44.7145 13.3371 44.7742 13.3677 44.8409C13.3982 44.9076 13.4149 44.9799 13.4166 45.0534C13.535 46.1574 10.6335 47.4702 6.93253 47.9476Z" fill="#626362"/>
<path d="M6.54686 43.8597C6.541 43.7417 6.56194 43.624 6.60812 43.5154C6.6543 43.4068 6.72449 43.3103 6.81332 43.2332C7.18757 43.01 7.63097 42.9355 8.05683 43.0243L10.4846 43.2928C13.9487 43.7106 20.3735 44.4565 21.0841 44.4565C22.2684 44.4565 22.4165 45.2621 22.4165 45.2919L25.1699 56.3315H24.8443L22.1796 45.3516C22.1796 45.3516 22.1796 44.7847 21.1729 44.7847C20.1663 44.7847 14.2448 44.0686 10.5438 43.621L8.11605 43.3525C7.80017 43.2387 7.45489 43.2387 7.139 43.3525C7.08801 43.4767 7.08801 43.6162 7.139 43.7404L6.54686 43.8597Z" fill="#797A79"/>
<path d="M5.86579 61.3149C5.76887 61.3518 5.66535 61.3677 5.56192 61.3617C5.4585 61.3558 5.35747 61.328 5.26538 61.2802C5.17328 61.2323 5.09217 61.1656 5.02729 61.0842C4.96242 61.0028 4.91521 60.9086 4.88873 60.8077L4.35582 58.9578C4.32925 58.8578 4.32278 58.7535 4.3368 58.651C4.35083 58.5486 4.38504 58.4499 4.43746 58.3609C4.48988 58.272 4.55943 58.1945 4.64202 58.133C4.72461 58.0715 4.81858 58.0273 4.91837 58.003L16.9686 54.5718C17.0636 54.5344 17.1652 54.5173 17.267 54.5213C17.3689 54.5254 17.4688 54.5507 17.5605 54.5955C17.6523 54.6403 17.7339 54.7037 17.8001 54.7818C17.8664 54.8599 17.9159 54.9509 17.9456 55.0492L18.4786 56.9289C18.5234 57.1265 18.4896 57.334 18.3844 57.5069C18.2793 57.6798 18.1112 57.8043 17.916 57.8538L5.86579 61.3149Z" fill="#313030"/>
<path d="M18.6569 58.3311C18.5892 58.3844 18.5059 58.4133 18.42 58.4133C18.3342 58.4133 18.2508 58.3844 18.1832 58.3311L16.9692 54.1242C16.9692 54.1242 16.9692 53.8258 17.2949 53.7661C17.5022 53.7661 17.7095 53.7661 17.7391 53.7661L18.9529 57.9433C18.9529 58.0925 18.953 58.2416 18.6569 58.3013V58.3311Z" fill="#0C2518"/>
<path d="M40.9805 61.0165L42.0463 46.307C44.9679 46.2267 47.879 46.692 50.6325 47.6795C55.976 49.9214 61.1683 52.5128 66.1764 55.437L64.2519 57.6151C64.2519 57.6151 55.0144 55.0491 53.1195 56.8095C49.6424 59.5189 45.3758 60.9976 40.9805 61.0165Z" fill="#0D47A1"/>
<path d="M75.0582 47.9484C71.3277 47.471 68.4261 46.1581 68.5445 44.9647C68.6629 43.7712 71.7718 43.3236 75.4727 43.801C79.1736 44.2784 82.1048 45.5912 81.9863 46.7847C81.8679 47.9782 78.7591 48.3362 75.0582 47.9484Z" fill="#878888"/>
<path d="M75.0592 47.9476C78.7601 48.425 81.8689 47.9476 81.9873 46.784C82.0041 46.7053 82.0041 46.624 81.9873 46.5453C79.9032 47.6146 77.5063 47.89 75.2368 47.3211C71.8024 46.8735 69.0192 45.7099 68.7528 44.6357C68.6697 44.7525 68.6094 44.8841 68.5751 45.0236C68.4271 46.1574 71.3879 47.4702 75.0592 47.9476Z" fill="#626362"/>
<path d="M55.8438 56.3612L59.5447 45.3514C59.5447 45.3514 59.6927 44.5757 60.8474 44.5757C62.0021 44.5757 68.0124 43.7999 71.4469 43.412L73.9043 43.1137C74.115 43.0634 74.3334 43.056 74.5469 43.0919C74.7604 43.1278 74.9647 43.2062 75.1478 43.3225C75.2273 43.3992 75.2896 43.4921 75.3304 43.595C75.3713 43.6979 75.3898 43.8085 75.3847 43.9193H75.059C75.059 43.7402 75.059 43.5911 74.911 43.5314C74.7629 43.4717 74.1708 43.3822 73.9339 43.5314L71.5357 43.7999C67.8348 44.2475 61.6468 44.9934 60.877 44.9934C60.1072 44.9934 59.9 45.5006 59.8704 45.5304L56.2287 56.6297L55.8438 56.3612Z" fill="#797A79"/>
<path d="M76.1241 61.3149C76.2213 61.3472 76.3239 61.3598 76.4259 61.3517C76.5279 61.3437 76.6273 61.3152 76.7183 61.2679C76.8093 61.2207 76.89 61.1557 76.9557 61.0766C77.0214 60.9976 77.0709 60.9062 77.1011 60.8076L77.6341 58.9578C77.6787 58.7522 77.6416 58.5372 77.531 58.3588C77.4203 58.1804 77.2448 58.0527 77.0419 58.003L64.9917 54.5717C64.7993 54.505 64.5885 54.5178 64.4054 54.6073C64.2223 54.6967 64.0818 54.8556 64.0146 55.0491L63.4817 56.9288C63.46 57.0288 63.4581 57.1321 63.4761 57.2327C63.4941 57.3334 63.5318 57.4295 63.5868 57.5155C63.6418 57.6015 63.7132 57.6756 63.7968 57.7337C63.8804 57.7917 63.9745 57.8326 64.0739 57.8538L76.1241 61.3149Z" fill="#313030"/>
<path d="M63.334 58.3308C63.5412 58.3308 63.7485 58.3308 63.7781 58.3308L64.992 54.1238C64.992 54.1238 64.992 53.8254 64.6959 53.7657C64.6283 53.7125 64.5449 53.6836 64.4591 53.6836C64.3732 53.6836 64.2899 53.7125 64.2222 53.7657L63.0083 57.9429C63.0083 58.0921 63.0083 58.2413 63.334 58.3009V58.3308Z" fill="#0C2518"/>
<path d="M42.046 60.5985C38.2266 60.5985 35.1475 58.5397 35.1475 56.0036C35.1475 53.4675 38.1082 51.3789 42.046 51.3789C45.9838 51.3789 48.9741 53.4376 48.9741 56.0036C48.9741 58.5696 45.8654 60.5985 42.046 60.5985Z" fill="#AEAEAE"/>
<path d="M42.046 60.5985C38.2266 60.5985 35.1475 58.5397 35.1475 56.0036C35.1475 53.4675 38.1082 51.3789 42.046 51.3789C45.9838 51.3789 48.9741 53.4376 48.9741 56.0036C48.9741 58.5696 45.8654 60.5985 42.046 60.5985Z" fill="#AEAEAE"/>
<path d="M42.0468 60.5985C39.0861 60.5985 36.8359 59.047 36.8359 57.1076C36.8359 55.1682 39.1749 53.6167 42.0468 53.6167C44.9188 53.6167 47.2874 55.1981 47.2874 57.1076C47.2874 59.0172 44.9484 60.5985 42.0468 60.5985Z" fill="white"/>
<path d="M28.5162 149.781C27.8945 149.781 27.3911 148.826 27.3911 147.692C27.3911 146.559 27.8945 145.604 28.5162 145.604H52.2022C52.8239 145.604 53.3272 146.559 53.3272 147.692C53.3272 148.826 52.8239 149.781 52.2022 149.781H28.5162Z" fill="#0D47A1"/>
<path d="M44.9475 158.374C44.6218 158.374 44.3257 157.867 44.3257 157.24C44.3257 156.614 44.6218 156.136 44.9475 156.136H53.8297C54.185 156.136 54.4514 156.614 54.4514 157.24C54.4514 157.867 54.185 158.374 53.8297 158.374H44.9475Z" fill="#0D47A1"/>
<path d="M53.4451 163.953C53.0054 163.953 52.5837 163.777 52.2727 163.464C51.9618 163.151 51.7871 162.726 51.7871 162.283V157.717C51.7871 157.274 51.9618 156.849 52.2727 156.536C52.5837 156.223 53.0054 156.047 53.4451 156.047C53.8849 156.047 54.3066 156.223 54.6175 156.536C54.9285 156.849 55.1031 157.274 55.1031 157.717V162.283C55.1031 162.726 54.9285 163.151 54.6175 163.464C54.3066 163.777 53.8849 163.953 53.4451 163.953Z" fill="#0D47A1"/>
<path d="M57.3829 163.923C57.3829 163.923 56.1097 169.891 52.2904 168.697C50.3067 168.13 48.471 161.895 49.5961 159.746C50.0994 158.851 55.0439 158.702 56.8203 159.508C57.7085 160.015 57.7678 162.282 57.3829 163.923Z" fill="#E95433"/>
<path d="M56.82 159.597C57.4714 159.895 57.6786 161.148 57.5898 162.581H49.2997C49.147 161.705 49.2499 160.803 49.5958 159.985C50.0991 158.94 55.0436 158.732 56.82 159.597Z" fill="#A8A7A1"/>
<g style="mix-blend-mode:screen">
<path d="M54.126 168.698C56.5242 167.862 57.3828 163.924 57.3828 163.924C57.7677 162.283 57.7085 160.015 56.8203 159.597C55.9536 159.289 55.0447 159.118 54.126 159.09V168.698Z" fill="#E95433"/>
</g>
<path d="M37.0131 158.374C37.3684 158.374 37.6349 157.867 37.6349 157.24C37.6349 156.614 37.3684 156.136 37.0131 156.136H28.1309C27.7756 156.136 27.4795 156.614 27.4795 157.24C27.4795 157.867 27.7756 158.374 28.1309 158.374H37.0131Z" fill="#0D47A1"/>
<path d="M28.5447 163.953C28.9845 163.953 29.4062 163.777 29.7171 163.464C30.0281 163.151 30.2027 162.726 30.2027 162.283V157.717C30.2027 157.274 30.0281 156.849 29.7171 156.536C29.4062 156.223 28.9845 156.047 28.5447 156.047C28.105 156.047 27.6833 156.223 27.3723 156.536C27.0614 156.849 26.8867 157.274 26.8867 157.717V162.283C26.8867 162.726 27.0614 163.151 27.3723 163.464C27.6833 163.777 28.105 163.953 28.5447 163.953Z" fill="#0D47A1"/>
<path d="M24.6075 163.923C24.6075 163.923 25.8511 169.891 29.6704 168.697C31.6541 168.13 33.5194 161.895 32.3647 159.746C31.891 158.851 26.9169 158.702 25.1701 159.508C24.2522 160.015 24.193 162.282 24.6075 163.923Z" fill="#E95433"/>
<path d="M25.1704 159.597C24.519 159.895 24.3118 161.148 24.371 162.581H32.6907C32.821 161.702 32.7083 160.803 32.365 159.985C31.8913 158.94 26.9764 158.732 25.1704 159.597Z" fill="#A8A7A1"/>
<g style="mix-blend-mode:screen">
<path d="M27.8644 168.698C25.4366 167.862 24.6075 163.924 24.6075 163.924C24.193 162.283 24.2522 160.015 25.1701 159.597C26.0353 159.283 26.9451 159.112 27.8644 159.09V168.698Z" fill="#E95433"/>
</g>
<path d="M52.6461 152.048C51.8999 152.054 51.1689 151.836 50.546 151.422C49.9231 151.008 49.4366 150.416 49.1484 149.723C48.8601 149.029 48.7831 148.265 48.9273 147.527C49.0714 146.789 49.4301 146.111 49.9578 145.58C50.4854 145.048 51.1581 144.686 51.8903 144.541C52.6224 144.396 53.3809 144.473 54.0692 144.764C54.7574 145.054 55.3444 145.545 55.7553 146.172C56.1662 146.8 56.3825 147.537 56.3766 148.289C56.3689 149.283 55.9733 150.235 55.2754 150.938C54.5775 151.642 53.6331 152.04 52.6461 152.048Z" fill="#0D47A1"/>
<path d="M29.9361 152.048C29.1899 152.054 28.4589 151.836 27.8361 151.422C27.2132 151.008 26.7267 150.416 26.4384 149.723C26.1501 149.029 26.0732 148.265 26.2173 147.527C26.3614 146.789 26.7202 146.111 27.2478 145.58C27.7754 145.048 28.4482 144.686 29.1803 144.541C29.9124 144.396 30.6709 144.473 31.3592 144.764C32.0475 145.054 32.6344 145.545 33.0453 146.172C33.4562 146.8 33.6725 147.537 33.6666 148.289C33.6589 149.283 33.2634 150.235 32.5654 150.938C31.8675 151.642 30.9231 152.04 29.9361 152.048Z" fill="#0D47A1"/>
<path d="M40.1214 192C38.8302 191.915 37.6249 191.318 36.7701 190.339C35.9153 189.36 35.4807 188.08 35.5619 186.778V143.008C35.5619 140.024 37.6048 132.863 40.1214 132.863H42.5492C45.0659 132.863 47.1088 140.412 47.1088 143.336V186.778C47.1899 188.08 46.7554 189.36 45.9006 190.339C45.0458 191.318 43.8405 191.915 42.5492 192H40.1214Z" fill="#0D47A1"/>
<path d="M47.4055 170.309H35.2368V182.333H47.4055V170.309Z" fill="#E95433"/>
<path d="M47.4055 170.309H35.2368V175.082H47.4055V170.309Z" fill="#A8A7A1"/>
<g style="mix-blend-mode:screen">
<path d="M47.4345 170.309H44.3257V182.333H47.4345V170.309Z" fill="#E95433"/>
</g>
<path d="M51.9642 174.396V144.559C51.9409 143.369 51.4514 142.237 50.6027 141.41C49.754 140.583 48.615 140.127 47.4343 140.143H35.236C34.0553 140.127 32.9163 140.583 32.0676 141.41C31.2189 142.237 30.7294 143.369 30.7061 144.559V174.396C30.7294 175.586 31.2189 176.718 32.0676 177.545C32.9163 178.372 34.0553 178.828 35.236 178.812H47.4343C48.615 178.828 49.754 178.372 50.6027 177.545C51.4514 176.718 51.9409 175.586 51.9642 174.396ZM36.1835 177.38C35.6624 177.372 35.148 177.261 34.6696 177.053C34.1913 176.844 33.7582 176.543 33.3953 176.166C33.0324 175.79 32.7467 175.345 32.5545 174.856C32.3623 174.368 32.2674 173.847 32.2752 173.322V145.902C32.2674 145.377 32.3623 144.855 32.5545 144.367C32.7467 143.879 33.0324 143.434 33.3953 143.057C33.7582 142.68 34.1913 142.379 34.6696 142.171C35.148 141.963 35.6624 141.852 36.1835 141.844H46.6349C47.1659 141.836 47.6931 141.935 48.1852 142.136C48.6773 142.337 49.1244 142.636 49.4999 143.015C49.8755 143.393 50.1718 143.843 50.3713 144.339C50.5708 144.835 50.6695 145.367 50.6615 145.902V173.471C50.6693 173.996 50.5744 174.517 50.3823 175.006C50.1901 175.494 49.9044 175.939 49.5415 176.316C49.1785 176.692 48.7455 176.994 48.2671 177.202C47.7887 177.41 47.2743 177.521 46.7533 177.529L36.1835 177.38Z" fill="#C4C4C3"/>
<path d="M31.6831 151.959C31.5548 151.959 31.4278 151.933 31.3092 151.884C31.1907 151.834 31.083 151.762 30.9923 151.67C30.9015 151.579 30.8296 151.47 30.7805 151.351C30.7314 151.231 30.7061 151.103 30.7061 150.974C30.706 150.846 30.7315 150.719 30.7809 150.602C30.8304 150.484 30.9028 150.377 30.994 150.288C31.0851 150.199 31.193 150.129 31.3114 150.083C31.4298 150.037 31.5562 150.015 31.6831 150.019H50.6615C50.7884 150.015 50.9148 150.037 51.0332 150.083C51.1516 150.129 51.2595 150.199 51.3507 150.288C51.4418 150.377 51.5142 150.484 51.5637 150.602C51.6131 150.719 51.6386 150.846 51.6386 150.974C51.6386 151.103 51.6133 151.231 51.5642 151.351C51.5151 151.47 51.4431 151.579 51.3524 151.67C51.2617 151.762 51.1539 151.834 51.0354 151.884C50.9168 151.933 50.7898 151.959 50.6615 151.959H31.6831Z" fill="#C4C4C3"/>
<path d="M31.6831 161.298C31.5548 161.298 31.4278 161.273 31.3092 161.223C31.1907 161.174 31.083 161.101 30.9923 161.01C30.9015 160.918 30.8296 160.81 30.7805 160.69C30.7314 160.571 30.7061 160.443 30.7061 160.314C30.706 160.186 30.7315 160.059 30.7809 159.941C30.8304 159.823 30.9028 159.717 30.994 159.628C31.0851 159.539 31.193 159.469 31.3114 159.423C31.4298 159.377 31.5562 159.355 31.6831 159.359H50.6615C50.9156 159.359 51.1597 159.458 51.3421 159.637C51.5245 159.815 51.6309 160.058 51.6386 160.314C51.6386 160.443 51.6133 160.571 51.5642 160.69C51.5151 160.81 51.4431 160.918 51.3524 161.01C51.2617 161.101 51.1539 161.174 51.0354 161.223C50.9168 161.273 50.7898 161.298 50.6615 161.298H31.6831Z" fill="#C4C4C3"/>
<path d="M31.6831 170.667C31.5562 170.671 31.4298 170.649 31.3114 170.603C31.193 170.557 31.0851 170.487 30.994 170.398C30.9028 170.309 30.8304 170.202 30.7809 170.085C30.7315 169.967 30.706 169.84 30.7061 169.712C30.7061 169.583 30.7314 169.455 30.7805 169.335C30.8296 169.216 30.9015 169.107 30.9923 169.016C31.083 168.925 31.1907 168.852 31.3092 168.802C31.4278 168.753 31.5548 168.728 31.6831 168.728H50.6615C50.7898 168.728 50.9168 168.753 51.0354 168.802C51.1539 168.852 51.2617 168.925 51.3524 169.016C51.4431 169.107 51.5151 169.216 51.5642 169.335C51.6133 169.455 51.6386 169.583 51.6386 169.712C51.6386 169.84 51.6131 169.967 51.5637 170.085C51.5142 170.202 51.4418 170.309 51.3507 170.398C51.2595 170.487 51.1516 170.557 51.0332 170.603C50.9148 170.649 50.7884 170.671 50.6615 170.667H31.6831Z" fill="#C4C4C3"/>
<path d="M47.7007 139.995C48.861 140.095 50.0287 139.924 51.1125 139.494C52.1962 139.065 53.1666 138.388 53.9479 137.518C56.6718 133.609 54.1551 125.941 53.1485 121.675C51.9049 116.543 50.9279 112.724 49.3883 107.801C48.5593 105.115 47.9376 102.012 46.9605 99.3866C46.3092 97.6561 43.082 94.5829 40.6837 94.9708C39.5086 95.2155 38.4054 95.7306 37.4604 96.4759C36.5154 97.2212 35.7541 98.1765 35.2359 99.2673C34.2589 101.893 32.8674 106.905 32.0384 109.561C30.4988 114.514 30.1731 116.543 29.0776 121.675C28.0414 125.941 25.5543 133.609 28.2486 137.518C29.0298 138.388 30.0003 139.065 31.084 139.494C32.1678 139.924 33.3355 140.095 34.4958 139.995H41.1574H47.7007Z" fill="#543A22"/>
<path d="M37.6046 109.412H39.7067C41.4536 109.412 43.23 109.412 44.9768 109.412H45.8058C45.9436 109.427 46.0826 109.427 46.2203 109.412C47.1974 109.233 46.2203 107.294 46.2203 106.638C46.2203 105.981 45.8354 104.996 45.6578 104.161C45.4802 103.326 45.4506 103.355 45.3618 102.968H45.1841C45.1079 102.998 45.0234 102.998 44.9472 102.968C44.9472 102.968 44.9472 102.968 44.7696 102.789H37.6638C37.5458 102.843 37.4403 102.922 37.3537 103.019C37.2671 103.117 37.2013 103.231 37.1605 103.355C37.1605 103.743 37.1605 104.161 36.9236 104.549C36.6867 104.937 36.6275 106.22 36.4499 107.025L36.1834 108.249C36.1834 108.517 35.9762 108.905 36.1834 109.174C36.3019 109.591 37.1901 109.383 37.6046 109.412Z" fill="#7A5435"/>
<path d="M37.3086 101.206C37.3086 101.445 37.3086 101.833 37.5158 101.982H44.2367C44.3192 102.003 44.4063 101.993 44.4824 101.955C44.5585 101.917 44.6184 101.852 44.6512 101.773C44.7181 101.673 44.7681 101.562 44.7993 101.445C44.6216 100.669 44.4144 99.8637 44.2071 99.088C43.9999 98.3122 43.9406 96.7905 42.9636 96.7905H39.4107C39.0258 96.7905 38.6705 96.7905 38.3745 97.0591C38.0882 97.5316 37.9064 98.0608 37.8415 98.6106L37.3086 101.117V101.206Z" fill="#7A5435"/>
<path d="M49.211 122.928C49.2944 122.836 49.3584 122.728 49.3991 122.61C49.4398 122.492 49.4564 122.367 49.4479 122.242C48.6781 118.483 47.9083 114.723 47.1089 110.994C46.8943 110.635 46.5732 110.353 46.1911 110.188H36.2133C35.9827 110.288 35.772 110.43 35.5916 110.606C35.4862 110.723 35.3966 110.853 35.3252 110.994C34.9699 112.485 34.6146 113.977 34.2001 115.439C33.6375 117.588 33.075 119.766 32.5421 121.974C32.5258 122.117 32.5384 122.262 32.5791 122.401C32.6198 122.539 32.6877 122.668 32.7789 122.779C32.9478 122.892 33.1403 122.963 33.3414 122.988H49.1222L49.211 122.928Z" fill="#7A5435"/>
<path d="M30.795 135.787H51.8459C52.0615 135.562 52.1879 135.264 52.2012 134.952C51.4314 131.52 50.7208 128.089 50.0398 124.628C49.9438 124.265 49.7366 123.941 49.4477 123.703C49.2771 123.588 49.0861 123.507 48.8852 123.464H32.8971C32.6365 123.596 32.4126 123.79 32.2458 124.031C32.186 124.104 32.1362 124.184 32.0977 124.27C31.2983 127.582 30.5581 130.924 29.8772 134.265C29.8375 134.426 29.8298 134.593 29.8545 134.757C29.8792 134.92 29.9359 135.077 30.0212 135.219C30.1066 135.36 30.2189 135.484 30.3517 135.581C30.4845 135.679 30.6352 135.749 30.795 135.787Z" fill="#7A5435"/>
</svg>
