<svg width="32" height="56" viewBox="0 0 32 56" fill="none" xmlns="http://www.w3.org/2000/svg">
<g clip-path="url(#clip0_3017_27000)">
<path fill-rule="evenodd" clip-rule="evenodd" d="M14.4 14.8641V22.5C14.4 23.3297 15.115 24 16 24C16.885 24 17.6 23.3297 17.6 22.5V14.8641C17.08 14.9531 16.545 15 16 15C15.455 15 14.92 14.9531 14.4 14.8641Z" fill="#52525B"/>
<path fill-rule="evenodd" clip-rule="evenodd" d="M8.80005 6.75C8.80005 4.95979 9.55862 3.2429 10.9089 1.97703C12.2591 0.711159 14.0905 0 16 0C17.9096 0 19.741 0.711159 21.0912 1.97703C22.4415 3.2429 23.2 4.95979 23.2 6.75C23.2 8.54021 22.4415 10.2571 21.0912 11.523C19.741 12.7888 17.9096 13.5 16 13.5C14.0905 13.5 12.2591 12.7888 10.9089 11.523C9.55862 10.2571 8.80005 8.54021 8.80005 6.75ZM16.8 3C16.8 3.4125 16.44 3.75 16 3.75C14.235 3.75 12.8 5.09531 12.8 6.75C12.8 7.1625 12.44 7.5 12 7.5C11.56 7.5 11.2 7.1625 11.2 6.75C11.2 4.26562 13.35 2.25 16 2.25C16.44 2.25 16.8 2.5875 16.8 3Z" fill="#EF4444"/>
</g>
<rect y="24" width="32" height="32" rx="16" fill="black" fill-opacity="0.14"/>
<path d="M14.9922 39.9531C14.9922 39.6667 15.0938 39.4219 15.2969 39.2188C15.5 39.0104 15.7448 38.9062 16.0312 38.9062C16.3177 38.9062 16.5625 39.0104 16.7656 39.2188C16.9688 39.4219 17.0703 39.6667 17.0703 39.9531C17.0703 40.2396 16.9688 40.4844 16.7656 40.6875C16.5625 40.8906 16.3177 40.9922 16.0312 40.9922C15.7448 40.9922 15.5 40.8932 15.2969 40.6953C15.0938 40.4974 14.9922 40.25 14.9922 39.9531Z" fill="black"/>
<defs>
<clipPath id="clip0_3017_27000">
<rect width="16" height="24" fill="white" transform="translate(8)"/>
</clipPath>
</defs>
</svg>
